  0
SECTION
  2
HEADER
  9
$ACADVER
  1
AC1009
  9
$INSBASE
 10
0.0
 20
0.0
 30
0.0
  9
$EXTMIN
 10
0.000000
 20
0.000000
 30
0.0
  9
$EXTMAX
 10
5.640174
 20
4.973355
 30
0.0
  9
$LIMMIN
 10
0.000000
 20
0.000000
  9
$LIMMAX
 10
5.640174
 20
4.973355
  9
$LTSCALE
 40
0.404040
  9
$CELTYPE
  6
BYLAYER
  9
$CECOLOR
 62
   256
  9
$LUNITS
 70
     3
  9
$HANDLING
 70
     1
  9
$UNITMODE
 70
     0
  0
ENDSEC
  0
SECTION
  2
TABLES
  0
TABLE
  2
LTYPE
 70
     1
  0
LTYPE
  2
CONTINUOUS
 70
     0
  3
Solid line
 72
    65
 73
     0
 40
0.0
  0
ENDTAB
  0
TABLE
  2
LAYER
 70
     1
  0
LAYER
  2
0
 70
     0
 62
     7
  6
CONTINUOUS
  0
ENDTAB
  0
TABLE
  2
APPID
 70
     1
  0
APPID
  2
ACAD
 70
     0
  0
ENDTAB
  0
ENDSEC
  0
SECTION
  2
ENTITIES
  0
LINE
  8
0
 10
2.264405
 20
-0.013892
 30
0
 11
3.486905
 21
-0.013892
 31
0
  0
LINE
  8
0
 10
3.486905
 20
-0.013892
 30
0
 11
2.264405
 21
-0.013892
 31
0
  0
LINE
  8
0
 10
2.264405
 20
-0.013892
 30
0
 11
3.486905
 21
-0.013892
 31
0
  0
LINE
  8
0
 10
3.486905
 20
-0.013892
 30
0
 11
3.486905
 21
0.000000
 31
0
  0
LINE
  8
0
 10
3.486905
 20
0.000000
 30
0
 11
3.486905
 21
-0.013892
 31
0
  0
LINE
  8
0
 10
3.486905
 20
-0.013892
 30
0
 11
3.486905
 21
0.000000
 31
0
  0
LINE
  8
0
 10
3.486905
 20
0.000000
 30
0
 11
3.441332
 21
0.016658
 31
0
  0
LINE
  8
0
 10
3.441332
 20
0.016658
 30
0
 11
3.417043
 21
0.022373
 31
0
  0
LINE
  8
0
 10
3.417043
 20
0.022373
 30
0
 11
3.368823
 21
0.027784
 31
0
  0
LINE
  8
0
 10
3.368823
 20
0.027784
 30
0
 11
3.337625
 21
0.052931
 31
0
  0
LINE
  8
0
 10
3.337625
 20
0.052931
 30
0
 11
3.324468
 21
0.072667
 31
0
  0
LINE
  8
0
 10
3.324468
 20
0.072667
 30
0
 11
3.313255
 21
0.111136
 31
0
  0
LINE
  8
0
 10
3.313255
 20
0.111136
 30
0
 11
3.315264
 21
0.127917
 31
0
  0
LINE
  8
0
 10
3.315264
 20
0.127917
 30
0
 11
3.316659
 21
0.136287
 31
0
  0
LINE
  8
0
 10
3.316659
 20
0.136287
 30
0
 11
3.320201
 21
0.152813
 31
0
  0
LINE
  8
0
 10
3.320201
 20
0.152813
 30
0
 11
3.370223
 21
0.155387
 31
0
  0
LINE
  8
0
 10
3.370223
 20
0.155387
 30
0
 11
3.395800
 21
0.153966
 31
0
  0
LINE
  8
0
 10
3.395800
 20
0.153966
 30
0
 11
3.445229
 21
0.145867
 31
0
  0
LINE
  8
0
 10
3.445229
 20
0.145867
 30
0
 11
3.495241
 21
0.137531
 31
0
  0
LINE
  8
0
 10
3.495241
 20
0.137531
 30
0
 11
3.520246
 21
0.133364
 31
0
  0
LINE
  8
0
 10
3.520246
 20
0.133364
 30
0
 11
3.570258
 21
0.125028
 31
0
  0
LINE
  8
0
 10
3.570258
 20
0.125028
 30
0
 11
3.586928
 21
0.130585
 31
0
  0
LINE
  8
0
 10
3.586928
 20
0.130585
 30
0
 11
3.595263
 21
0.133364
 31
0
  0
LINE
  8
0
 10
3.595263
 20
0.133364
 30
0
 11
3.611934
 21
0.138921
 31
0
  0
LINE
  8
0
 10
3.611934
 20
0.138921
 30
0
 11
3.591464
 21
0.167488
 31
0
  0
LINE
  8
0
 10
3.591464
 20
0.167488
 30
0
 11
3.584914
 21
0.187137
 31
0
  0
LINE
  8
0
 10
3.584914
 20
0.187137
 30
0
 11
3.584150
 21
0.222273
 31
0
  0
LINE
  8
0
 10
3.584150
 20
0.222273
 30
0
 11
3.552165
 21
0.264999
 31
0
  0
LINE
  8
0
 10
3.552165
 20
0.264999
 30
0
 11
3.535460
 21
0.285880
 31
0
  0
LINE
  8
0
 10
3.535460
 20
0.285880
 30
0
 11
3.500797
 21
0.326463
 31
0
  0
LINE
  8
0
 10
3.500797
 20
0.326463
 30
0
 11
3.417032
 21
0.319079
 31
0
  0
LINE
  8
0
 10
3.417032
 20
0.319079
 30
0
 11
3.375190
 21
0.313501
 31
0
  0
LINE
  8
0
 10
3.375190
 20
0.313501
 30
0
 11
3.292417
 21
0.298679
 31
0
  0
LINE
  8
0
 10
3.292417
 20
0.298679
 30
0
 11
3.203507
 21
0.287566
 31
0
  0
LINE
  8
0
 10
3.203507
 20
0.287566
 30
0
 11
3.159053
 21
0.282009
 31
0
  0
LINE
  8
0
 10
3.159053
 20
0.282009
 30
0
 11
3.070144
 21
0.270895
 31
0
  0
LINE
  8
0
 10
3.070144
 20
0.270895
 30
0
 11
3.047916
 21
0.268117
 31
0
  0
LINE
  8
0
 10
3.047916
 20
0.268117
 30
0
 11
3.036803
 21
0.266727
 31
0
  0
LINE
  8
0
 10
3.036803
 20
0.266727
 30
0
 11
3.014576
 21
0.263949
 31
0
  0
LINE
  8
0
 10
3.014576
 20
0.263949
 30
0
 11
2.948049
 21
0.269279
 31
0
  0
LINE
  8
0
 10
2.948049
 20
0.269279
 30
0
 11
2.913723
 21
0.267849
 31
0
  0
LINE
  8
0
 10
2.913723
 20
0.267849
 30
0
 11
2.847871
 21
0.257003
 31
0
  0
LINE
  8
0
 10
2.847871
 20
0.257003
 30
0
 11
2.775708
 21
0.250532
 31
0
  0
LINE
  8
0
 10
2.775708
 20
0.250532
 30
0
 11
2.737598
 21
0.253463
 31
0
  0
LINE
  8
0
 10
2.737598
 20
0.253463
 30
0
 11
2.667274
 21
0.270895
 31
0
  0
LINE
  8
0
 10
2.667274
 20
0.270895
 30
0
 11
2.556138
 21
0.282009
 31
0
  0
LINE
  8
0
 10
2.556138
 20
0.282009
 30
0
 11
2.500570
 21
0.287566
 31
0
  0
LINE
  8
0
 10
2.500570
 20
0.287566
 30
0
 11
2.389433
 21
0.298679
 31
0
  0
LINE
  8
0
 10
2.389433
 20
0.298679
 30
0
 11
2.355664
 21
0.297213
 31
0
  0
LINE
  8
0
 10
2.355664
 20
0.297213
 30
0
 11
2.337549
 21
0.300232
 31
0
  0
LINE
  8
0
 10
2.337549
 20
0.300232
 30
0
 11
2.306081
 21
0.312571
 31
0
  0
LINE
  8
0
 10
2.306081
 20
0.312571
 30
0
 11
2.283781
 21
0.317828
 31
0
  0
LINE
  8
0
 10
2.283781
 20
0.317828
 30
0
 11
2.267716
 21
0.313811
 31
0
  0
LINE
  8
0
 10
2.267716
 20
0.313811
 30
0
 11
2.250513
 21
0.298679
 31
0
  0
LINE
  8
0
 10
2.250513
 20
0.298679
 30
0
 11
2.190808
 21
0.223087
 31
0
  0
LINE
  8
0
 10
2.190808
 20
0.223087
 30
0
 11
2.164000
 21
0.182169
 31
0
  0
LINE
  8
0
 10
2.164000
 20
0.182169
 30
0
 11
2.118538
 21
0.097244
 31
0
  0
LINE
  8
0
 10
2.118538
 20
0.097244
 30
0
 11
2.114609
 21
0.086484
 31
0
  0
LINE
  8
0
 10
2.114609
 20
0.086484
 30
0
 11
2.116953
 21
0.077106
 31
0
  0
LINE
  8
0
 10
2.116953
 20
0.077106
 30
0
 11
2.125484
 21
0.069460
 31
0
  0
LINE
  8
0
 10
2.125484
 20
0.069460
 30
0
 11
2.160051
 21
0.057603
 31
0
  0
LINE
  8
0
 10
2.160051
 20
0.057603
 30
0
 11
2.179250
 21
0.054649
 31
0
  0
LINE
  8
0
 10
2.179250
 20
0.054649
 30
0
 11
2.215782
 21
0.055568
 31
0
  0
LINE
  8
0
 10
2.215782
 20
0.055568
 30
0
 11
2.230097
 21
0.034326
 31
0
  0
LINE
  8
0
 10
2.230097
 20
0.034326
 30
0
 11
2.241223
 21
0.024790
 31
0
  0
LINE
  8
0
 10
2.241223
 20
0.024790
 30
0
 11
2.264405
 21
0.013892
 31
0
  0
LINE
  8
0
 10
2.264405
 20
0.013892
 30
0
 11
2.264405
 21
-0.013892
 31
0
  0
LINE
  8
0
 10
2.264405
 20
-0.013892
 30
0
 11
2.264405
 21
0.013892
 31
0
  0
LINE
  8
0
 10
2.264405
 20
0.013892
 30
0
 11
2.264405
 21
-0.013892
 31
0
  0
LINE
  8
0
 10
0.013892
 20
-0.013892
 30
0
 11
1.805967
 21
-0.013892
 31
0
  0
LINE
  8
0
 10
1.805967
 20
-0.013892
 30
0
 11
0.013892
 21
-0.013892
 31
0
  0
LINE
  8
0
 10
0.013892
 20
-0.013892
 30
0
 11
1.805967
 21
-0.013892
 31
0
  0
LINE
  8
0
 10
1.805967
 20
-0.013892
 30
0
 11
1.805967
 21
0.000000
 31
0
  0
LINE
  8
0
 10
1.805967
 20
0.000000
 30
0
 11
1.805967
 21
-0.013892
 31
0
  0
LINE
  8
0
 10
1.805967
 20
-0.013892
 30
0
 11
1.805967
 21
0.000000
 31
0
  0
LINE
  8
0
 10
1.805967
 20
0.000000
 30
0
 11
1.682737
 21
0.046644
 31
0
  0
LINE
  8
0
 10
1.682737
 20
0.046644
 30
0
 11
1.622356
 21
0.074729
 31
0
  0
LINE
  8
0
 10
1.622356
 20
0.074729
 30
0
 11
1.507288
 21
0.138921
 31
0
  0
LINE
  8
0
 10
1.507288
 20
0.138921
 30
0
 11
1.486289
 21
0.154852
 31
0
  0
LINE
  8
0
 10
1.486289
 20
0.154852
 30
0
 11
1.479210
 21
0.176090
 31
0
  0
LINE
  8
0
 10
1.479210
 20
0.176090
 30
0
 11
1.486450
 21
0.201435
 31
0
  0
LINE
  8
0
 10
1.486450
 20
0.201435
 30
0
 11
1.500342
 21
0.215327
 31
0
  0
LINE
  8
0
 10
1.500342
 20
0.215327
 30
0
 11
1.507288
 21
0.222273
 31
0
  0
LINE
  8
0
 10
1.507288
 20
0.222273
 30
0
 11
1.521180
 21
0.236165
 31
0
  0
LINE
  8
0
 10
1.521180
 20
0.236165
 30
0
 11
1.548588
 21
0.243352
 31
0
  0
LINE
  8
0
 10
1.548588
 20
0.243352
 30
0
 11
1.568105
 21
0.239448
 31
0
  0
LINE
  8
0
 10
1.568105
 20
0.239448
 30
0
 11
1.590640
 21
0.222273
 31
0
  0
LINE
  8
0
 10
1.590640
 20
0.222273
 30
0
 11
1.704180
 21
0.182295
 31
0
  0
LINE
  8
0
 10
1.704180
 20
0.182295
 30
0
 11
1.761148
 21
0.162842
 31
0
  0
LINE
  8
0
 10
1.761148
 20
0.162842
 30
0
 11
1.875427
 21
0.125028
 31
0
  0
LINE
  8
0
 10
1.875427
 20
0.125028
 30
0
 11
1.875427
 21
0.141699
 31
0
  0
LINE
  8
0
 10
1.875427
 20
0.141699
 30
0
 11
1.875427
 21
0.150034
 31
0
  0
LINE
  8
0
 10
1.875427
 20
0.150034
 30
0
 11
1.875427
 21
0.166705
 31
0
  0
LINE
  8
0
 10
1.875427
 20
0.166705
 30
0
 11
1.857967
 21
0.164721
 31
0
  0
LINE
  8
0
 10
1.857967
 20
0.164721
 30
0
 11
1.846529
 21
0.168534
 31
0
  0
LINE
  8
0
 10
1.846529
 20
0.168534
 30
0
 11
1.833751
 21
0.180597
 31
0
  0
LINE
  8
0
 10
1.833751
 20
0.180597
 30
0
 11
1.836939
 21
0.198960
 31
0
  0
LINE
  8
0
 10
1.836939
 20
0.198960
 30
0
 11
1.829516
 21
0.213805
 31
0
  0
LINE
  8
0
 10
1.829516
 20
0.213805
 30
0
 11
1.812913
 21
0.222273
 31
0
  0
LINE
  8
0
 10
1.812913
 20
0.222273
 30
0
 11
1.799282
 21
0.253328
 31
0
  0
LINE
  8
0
 10
1.799282
 20
0.253328
 30
0
 11
1.788804
 21
0.268296
 31
0
  0
LINE
  8
0
 10
1.788804
 20
0.268296
 30
0
 11
1.764291
 21
0.291733
 31
0
  0
LINE
  8
0
 10
1.764291
 20
0.291733
 30
0
 11
1.759141
 21
0.325139
 31
0
  0
LINE
  8
0
 10
1.759141
 20
0.325139
 30
0
 11
1.762477
 21
0.345155
 31
0
  0
LINE
  8
0
 10
1.762477
 20
0.345155
 30
0
 11
1.778183
 21
0.375085
 31
0
  0
LINE
  8
0
 10
1.778183
 20
0.375085
 30
0
 11
1.794708
 21
0.378627
 31
0
  0
LINE
  8
0
 10
1.794708
 20
0.378627
 30
0
 11
1.803078
 21
0.380022
 31
0
  0
LINE
  8
0
 10
1.803078
 20
0.380022
 30
0
 11
1.819859
 21
0.382031
 31
0
  0
LINE
  8
0
 10
1.819859
 20
0.382031
 30
0
 11
1.892320
 21
0.307023
 31
0
  0
LINE
  8
0
 10
1.892320
 20
0.307023
 30
0
 11
1.931641
 21
0.271914
 31
0
  0
LINE
  8
0
 10
1.931641
 20
0.271914
 30
0
 11
2.014348
 21
0.208381
 31
0
  0
LINE
  8
0
 10
2.014348
 20
0.208381
 30
0
 11
2.042211
 21
0.236086
 31
0
  0
LINE
  8
0
 10
2.042211
 20
0.236086
 30
0
 11
2.056103
 21
0.249978
 31
0
  0
LINE
  8
0
 10
2.056103
 20
0.249978
 30
0
 11
2.083808
 21
0.277841
 31
0
  0
LINE
  8
0
 10
2.083808
 20
0.277841
 30
0
 11
2.080620
 21
0.296205
 31
0
  0
LINE
  8
0
 10
2.080620
 20
0.296205
 30
0
 11
2.088043
 21
0.311049
 31
0
  0
LINE
  8
0
 10
2.088043
 20
0.311049
 30
0
 11
2.104646
 21
0.319517
 31
0
  0
LINE
  8
0
 10
2.104646
 20
0.319517
 30
0
 11
2.117679
 21
0.337736
 31
0
  0
LINE
  8
0
 10
2.117679
 20
0.337736
 30
0
 11
2.114817
 21
0.360636
 31
0
  0
LINE
  8
0
 10
2.114817
 20
0.360636
 30
0
 11
2.097700
 21
0.375085
 31
0
  0
LINE
  8
0
 10
2.097700
 20
0.375085
 30
0
 11
2.011536
 21
0.387280
 31
0
  0
LINE
  8
0
 10
2.011536
 20
0.387280
 30
0
 11
1.967967
 21
0.400351
 31
0
  0
LINE
  8
0
 10
1.967967
 20
0.400351
 30
0
 11
1.889319
 21
0.437600
 31
0
  0
LINE
  8
0
 10
1.889319
 20
0.437600
 30
0
 11
1.811524
 21
0.476497
 31
0
  0
LINE
  8
0
 10
1.811524
 20
0.476497
 30
0
 11
1.772626
 21
0.495946
 31
0
  0
LINE
  8
0
 10
1.772626
 20
0.495946
 30
0
 11
1.694830
 21
0.534844
 31
0
  0
LINE
  8
0
 10
1.694830
 20
0.534844
 30
0
 11
1.672603
 21
0.551515
 31
0
  0
LINE
  8
0
 10
1.672603
 20
0.551515
 30
0
 11
1.661490
 21
0.559850
 31
0
  0
LINE
  8
0
 10
1.661490
 20
0.559850
 30
0
 11
1.639262
 21
0.576520
 31
0
  0
LINE
  8
0
 10
1.639262
 20
0.576520
 30
0
 11
1.572580
 21
0.609861
 31
0
  0
LINE
  8
0
 10
1.572580
 20
0.609861
 30
0
 11
1.539239
 21
0.626532
 31
0
  0
LINE
  8
0
 10
1.539239
 20
0.626532
 30
0
 11
1.472558
 21
0.659873
 31
0
  0
LINE
  8
0
 10
1.472558
 20
0.659873
 30
0
 11
1.383706
 21
0.726632
 31
0
  0
LINE
  8
0
 10
1.383706
 20
0.726632
 30
0
 11
1.339252
 21
0.759973
 31
0
  0
LINE
  8
0
 10
1.339252
 20
0.759973
 30
0
 11
1.250285
 21
0.826577
 31
0
  0
LINE
  8
0
 10
1.250285
 20
0.826577
 30
0
 11
1.197495
 21
0.879367
 31
0
  0
LINE
  8
0
 10
1.197495
 20
0.879367
 30
0
 11
1.171100
 21
0.905762
 31
0
  0
LINE
  8
0
 10
1.171100
 20
0.905762
 30
0
 11
1.118310
 21
0.958552
 31
0
  0
LINE
  8
0
 10
1.118310
 20
0.958552
 30
0
 11
1.078870
 21
1.019897
 31
0
  0
LINE
  8
0
 10
1.078870
 20
1.019897
 30
0
 11
1.054418
 21
1.048664
 31
0
  0
LINE
  8
0
 10
1.054418
 20
1.048664
 30
0
 11
1.000228
 21
1.097472
 31
0
  0
LINE
  8
0
 10
1.000228
 20
1.097472
 30
0
 11
1.003416
 21
1.115836
 31
0
  0
LINE
  8
0
 10
1.003416
 20
1.115836
 30
0
 11
0.995993
 21
1.130680
 31
0
  0
LINE
  8
0
 10
0.995993
 20
1.130680
 30
0
 11
0.979390
 21
1.139148
 31
0
  0
LINE
  8
0
 10
0.979390
 20
1.139148
 30
0
 11
0.923360
 21
1.249109
 31
0
  0
LINE
  8
0
 10
0.923360
 20
1.249109
 30
0
 11
0.891067
 21
1.302461
 31
0
  0
LINE
  8
0
 10
0.891067
 20
1.302461
 30
0
 11
0.819631
 21
1.403097
 31
0
  0
LINE
  8
0
 10
0.819631
 20
1.403097
 30
0
 11
0.752451
 21
1.594714
 31
0
  0
LINE
  8
0
 10
0.752451
 20
1.594714
 30
0
 11
0.723155
 21
1.692366
 31
0
  0
LINE
  8
0
 10
0.723155
 20
1.692366
 30
0
 11
0.673765
 21
1.889319
 31
0
  0
LINE
  8
0
 10
0.673765
 20
1.889319
 30
0
 11
0.651537
 21
2.044910
 31
0
  0
LINE
  8
0
 10
0.651537
 20
2.044910
 30
0
 11
0.640424
 21
2.122706
 31
0
  0
LINE
  8
0
 10
0.640424
 20
2.122706
 30
0
 11
0.618196
 21
2.278297
 31
0
  0
LINE
  8
0
 10
0.618196
 20
2.278297
 30
0
 11
0.615418
 21
2.297746
 31
0
  0
LINE
  8
0
 10
0.615418
 20
2.297746
 30
0
 11
0.614029
 21
2.307470
 31
0
  0
LINE
  8
0
 10
0.614029
 20
2.307470
 30
0
 11
0.611250
 21
2.326919
 31
0
  0
LINE
  8
0
 10
0.611250
 20
2.326919
 30
0
 11
0.611250
 21
2.376930
 31
0
  0
LINE
  8
0
 10
0.611250
 20
2.376930
 30
0
 11
0.611250
 21
2.401936
 31
0
  0
LINE
  8
0
 10
0.611250
 20
2.401936
 30
0
 11
0.611250
 21
2.451947
 31
0
  0
LINE
  8
0
 10
0.611250
 20
2.451947
 30
0
 11
0.552904
 21
2.510294
 31
0
  0
LINE
  8
0
 10
0.552904
 20
2.510294
 30
0
 11
0.523730
 21
2.539467
 31
0
  0
LINE
  8
0
 10
0.523730
 20
2.539467
 30
0
 11
0.465384
 21
2.597814
 31
0
  0
LINE
  8
0
 10
0.465384
 20
2.597814
 30
0
 11
0.381832
 21
2.693081
 31
0
  0
LINE
  8
0
 10
0.381832
 20
2.693081
 30
0
 11
0.342664
 21
2.743439
 31
0
  0
LINE
  8
0
 10
0.342664
 20
2.743439
 30
0
 11
0.270895
 21
2.847871
 31
0
  0
LINE
  8
0
 10
0.270895
 20
2.847871
 30
0
 11
0.257947
 21
2.881704
 31
0
  0
LINE
  8
0
 10
0.257947
 20
2.881704
 30
0
 11
0.259871
 21
2.906715
 31
0
  0
LINE
  8
0
 10
0.259871
 20
2.906715
 30
0
 11
0.277841
 21
2.938169
 31
0
  0
LINE
  8
0
 10
0.277841
 20
2.938169
 30
0
 11
0.322322
 21
2.974256
 31
0
  0
LINE
  8
0
 10
0.322322
 20
2.974256
 30
0
 11
0.344549
 21
2.992316
 31
0
  0
LINE
  8
0
 10
0.344549
 20
2.992316
 30
0
 11
0.388977
 21
3.028468
 31
0
  0
LINE
  8
0
 10
0.388977
 20
3.028468
 30
0
 11
0.437883
 21
3.042950
 31
0
  0
LINE
  8
0
 10
0.437883
 20
3.042950
 30
0
 11
0.462341
 21
3.056708
 31
0
  0
LINE
  8
0
 10
0.462341
 20
3.056708
 30
0
 11
0.500114
 21
3.090982
 31
0
  0
LINE
  8
0
 10
0.500114
 20
3.090982
 30
0
 11
0.535848
 21
3.109113
 31
0
  0
LINE
  8
0
 10
0.535848
 20
3.109113
 30
0
 11
0.552986
 21
3.120538
 31
0
  0
LINE
  8
0
 10
0.552986
 20
3.120538
 30
0
 11
0.583466
 21
3.146550
 31
0
  0
LINE
  8
0
 10
0.583466
 20
3.146550
 30
0
 11
0.638870
 21
3.182921
 31
0
  0
LINE
  8
0
 10
0.638870
 20
3.182921
 30
0
 11
0.666656
 21
3.200981
 31
0
  0
LINE
  8
0
 10
0.666656
 20
3.200981
 30
0
 11
0.722387
 21
3.236848
 31
0
  0
LINE
  8
0
 10
0.722387
 20
3.236848
 30
0
 11
0.728556
 21
3.293794
 31
0
  0
LINE
  8
0
 10
0.728556
 20
3.293794
 30
0
 11
0.735763
 21
3.322620
 31
0
  0
LINE
  8
0
 10
0.735763
 20
3.322620
 30
0
 11
0.757117
 21
3.375769
 31
0
  0
LINE
  8
0
 10
0.757117
 20
3.375769
 30
0
 11
0.773920
 21
3.449458
 31
0
  0
LINE
  8
0
 10
0.773920
 20
3.449458
 30
0
 11
0.785157
 21
3.485976
 31
0
  0
LINE
  8
0
 10
0.785157
 20
3.485976
 30
0
 11
0.812685
 21
3.556366
 31
0
  0
LINE
  8
0
 10
0.812685
 20
3.556366
 30
0
 11
0.838636
 21
3.642126
 31
0
  0
LINE
  8
0
 10
0.838636
 20
3.642126
 30
0
 11
0.863111
 21
3.684957
 31
0
  0
LINE
  8
0
 10
0.863111
 20
3.684957
 30
0
 11
0.923822
 21
3.750854
 31
0
  0
LINE
  8
0
 10
0.923822
 20
3.750854
 30
0
 11
0.941321
 21
3.786902
 31
0
  0
LINE
  8
0
 10
0.941321
 20
3.786902
 30
0
 11
0.952845
 21
3.804189
 31
0
  0
LINE
  8
0
 10
0.952845
 20
3.804189
 30
0
 11
0.979390
 21
3.834207
 31
0
  0
LINE
  8
0
 10
0.979390
 20
3.834207
 30
0
 11
1.012417
 21
3.884426
 31
0
  0
LINE
  8
0
 10
1.012417
 20
3.884426
 30
0
 11
1.029089
 21
3.909433
 31
0
  0
LINE
  8
0
 10
1.029089
 20
3.909433
 30
0
 11
1.062742
 21
3.959235
 31
0
  0
LINE
  8
0
 10
1.062742
 20
3.959235
 30
0
 11
1.165543
 21
4.062036
 31
0
  0
LINE
  8
0
 10
1.165543
 20
4.062036
 30
0
 11
1.216944
 21
4.113437
 31
0
  0
LINE
  8
0
 10
1.216944
 20
4.113437
 30
0
 11
1.319745
 21
4.216238
 31
0
  0
LINE
  8
0
 10
1.319745
 20
4.216238
 30
0
 11
1.446986
 21
4.305956
 31
0
  0
LINE
  8
0
 10
1.446986
 20
4.305956
 30
0
 11
1.510894
 21
4.350414
 31
0
  0
LINE
  8
0
 10
1.510894
 20
4.350414
 30
0
 11
1.639262
 21
4.438511
 31
0
  0
LINE
  8
0
 10
1.639262
 20
4.438511
 30
0
 11
1.694830
 21
4.466295
 31
0
  0
LINE
  8
0
 10
1.694830
 20
4.466295
 30
0
 11
1.722615
 21
4.480187
 31
0
  0
LINE
  8
0
 10
1.722615
 20
4.480187
 30
0
 11
1.778183
 21
4.507971
 31
0
  0
LINE
  8
0
 10
1.778183
 20
4.507971
 30
0
 11
1.851231
 21
4.533551
 31
0
  0
LINE
  8
0
 10
1.851231
 20
4.533551
 30
0
 11
1.887417
 21
4.547469
 31
0
  0
LINE
  8
0
 10
1.887417
 20
4.547469
 30
0
 11
1.958779
 21
4.577432
 31
0
  0
LINE
  8
0
 10
1.958779
 20
4.577432
 30
0
 11
2.025461
 21
4.599659
 31
0
  0
LINE
  8
0
 10
2.025461
 20
4.599659
 30
0
 11
2.058802
 21
4.610772
 31
0
  0
LINE
  8
0
 10
2.058802
 20
4.610772
 30
0
 11
2.125484
 21
4.633000
 31
0
  0
LINE
  8
0
 10
2.125484
 20
4.633000
 30
0
 11
2.231171
 21
4.654709
 31
0
  0
LINE
  8
0
 10
2.231171
 20
4.654709
 30
0
 11
2.283964
 21
4.665824
 31
0
  0
LINE
  8
0
 10
2.283964
 20
4.665824
 30
0
 11
2.389433
 21
4.688568
 31
0
  0
LINE
  8
0
 10
2.389433
 20
4.688568
 30
0
 11
2.462875
 21
4.692773
 31
0
  0
LINE
  8
0
 10
2.462875
 20
4.692773
 30
0
 11
2.500267
 21
4.699964
 31
0
  0
LINE
  8
0
 10
2.500267
 20
4.699964
 30
0
 11
2.570030
 21
4.723298
 31
0
  0
LINE
  8
0
 10
2.570030
 20
4.723298
 30
0
 11
2.631155
 21
4.723298
 31
0
  0
LINE
  8
0
 10
2.631155
 20
4.723298
 30
0
 11
2.661717
 21
4.723298
 31
0
  0
LINE
  8
0
 10
2.661717
 20
4.723298
 30
0
 11
2.722842
 21
4.723298
 31
0
  0
LINE
  8
0
 10
2.722842
 20
4.723298
 30
0
 11
2.722842
 21
4.728855
 31
0
  0
LINE
  8
0
 10
2.722842
 20
4.728855
 30
0
 11
2.722842
 21
4.731633
 31
0
  0
LINE
  8
0
 10
2.722842
 20
4.731633
 30
0
 11
2.722842
 21
4.737190
 31
0
  0
LINE
  8
0
 10
2.722842
 20
4.737190
 30
0
 11
2.911774
 21
4.737190
 31
0
  0
LINE
  8
0
 10
2.911774
 20
4.737190
 30
0
 11
3.006240
 21
4.737190
 31
0
  0
LINE
  8
0
 10
3.006240
 20
4.737190
 30
0
 11
3.195172
 21
4.737190
 31
0
  0
LINE
  8
0
 10
3.195172
 20
4.737190
 30
0
 11
3.312900
 21
4.717625
 31
0
  0
LINE
  8
0
 10
3.312900
 20
4.717625
 30
0
 11
3.371498
 21
4.705068
 31
0
  0
LINE
  8
0
 10
3.371498
 20
4.705068
 30
0
 11
3.486905
 21
4.674676
 31
0
  0
LINE
  8
0
 10
3.486905
 20
4.674676
 30
0
 11
3.576010
 21
4.647525
 31
0
  0
LINE
  8
0
 10
3.576010
 20
4.647525
 30
0
 11
3.620469
 21
4.633632
 31
0
  0
LINE
  8
0
 10
3.620469
 20
4.633632
 30
0
 11
3.709178
 21
4.605216
 31
0
  0
LINE
  8
0
 10
3.709178
 20
4.605216
 30
0
 11
3.775860
 21
4.571875
 31
0
  0
LINE
  8
0
 10
3.775860
 20
4.571875
 30
0
 11
3.809201
 21
4.555204
 31
0
  0
LINE
  8
0
 10
3.809201
 20
4.555204
 30
0
 11
3.875883
 21
4.521863
 31
0
  0
LINE
  8
0
 10
3.875883
 20
4.521863
 30
0
 11
3.928500
 21
4.489659
 31
0
  0
LINE
  8
0
 10
3.928500
 20
4.489659
 30
0
 11
3.953797
 21
4.471389
 31
0
  0
LINE
  8
0
 10
3.953797
 20
4.471389
 30
0
 11
4.000911
 21
4.431565
 31
0
  0
LINE
  8
0
 10
4.000911
 20
4.431565
 30
0
 11
4.019275
 21
4.434753
 31
0
  0
LINE
  8
0
 10
4.019275
 20
4.434753
 30
0
 11
4.034120
 21
4.427330
 31
0
  0
LINE
  8
0
 10
4.034120
 20
4.427330
 30
0
 11
4.042587
 21
4.410727
 31
0
  0
LINE
  8
0
 10
4.042587
 20
4.410727
 30
0
 11
4.132128
 21
4.344896
 31
0
  0
LINE
  8
0
 10
4.132128
 20
4.344896
 30
0
 11
4.176591
 21
4.311549
 31
0
  0
LINE
  8
0
 10
4.176591
 20
4.311549
 30
0
 11
4.264860
 21
4.244022
 31
0
  0
LINE
  8
0
 10
4.264860
 20
4.244022
 30
0
 11
4.339877
 21
4.169005
 31
0
  0
LINE
  8
0
 10
4.339877
 20
4.169005
 30
0
 11
4.377386
 21
4.131497
 31
0
  0
LINE
  8
0
 10
4.377386
 20
4.131497
 30
0
 11
4.452403
 21
4.056480
 31
0
  0
LINE
  8
0
 10
4.452403
 20
4.056480
 30
0
 11
4.497830
 21
3.984579
 31
0
  0
LINE
  8
0
 10
4.497830
 20
3.984579
 30
0
 11
4.524819
 21
3.950487
 31
0
  0
LINE
  8
0
 10
4.524819
 20
3.950487
 30
0
 11
4.584378
 21
3.889775
 31
0
  0
LINE
  8
0
 10
4.584378
 20
3.889775
 30
0
 11
4.598860
 21
3.840869
 31
0
  0
LINE
  8
0
 10
4.598860
 20
3.840869
 30
0
 11
4.612618
 21
3.816411
 31
0
  0
LINE
  8
0
 10
4.612618
 20
3.816411
 30
0
 11
4.646892
 21
3.778638
 31
0
  0
LINE
  8
0
 10
4.646892
 20
3.778638
 30
0
 11
4.701960
 21
3.689419
 31
0
  0
LINE
  8
0
 10
4.701960
 20
3.689419
 30
0
 11
4.729746
 21
3.644961
 31
0
  0
LINE
  8
0
 10
4.729746
 20
3.644961
 30
0
 11
4.785812
 21
3.556366
 31
0
  0
LINE
  8
0
 10
4.785812
 20
3.556366
 30
0
 11
4.824710
 21
3.478570
 31
0
  0
LINE
  8
0
 10
4.824710
 20
3.478570
 30
0
 11
4.844159
 21
3.439672
 31
0
  0
LINE
  8
0
 10
4.844159
 20
3.439672
 30
0
 11
4.883057
 21
3.361877
 31
0
  0
LINE
  8
0
 10
4.883057
 20
3.361877
 30
0
 11
4.921419
 21
3.255049
 31
0
  0
LINE
  8
0
 10
4.921419
 20
3.255049
 30
0
 11
4.942298
 21
3.202156
 31
0
  0
LINE
  8
0
 10
4.942298
 20
3.202156
 30
0
 11
4.987247
 21
3.097928
 31
0
  0
LINE
  8
0
 10
4.987247
 20
3.097928
 30
0
 11
4.988192
 21
3.041267
 31
0
  0
LINE
  8
0
 10
4.988192
 20
3.041267
 30
0
 11
4.994111
 21
3.011673
 31
0
  0
LINE
  8
0
 10
4.994111
 20
3.011673
 30
0
 11
5.015031
 21
2.959007
 31
0
  0
LINE
  8
0
 10
5.015031
 20
2.959007
 30
0
 11
5.023366
 21
2.925666
 31
0
  0
LINE
  8
0
 10
5.023366
 20
2.925666
 30
0
 11
5.027534
 21
2.908996
 31
0
  0
LINE
  8
0
 10
5.027534
 20
2.908996
 30
0
 11
5.035869
 21
2.875655
 31
0
  0
LINE
  8
0
 10
5.035869
 20
2.875655
 30
0
 11
5.046983
 21
2.808973
 31
0
  0
LINE
  8
0
 10
5.046983
 20
2.808973
 30
0
 11
5.052540
 21
2.775632
 31
0
  0
LINE
  8
0
 10
5.052540
 20
2.775632
 30
0
 11
5.063653
 21
2.708950
 31
0
  0
LINE
  8
0
 10
5.063653
 20
2.708950
 30
0
 11
5.059764
 21
2.674022
 31
0
  0
LINE
  8
0
 10
5.059764
 20
2.674022
 30
0
 11
5.067369
 21
2.651207
 31
0
  0
LINE
  8
0
 10
5.067369
 20
2.651207
 30
0
 11
5.091437
 21
2.625598
 31
0
  0
LINE
  8
0
 10
5.091437
 20
2.625598
 30
0
 11
5.096930
 21
2.612539
 31
0
  0
LINE
  8
0
 10
5.096930
 20
2.612539
 30
0
 11
5.116075
 21
2.608710
 31
0
  0
LINE
  8
0
 10
5.116075
 20
2.608710
 30
0
 11
5.126168
 21
2.618652
 31
0
  0
LINE
  8
0
 10
5.126168
 20
2.618652
 30
0
 11
5.317565
 21
2.629954
 31
0
  0
LINE
  8
0
 10
5.317565
 20
2.629954
 30
0
 11
5.413799
 21
2.631349
 31
0
  0
LINE
  8
0
 10
5.413799
 20
2.631349
 30
0
 11
5.605443
 21
2.625598
 31
0
  0
LINE
  8
0
 10
5.605443
 20
2.625598
 30
0
 11
5.623971
 21
2.617972
 31
0
  0
LINE
  8
0
 10
5.623971
 20
2.617972
 30
0
 11
5.633314
 21
2.603957
 31
0
  0
LINE
  8
0
 10
5.633314
 20
2.603957
 30
0
 11
5.633228
 21
2.583922
 31
0
  0
LINE
  8
0
 10
5.633228
 20
2.583922
 30
0
 11
5.624035
 21
2.557120
 31
0
  0
LINE
  8
0
 10
5.624035
 20
2.557120
 30
0
 11
5.621159
 21
2.542737
 31
0
  0
LINE
  8
0
 10
5.621159
 20
2.542737
 30
0
 11
5.619336
 21
2.514462
 31
0
  0
LINE
  8
0
 10
5.619336
 20
2.514462
 30
0
 11
5.602665
 21
2.447780
 31
0
  0
LINE
  8
0
 10
5.602665
 20
2.447780
 30
0
 11
5.594330
 21
2.414439
 31
0
  0
LINE
  8
0
 10
5.594330
 20
2.414439
 30
0
 11
5.577659
 21
2.347757
 31
0
  0
LINE
  8
0
 10
5.577659
 20
2.347757
 30
0
 11
5.561637
 21
2.279319
 31
0
  0
LINE
  8
0
 10
5.561637
 20
2.279319
 30
0
 11
5.550336
 21
2.245416
 31
0
  0
LINE
  8
0
 10
5.550336
 20
2.245416
 30
0
 11
5.522091
 21
2.181052
 31
0
  0
LINE
  8
0
 10
5.522091
 20
2.181052
 30
0
 11
5.500906
 21
2.110826
 31
0
  0
LINE
  8
0
 10
5.500906
 20
2.110826
 30
0
 11
5.485054
 21
2.076240
 31
0
  0
LINE
  8
0
 10
5.485054
 20
2.076240
 30
0
 11
5.445685
 21
2.014348
 31
0
  0
LINE
  8
0
 10
5.445685
 20
2.014348
 30
0
 11
5.431891
 21
1.951704
 31
0
  0
LINE
  8
0
 10
5.431891
 20
1.951704
 30
0
 11
5.422004
 21
1.920632
 31
0
  0
LINE
  8
0
 10
5.422004
 20
1.920632
 30
0
 11
5.397063
 21
1.861535
 31
0
  0
LINE
  8
0
 10
5.397063
 20
1.861535
 30
0
 11
5.358165
 21
1.783740
 31
0
  0
LINE
  8
0
 10
5.358165
 20
1.783740
 30
0
 11
5.338716
 21
1.744842
 31
0
  0
LINE
  8
0
 10
5.338716
 20
1.744842
 30
0
 11
5.299818
 21
1.667046
 31
0
  0
LINE
  8
0
 10
5.299818
 20
1.667046
 30
0
 11
5.250419
 21
1.588861
 31
0
  0
LINE
  8
0
 10
5.250419
 20
1.588861
 30
0
 11
5.225410
 21
1.549958
 31
0
  0
LINE
  8
0
 10
5.225410
 20
1.549958
 30
0
 11
5.174790
 21
1.472558
 31
0
  0
LINE
  8
0
 10
5.174790
 20
1.472558
 30
0
 11
5.156659
 21
1.436823
 31
0
  0
LINE
  8
0
 10
5.156659
 20
1.436823
 30
0
 11
5.145233
 21
1.419686
 31
0
  0
LINE
  8
0
 10
5.145233
 20
1.419686
 30
0
 11
5.119222
 21
1.389205
 31
0
  0
LINE
  8
0
 10
5.119222
 20
1.389205
 30
0
 11
5.077555
 21
1.326147
 31
0
  0
LINE
  8
0
 10
5.077555
 20
1.326147
 30
0
 11
5.055238
 21
1.295461
 31
0
  0
LINE
  8
0
 10
5.055238
 20
1.295461
 30
0
 11
5.008085
 21
1.236393
 31
0
  0
LINE
  8
0
 10
5.008085
 20
1.236393
 30
0
 11
4.855273
 21
1.083580
 31
0
  0
LINE
  8
0
 10
4.855273
 20
1.083580
 30
0
 11
4.778866
 21
1.007174
 31
0
  0
LINE
  8
0
 10
4.778866
 20
1.007174
 30
0
 11
4.626054
 21
0.854361
 31
0
  0
LINE
  8
0
 10
4.626054
 20
0.854361
 30
0
 11
4.514660
 21
0.782039
 31
0
  0
LINE
  8
0
 10
4.514660
 20
0.782039
 30
0
 11
4.461260
 21
0.741286
 31
0
  0
LINE
  8
0
 10
4.461260
 20
0.741286
 30
0
 11
4.362105
 21
0.652926
 31
0
  0
LINE
  8
0
 10
4.362105
 20
0.652926
 30
0
 11
4.302251
 21
0.631963
 31
0
  0
LINE
  8
0
 10
4.302251
 20
0.631963
 30
0
 11
4.272940
 21
0.615842
 31
0
  0
LINE
  8
0
 10
4.272940
 20
0.615842
 30
0
 11
4.223184
 21
0.576520
 31
0
  0
LINE
  8
0
 10
4.223184
 20
0.576520
 30
0
 11
4.207783
 21
0.568060
 31
0
  0
LINE
  8
0
 10
4.207783
 20
0.568060
 30
0
 11
4.198905
 21
0.565101
 31
0
  0
LINE
  8
0
 10
4.198905
 20
0.565101
 30
0
 11
4.181508
 21
0.562628
 31
0
  0
LINE
  8
0
 10
4.181508
 20
0.562628
 30
0
 11
4.125940
 21
0.534844
 31
0
  0
LINE
  8
0
 10
4.125940
 20
0.534844
 30
0
 11
4.098156
 21
0.520952
 31
0
  0
LINE
  8
0
 10
4.098156
 20
0.520952
 30
0
 11
4.042587
 21
0.493168
 31
0
  0
LINE
  8
0
 10
4.042587
 20
0.493168
 30
0
 11
3.955936
 21
0.465895
 31
0
  0
LINE
  8
0
 10
3.955936
 20
0.465895
 30
0
 11
3.913360
 21
0.447445
 31
0
  0
LINE
  8
0
 10
3.913360
 20
0.447445
 30
0
 11
3.834207
 21
0.402870
 31
0
  0
LINE
  8
0
 10
3.834207
 20
0.402870
 30
0
 11
3.794469
 21
0.404727
 31
0
  0
LINE
  8
0
 10
3.794469
 20
0.404727
 30
0
 11
3.772449
 21
0.400009
 31
0
  0
LINE
  8
0
 10
3.772449
 20
0.400009
 30
0
 11
3.736962
 21
0.382031
 31
0
  0
LINE
  8
0
 10
3.736962
 20
0.382031
 30
0
 11
3.711229
 21
0.371192
 31
0
  0
LINE
  8
0
 10
3.711229
 20
0.371192
 30
0
 11
3.694872
 21
0.369556
 31
0
  0
LINE
  8
0
 10
3.694872
 20
0.369556
 30
0
 11
3.667502
 21
0.375085
 31
0
  0
LINE
  8
0
 10
3.667502
 20
0.375085
 30
0
 11
3.661155
 21
0.341310
 31
0
  0
LINE
  8
0
 10
3.661155
 20
0.341310
 30
0
 11
3.666846
 21
0.318549
 31
0
  0
LINE
  8
0
 10
3.666846
 20
0.318549
 30
0
 11
3.688340
 21
0.291733
 31
0
  0
LINE
  8
0
 10
3.688340
 20
0.291733
 30
0
 11
3.724629
 21
0.239723
 31
0
  0
LINE
  8
0
 10
3.724629
 20
0.239723
 30
0
 11
3.740255
 21
0.211311
 31
0
  0
LINE
  8
0
 10
3.740255
 20
0.211311
 30
0
 11
3.764746
 21
0.152813
 31
0
  0
LINE
  8
0
 10
3.764746
 20
0.152813
 30
0
 11
3.823537
 21
0.155939
 31
0
  0
LINE
  8
0
 10
3.823537
 20
0.155939
 30
0
 11
3.855758
 21
0.167217
 31
0
  0
LINE
  8
0
 10
3.855758
 20
0.167217
 30
0
 11
3.903667
 21
0.201435
 31
0
  0
LINE
  8
0
 10
3.903667
 20
0.201435
 30
0
 11
3.930231
 21
0.216802
 31
0
  0
LINE
  8
0
 10
3.930231
 20
0.216802
 30
0
 11
3.956716
 21
0.214394
 31
0
  0
LINE
  8
0
 10
3.956716
 20
0.214394
 30
0
 11
3.980073
 21
0.194489
 31
0
  0
LINE
  8
0
 10
3.980073
 20
0.194489
 30
0
 11
3.988408
 21
0.186154
 31
0
  0
LINE
  8
0
 10
3.988408
 20
0.186154
 30
0
 11
3.992576
 21
0.181986
 31
0
  0
LINE
  8
0
 10
3.992576
 20
0.181986
 30
0
 11
4.000911
 21
0.173651
 31
0
  0
LINE
  8
0
 10
4.000911
 20
0.173651
 30
0
 11
4.002795
 21
0.142028
 31
0
  0
LINE
  8
0
 10
4.002795
 20
0.142028
 30
0
 11
3.997751
 21
0.123532
 31
0
  0
LINE
  8
0
 10
3.997751
 20
0.123532
 30
0
 11
3.980073
 21
0.097244
 31
0
  0
LINE
  8
0
 10
3.980073
 20
0.097244
 30
0
 11
3.918672
 21
0.054506
 31
0
  0
LINE
  8
0
 10
3.918672
 20
0.054506
 30
0
 11
3.886480
 21
0.034911
 31
0
  0
LINE
  8
0
 10
3.886480
 20
0.034911
 30
0
 11
3.820315
 21
0.000000
 31
0
  0
LINE
  8
0
 10
3.820315
 20
0.000000
 30
0
 11
3.820315
 21
-0.013892
 31
0
  0
LINE
  8
0
 10
3.820315
 20
-0.013892
 30
0
 11
3.820315
 21
0.000000
 31
0
  0
LINE
  8
0
 10
3.820315
 20
0.000000
 30
0
 11
3.820315
 21
-0.013892
 31
0
  0
LINE
  8
0
 10
3.820315
 20
-0.013892
 30
0
 11
5.667958
 21
-0.013892
 31
0
  0
LINE
  8
0
 10
5.667958
 20
-0.013892
 30
0
 11
3.820315
 21
-0.013892
 31
0
  0
LINE
  8
0
 10
3.820315
 20
-0.013892
 30
0
 11
5.667958
 21
-0.013892
 31
0
  0
LINE
  8
0
 10
5.667958
 20
-0.013892
 30
0
 11
5.667958
 21
1.981007
 31
0
  0
LINE
  8
0
 10
5.667958
 20
1.981007
 30
0
 11
5.667958
 21
2.978456
 31
0
  0
LINE
  8
0
 10
5.667958
 20
2.978456
 30
0
 11
5.667958
 21
4.973355
 31
0
  0
LINE
  8
0
 10
5.667958
 20
4.973355
 30
0
 11
3.406331
 21
4.973355
 31
0
  0
LINE
  8
0
 10
3.406331
 20
4.973355
 30
0
 11
2.275518
 21
4.973355
 31
0
  0
LINE
  8
0
 10
2.275518
 20
4.973355
 30
0
 11
0.013892
 21
4.973355
 31
0
  0
LINE
  8
0
 10
0.013892
 20
4.973355
 30
0
 11
0.013892
 21
2.978456
 31
0
  0
LINE
  8
0
 10
0.013892
 20
2.978456
 30
0
 11
0.013892
 21
1.981007
 31
0
  0
LINE
  8
0
 10
0.013892
 20
1.981007
 30
0
 11
0.013892
 21
-0.013892
 31
0
  0
LINE
  8
0
 10
1.805967
 20
-0.013892
 30
0
 11
2.264405
 21
-0.013892
 31
0
  0
LINE
  8
0
 10
2.264405
 20
-0.013892
 30
0
 11
1.805967
 21
-0.013892
 31
0
  0
LINE
  8
0
 10
1.805967
 20
-0.013892
 30
0
 11
2.264405
 21
-0.013892
 31
0
  0
LINE
  8
0
 10
2.264405
 20
-0.013892
 30
0
 11
2.264405
 21
0.013892
 31
0
  0
LINE
  8
0
 10
2.264405
 20
0.013892
 30
0
 11
2.264405
 21
-0.013892
 31
0
  0
LINE
  8
0
 10
2.264405
 20
-0.013892
 30
0
 11
2.264405
 21
0.013892
 31
0
  0
LINE
  8
0
 10
2.264405
 20
0.013892
 30
0
 11
2.241223
 21
0.024790
 31
0
  0
LINE
  8
0
 10
2.241223
 20
0.024790
 30
0
 11
2.230097
 21
0.034326
 31
0
  0
LINE
  8
0
 10
2.230097
 20
0.034326
 30
0
 11
2.215782
 21
0.055568
 31
0
  0
LINE
  8
0
 10
2.215782
 20
0.055568
 30
0
 11
2.179250
 21
0.054649
 31
0
  0
LINE
  8
0
 10
2.179250
 20
0.054649
 30
0
 11
2.160051
 21
0.057603
 31
0
  0
LINE
  8
0
 10
2.160051
 20
0.057603
 30
0
 11
2.125484
 21
0.069460
 31
0
  0
LINE
  8
0
 10
2.125484
 20
0.069460
 30
0
 11
2.116953
 21
0.077106
 31
0
  0
LINE
  8
0
 10
2.116953
 20
0.077106
 30
0
 11
2.114609
 21
0.086484
 31
0
  0
LINE
  8
0
 10
2.114609
 20
0.086484
 30
0
 11
2.118538
 21
0.097244
 31
0
  0
LINE
  8
0
 10
2.118538
 20
0.097244
 30
0
 11
2.164000
 21
0.182169
 31
0
  0
LINE
  8
0
 10
2.164000
 20
0.182169
 30
0
 11
2.190808
 21
0.223087
 31
0
  0
LINE
  8
0
 10
2.190808
 20
0.223087
 30
0
 11
2.250513
 21
0.298679
 31
0
  0
LINE
  8
0
 10
2.250513
 20
0.298679
 30
0
 11
2.267716
 21
0.313811
 31
0
  0
LINE
  8
0
 10
2.267716
 20
0.313811
 30
0
 11
2.283781
 21
0.317828
 31
0
  0
LINE
  8
0
 10
2.283781
 20
0.317828
 30
0
 11
2.306081
 21
0.312571
 31
0
  0
LINE
  8
0
 10
2.306081
 20
0.312571
 30
0
 11
2.337549
 21
0.300232
 31
0
  0
LINE
  8
0
 10
2.337549
 20
0.300232
 30
0
 11
2.355664
 21
0.297213
 31
0
  0
LINE
  8
0
 10
2.355664
 20
0.297213
 30
0
 11
2.389433
 21
0.298679
 31
0
  0
LINE
  8
0
 10
2.389433
 20
0.298679
 30
0
 11
2.500570
 21
0.287566
 31
0
  0
LINE
  8
0
 10
2.500570
 20
0.287566
 30
0
 11
2.556138
 21
0.282009
 31
0
  0
LINE
  8
0
 10
2.556138
 20
0.282009
 30
0
 11
2.667274
 21
0.270895
 31
0
  0
LINE
  8
0
 10
2.667274
 20
0.270895
 30
0
 11
2.737598
 21
0.253463
 31
0
  0
LINE
  8
0
 10
2.737598
 20
0.253463
 30
0
 11
2.775708
 21
0.250532
 31
0
  0
LINE
  8
0
 10
2.775708
 20
0.250532
 30
0
 11
2.847871
 21
0.257003
 31
0
  0
LINE
  8
0
 10
2.847871
 20
0.257003
 30
0
 11
2.913723
 21
0.267849
 31
0
  0
LINE
  8
0
 10
2.913723
 20
0.267849
 30
0
 11
2.948049
 21
0.269279
 31
0
  0
LINE
  8
0
 10
2.948049
 20
0.269279
 30
0
 11
3.014576
 21
0.263949
 31
0
  0
LINE
  8
0
 10
3.014576
 20
0.263949
 30
0
 11
3.036803
 21
0.266727
 31
0
  0
LINE
  8
0
 10
3.036803
 20
0.266727
 30
0
 11
3.047916
 21
0.268117
 31
0
  0
LINE
  8
0
 10
3.047916
 20
0.268117
 30
0
 11
3.070144
 21
0.270895
 31
0
  0
LINE
  8
0
 10
3.070144
 20
0.270895
 30
0
 11
3.159053
 21
0.282009
 31
0
  0
LINE
  8
0
 10
3.159053
 20
0.282009
 30
0
 11
3.203507
 21
0.287566
 31
0
  0
LINE
  8
0
 10
3.203507
 20
0.287566
 30
0
 11
3.292417
 21
0.298679
 31
0
  0
LINE
  8
0
 10
3.292417
 20
0.298679
 30
0
 11
3.375190
 21
0.313501
 31
0
  0
LINE
  8
0
 10
3.375190
 20
0.313501
 30
0
 11
3.417032
 21
0.319079
 31
0
  0
LINE
  8
0
 10
3.417032
 20
0.319079
 30
0
 11
3.500797
 21
0.326463
 31
0
  0
LINE
  8
0
 10
3.500797
 20
0.326463
 30
0
 11
3.535460
 21
0.285880
 31
0
  0
LINE
  8
0
 10
3.535460
 20
0.285880
 30
0
 11
3.552165
 21
0.264999
 31
0
  0
LINE
  8
0
 10
3.552165
 20
0.264999
 30
0
 11
3.584150
 21
0.222273
 31
0
  0
LINE
  8
0
 10
3.584150
 20
0.222273
 30
0
 11
3.584914
 21
0.187137
 31
0
  0
LINE
  8
0
 10
3.584914
 20
0.187137
 30
0
 11
3.591464
 21
0.167488
 31
0
  0
LINE
  8
0
 10
3.591464
 20
0.167488
 30
0
 11
3.611934
 21
0.138921
 31
0
  0
LINE
  8
0
 10
3.611934
 20
0.138921
 30
0
 11
3.595263
 21
0.133364
 31
0
  0
LINE
  8
0
 10
3.595263
 20
0.133364
 30
0
 11
3.586928
 21
0.130585
 31
0
  0
LINE
  8
0
 10
3.586928
 20
0.130585
 30
0
 11
3.570258
 21
0.125028
 31
0
  0
LINE
  8
0
 10
3.570258
 20
0.125028
 30
0
 11
3.520246
 21
0.133364
 31
0
  0
LINE
  8
0
 10
3.520246
 20
0.133364
 30
0
 11
3.495241
 21
0.137531
 31
0
  0
LINE
  8
0
 10
3.495241
 20
0.137531
 30
0
 11
3.445229
 21
0.145867
 31
0
  0
LINE
  8
0
 10
3.445229
 20
0.145867
 30
0
 11
3.395800
 21
0.153966
 31
0
  0
LINE
  8
0
 10
3.395800
 20
0.153966
 30
0
 11
3.370223
 21
0.155387
 31
0
  0
LINE
  8
0
 10
3.370223
 20
0.155387
 30
0
 11
3.320201
 21
0.152813
 31
0
  0
LINE
  8
0
 10
3.320201
 20
0.152813
 30
0
 11
3.316659
 21
0.136287
 31
0
  0
LINE
  8
0
 10
3.316659
 20
0.136287
 30
0
 11
3.315264
 21
0.127917
 31
0
  0
LINE
  8
0
 10
3.315264
 20
0.127917
 30
0
 11
3.313255
 21
0.111136
 31
0
  0
LINE
  8
0
 10
3.313255
 20
0.111136
 30
0
 11
3.324468
 21
0.072667
 31
0
  0
LINE
  8
0
 10
3.324468
 20
0.072667
 30
0
 11
3.337625
 21
0.052931
 31
0
  0
LINE
  8
0
 10
3.337625
 20
0.052931
 30
0
 11
3.368823
 21
0.027784
 31
0
  0
LINE
  8
0
 10
3.368823
 20
0.027784
 30
0
 11
3.417043
 21
0.022373
 31
0
  0
LINE
  8
0
 10
3.417043
 20
0.022373
 30
0
 11
3.441332
 21
0.016658
 31
0
  0
LINE
  8
0
 10
3.441332
 20
0.016658
 30
0
 11
3.486905
 21
0.000000
 31
0
  0
LINE
  8
0
 10
3.486905
 20
0.000000
 30
0
 11
3.486905
 21
-0.013892
 31
0
  0
LINE
  8
0
 10
3.486905
 20
-0.013892
 30
0
 11
3.486905
 21
0.000000
 31
0
  0
LINE
  8
0
 10
3.486905
 20
0.000000
 30
0
 11
3.486905
 21
-0.013892
 31
0
  0
LINE
  8
0
 10
3.486905
 20
-0.013892
 30
0
 11
3.820315
 21
-0.013892
 31
0
  0
LINE
  8
0
 10
3.820315
 20
-0.013892
 30
0
 11
3.486905
 21
-0.013892
 31
0
  0
LINE
  8
0
 10
3.486905
 20
-0.013892
 30
0
 11
3.820315
 21
-0.013892
 31
0
  0
LINE
  8
0
 10
3.820315
 20
-0.013892
 30
0
 11
3.820315
 21
0.000000
 31
0
  0
LINE
  8
0
 10
3.820315
 20
0.000000
 30
0
 11
3.820315
 21
-0.013892
 31
0
  0
LINE
  8
0
 10
3.820315
 20
-0.013892
 30
0
 11
3.820315
 21
0.000000
 31
0
  0
LINE
  8
0
 10
3.820315
 20
0.000000
 30
0
 11
3.886480
 21
0.034911
 31
0
  0
LINE
  8
0
 10
3.886480
 20
0.034911
 30
0
 11
3.918672
 21
0.054506
 31
0
  0
LINE
  8
0
 10
3.918672
 20
0.054506
 30
0
 11
3.980073
 21
0.097244
 31
0
  0
LINE
  8
0
 10
3.980073
 20
0.097244
 30
0
 11
3.997751
 21
0.123532
 31
0
  0
LINE
  8
0
 10
3.997751
 20
0.123532
 30
0
 11
4.002795
 21
0.142028
 31
0
  0
LINE
  8
0
 10
4.002795
 20
0.142028
 30
0
 11
4.000911
 21
0.173651
 31
0
  0
LINE
  8
0
 10
4.000911
 20
0.173651
 30
0
 11
3.992576
 21
0.181986
 31
0
  0
LINE
  8
0
 10
3.992576
 20
0.181986
 30
0
 11
3.988408
 21
0.186154
 31
0
  0
LINE
  8
0
 10
3.988408
 20
0.186154
 30
0
 11
3.980073
 21
0.194489
 31
0
  0
LINE
  8
0
 10
3.980073
 20
0.194489
 30
0
 11
3.956716
 21
0.214394
 31
0
  0
LINE
  8
0
 10
3.956716
 20
0.214394
 30
0
 11
3.930231
 21
0.216802
 31
0
  0
LINE
  8
0
 10
3.930231
 20
0.216802
 30
0
 11
3.903667
 21
0.201435
 31
0
  0
LINE
  8
0
 10
3.903667
 20
0.201435
 30
0
 11
3.855758
 21
0.167217
 31
0
  0
LINE
  8
0
 10
3.855758
 20
0.167217
 30
0
 11
3.823537
 21
0.155939
 31
0
  0
LINE
  8
0
 10
3.823537
 20
0.155939
 30
0
 11
3.764746
 21
0.152813
 31
0
  0
LINE
  8
0
 10
3.764746
 20
0.152813
 30
0
 11
3.740255
 21
0.211311
 31
0
  0
LINE
  8
0
 10
3.740255
 20
0.211311
 30
0
 11
3.724629
 21
0.239723
 31
0
  0
LINE
  8
0
 10
3.724629
 20
0.239723
 30
0
 11
3.688340
 21
0.291733
 31
0
  0
LINE
  8
0
 10
3.688340
 20
0.291733
 30
0
 11
3.666846
 21
0.318549
 31
0
  0
LINE
  8
0
 10
3.666846
 20
0.318549
 30
0
 11
3.661155
 21
0.341310
 31
0
  0
LINE
  8
0
 10
3.661155
 20
0.341310
 30
0
 11
3.667502
 21
0.375085
 31
0
  0
LINE
  8
0
 10
3.667502
 20
0.375085
 30
0
 11
3.694872
 21
0.369556
 31
0
  0
LINE
  8
0
 10
3.694872
 20
0.369556
 30
0
 11
3.711229
 21
0.371192
 31
0
  0
LINE
  8
0
 10
3.711229
 20
0.371192
 30
0
 11
3.736962
 21
0.382031
 31
0
  0
LINE
  8
0
 10
3.736962
 20
0.382031
 30
0
 11
3.772449
 21
0.400009
 31
0
  0
LINE
  8
0
 10
3.772449
 20
0.400009
 30
0
 11
3.794469
 21
0.404727
 31
0
  0
LINE
  8
0
 10
3.794469
 20
0.404727
 30
0
 11
3.834207
 21
0.402870
 31
0
  0
LINE
  8
0
 10
3.834207
 20
0.402870
 30
0
 11
3.913360
 21
0.447445
 31
0
  0
LINE
  8
0
 10
3.913360
 20
0.447445
 30
0
 11
3.955936
 21
0.465895
 31
0
  0
LINE
  8
0
 10
3.955936
 20
0.465895
 30
0
 11
4.042587
 21
0.493168
 31
0
  0
LINE
  8
0
 10
4.042587
 20
0.493168
 30
0
 11
4.098156
 21
0.520952
 31
0
  0
LINE
  8
0
 10
4.098156
 20
0.520952
 30
0
 11
4.125940
 21
0.534844
 31
0
  0
LINE
  8
0
 10
4.125940
 20
0.534844
 30
0
 11
4.181508
 21
0.562628
 31
0
  0
LINE
  8
0
 10
4.181508
 20
0.562628
 30
0
 11
4.198905
 21
0.565101
 31
0
  0
LINE
  8
0
 10
4.198905
 20
0.565101
 30
0
 11
4.207783
 21
0.568060
 31
0
  0
LINE
  8
0
 10
4.207783
 20
0.568060
 30
0
 11
4.223184
 21
0.576520
 31
0
  0
LINE
  8
0
 10
4.223184
 20
0.576520
 30
0
 11
4.272940
 21
0.615842
 31
0
  0
LINE
  8
0
 10
4.272940
 20
0.615842
 30
0
 11
4.302251
 21
0.631963
 31
0
  0
LINE
  8
0
 10
4.302251
 20
0.631963
 30
0
 11
4.362105
 21
0.652926
 31
0
  0
LINE
  8
0
 10
4.362105
 20
0.652926
 30
0
 11
4.461260
 21
0.741286
 31
0
  0
LINE
  8
0
 10
4.461260
 20
0.741286
 30
0
 11
4.514660
 21
0.782039
 31
0
  0
LINE
  8
0
 10
4.514660
 20
0.782039
 30
0
 11
4.626054
 21
0.854361
 31
0
  0
LINE
  8
0
 10
4.626054
 20
0.854361
 30
0
 11
4.778866
 21
1.007174
 31
0
  0
LINE
  8
0
 10
4.778866
 20
1.007174
 30
0
 11
4.855273
 21
1.083580
 31
0
  0
LINE
  8
0
 10
4.855273
 20
1.083580
 30
0
 11
5.008085
 21
1.236393
 31
0
  0
LINE
  8
0
 10
5.008085
 20
1.236393
 30
0
 11
5.055238
 21
1.295461
 31
0
  0
LINE
  8
0
 10
5.055238
 20
1.295461
 30
0
 11
5.077555
 21
1.326147
 31
0
  0
LINE
  8
0
 10
5.077555
 20
1.326147
 30
0
 11
5.119222
 21
1.389205
 31
0
  0
LINE
  8
0
 10
5.119222
 20
1.389205
 30
0
 11
5.145233
 21
1.419686
 31
0
  0
LINE
  8
0
 10
5.145233
 20
1.419686
 30
0
 11
5.156659
 21
1.436823
 31
0
  0
LINE
  8
0
 10
5.156659
 20
1.436823
 30
0
 11
5.174790
 21
1.472558
 31
0
  0
LINE
  8
0
 10
5.174790
 20
1.472558
 30
0
 11
5.225410
 21
1.549958
 31
0
  0
LINE
  8
0
 10
5.225410
 20
1.549958
 30
0
 11
5.250419
 21
1.588861
 31
0
  0
LINE
  8
0
 10
5.250419
 20
1.588861
 30
0
 11
5.299818
 21
1.667046
 31
0
  0
LINE
  8
0
 10
5.299818
 20
1.667046
 30
0
 11
5.338716
 21
1.744842
 31
0
  0
LINE
  8
0
 10
5.338716
 20
1.744842
 30
0
 11
5.358165
 21
1.783740
 31
0
  0
LINE
  8
0
 10
5.358165
 20
1.783740
 30
0
 11
5.397063
 21
1.861535
 31
0
  0
LINE
  8
0
 10
5.397063
 20
1.861535
 30
0
 11
5.422004
 21
1.920632
 31
0
  0
LINE
  8
0
 10
5.422004
 20
1.920632
 30
0
 11
5.431891
 21
1.951704
 31
0
  0
LINE
  8
0
 10
5.431891
 20
1.951704
 30
0
 11
5.445685
 21
2.014348
 31
0
  0
LINE
  8
0
 10
5.445685
 20
2.014348
 30
0
 11
5.485054
 21
2.076240
 31
0
  0
LINE
  8
0
 10
5.485054
 20
2.076240
 30
0
 11
5.500906
 21
2.110826
 31
0
  0
LINE
  8
0
 10
5.500906
 20
2.110826
 30
0
 11
5.522091
 21
2.181052
 31
0
  0
LINE
  8
0
 10
5.522091
 20
2.181052
 30
0
 11
5.550336
 21
2.245416
 31
0
  0
LINE
  8
0
 10
5.550336
 20
2.245416
 30
0
 11
5.561637
 21
2.279319
 31
0
  0
LINE
  8
0
 10
5.561637
 20
2.279319
 30
0
 11
5.577659
 21
2.347757
 31
0
  0
LINE
  8
0
 10
5.577659
 20
2.347757
 30
0
 11
5.594330
 21
2.414439
 31
0
  0
LINE
  8
0
 10
5.594330
 20
2.414439
 30
0
 11
5.602665
 21
2.447780
 31
0
  0
LINE
  8
0
 10
5.602665
 20
2.447780
 30
0
 11
5.619336
 21
2.514462
 31
0
  0
LINE
  8
0
 10
5.619336
 20
2.514462
 30
0
 11
5.621159
 21
2.542737
 31
0
  0
LINE
  8
0
 10
5.621159
 20
2.542737
 30
0
 11
5.624035
 21
2.557120
 31
0
  0
LINE
  8
0
 10
5.624035
 20
2.557120
 30
0
 11
5.633228
 21
2.583922
 31
0
  0
LINE
  8
0
 10
5.633228
 20
2.583922
 30
0
 11
5.633314
 21
2.603957
 31
0
  0
LINE
  8
0
 10
5.633314
 20
2.603957
 30
0
 11
5.623971
 21
2.617972
 31
0
  0
LINE
  8
0
 10
5.623971
 20
2.617972
 30
0
 11
5.605443
 21
2.625598
 31
0
  0
LINE
  8
0
 10
5.605443
 20
2.625598
 30
0
 11
5.413799
 21
2.631349
 31
0
  0
LINE
  8
0
 10
5.413799
 20
2.631349
 30
0
 11
5.317565
 21
2.629954
 31
0
  0
LINE
  8
0
 10
5.317565
 20
2.629954
 30
0
 11
5.126168
 21
2.618652
 31
0
  0
LINE
  8
0
 10
5.126168
 20
2.618652
 30
0
 11
5.116075
 21
2.608710
 31
0
  0
LINE
  8
0
 10
5.116075
 20
2.608710
 30
0
 11
5.096930
 21
2.612539
 31
0
  0
LINE
  8
0
 10
5.096930
 20
2.612539
 30
0
 11
5.091437
 21
2.625598
 31
0
  0
LINE
  8
0
 10
5.091437
 20
2.625598
 30
0
 11
5.067369
 21
2.651207
 31
0
  0
LINE
  8
0
 10
5.067369
 20
2.651207
 30
0
 11
5.059764
 21
2.674022
 31
0
  0
LINE
  8
0
 10
5.059764
 20
2.674022
 30
0
 11
5.063653
 21
2.708950
 31
0
  0
LINE
  8
0
 10
5.063653
 20
2.708950
 30
0
 11
5.052540
 21
2.775632
 31
0
  0
LINE
  8
0
 10
5.052540
 20
2.775632
 30
0
 11
5.046983
 21
2.808973
 31
0
  0
LINE
  8
0
 10
5.046983
 20
2.808973
 30
0
 11
5.035869
 21
2.875655
 31
0
  0
LINE
  8
0
 10
5.035869
 20
2.875655
 30
0
 11
5.027534
 21
2.908996
 31
0
  0
LINE
  8
0
 10
5.027534
 20
2.908996
 30
0
 11
5.023366
 21
2.925666
 31
0
  0
LINE
  8
0
 10
5.023366
 20
2.925666
 30
0
 11
5.015031
 21
2.959007
 31
0
  0
LINE
  8
0
 10
5.015031
 20
2.959007
 30
0
 11
4.994111
 21
3.011673
 31
0
  0
LINE
  8
0
 10
4.994111
 20
3.011673
 30
0
 11
4.988192
 21
3.041267
 31
0
  0
LINE
  8
0
 10
4.988192
 20
3.041267
 30
0
 11
4.987247
 21
3.097928
 31
0
  0
LINE
  8
0
 10
4.987247
 20
3.097928
 30
0
 11
4.942298
 21
3.202156
 31
0
  0
LINE
  8
0
 10
4.942298
 20
3.202156
 30
0
 11
4.921419
 21
3.255049
 31
0
  0
LINE
  8
0
 10
4.921419
 20
3.255049
 30
0
 11
4.883057
 21
3.361877
 31
0
  0
LINE
  8
0
 10
4.883057
 20
3.361877
 30
0
 11
4.844159
 21
3.439672
 31
0
  0
LINE
  8
0
 10
4.844159
 20
3.439672
 30
0
 11
4.824710
 21
3.478570
 31
0
  0
LINE
  8
0
 10
4.824710
 20
3.478570
 30
0
 11
4.785812
 21
3.556366
 31
0
  0
LINE
  8
0
 10
4.785812
 20
3.556366
 30
0
 11
4.729746
 21
3.644961
 31
0
  0
LINE
  8
0
 10
4.729746
 20
3.644961
 30
0
 11
4.701960
 21
3.689419
 31
0
  0
LINE
  8
0
 10
4.701960
 20
3.689419
 30
0
 11
4.646892
 21
3.778638
 31
0
  0
LINE
  8
0
 10
4.646892
 20
3.778638
 30
0
 11
4.612618
 21
3.816411
 31
0
  0
LINE
  8
0
 10
4.612618
 20
3.816411
 30
0
 11
4.598860
 21
3.840869
 31
0
  0
LINE
  8
0
 10
4.598860
 20
3.840869
 30
0
 11
4.584378
 21
3.889775
 31
0
  0
LINE
  8
0
 10
4.584378
 20
3.889775
 30
0
 11
4.524819
 21
3.950487
 31
0
  0
LINE
  8
0
 10
4.524819
 20
3.950487
 30
0
 11
4.497830
 21
3.984579
 31
0
  0
LINE
  8
0
 10
4.497830
 20
3.984579
 30
0
 11
4.452403
 21
4.056480
 31
0
  0
LINE
  8
0
 10
4.452403
 20
4.056480
 30
0
 11
4.377386
 21
4.131497
 31
0
  0
LINE
  8
0
 10
4.377386
 20
4.131497
 30
0
 11
4.339877
 21
4.169005
 31
0
  0
LINE
  8
0
 10
4.339877
 20
4.169005
 30
0
 11
4.264860
 21
4.244022
 31
0
  0
LINE
  8
0
 10
4.264860
 20
4.244022
 30
0
 11
4.176591
 21
4.311549
 31
0
  0
LINE
  8
0
 10
4.176591
 20
4.311549
 30
0
 11
4.132128
 21
4.344896
 31
0
  0
LINE
  8
0
 10
4.132128
 20
4.344896
 30
0
 11
4.042587
 21
4.410727
 31
0
  0
LINE
  8
0
 10
4.042587
 20
4.410727
 30
0
 11
4.034120
 21
4.427330
 31
0
  0
LINE
  8
0
 10
4.034120
 20
4.427330
 30
0
 11
4.019275
 21
4.434753
 31
0
  0
LINE
  8
0
 10
4.019275
 20
4.434753
 30
0
 11
4.000911
 21
4.431565
 31
0
  0
LINE
  8
0
 10
4.000911
 20
4.431565
 30
0
 11
3.953797
 21
4.471389
 31
0
  0
LINE
  8
0
 10
3.953797
 20
4.471389
 30
0
 11
3.928500
 21
4.489659
 31
0
  0
LINE
  8
0
 10
3.928500
 20
4.489659
 30
0
 11
3.875883
 21
4.521863
 31
0
  0
LINE
  8
0
 10
3.875883
 20
4.521863
 30
0
 11
3.809201
 21
4.555204
 31
0
  0
LINE
  8
0
 10
3.809201
 20
4.555204
 30
0
 11
3.775860
 21
4.571875
 31
0
  0
LINE
  8
0
 10
3.775860
 20
4.571875
 30
0
 11
3.709178
 21
4.605216
 31
0
  0
LINE
  8
0
 10
3.709178
 20
4.605216
 30
0
 11
3.620469
 21
4.633632
 31
0
  0
LINE
  8
0
 10
3.620469
 20
4.633632
 30
0
 11
3.576010
 21
4.647525
 31
0
  0
LINE
  8
0
 10
3.576010
 20
4.647525
 30
0
 11
3.486905
 21
4.674676
 31
0
  0
LINE
  8
0
 10
3.486905
 20
4.674676
 30
0
 11
3.371498
 21
4.705068
 31
0
  0
LINE
  8
0
 10
3.371498
 20
4.705068
 30
0
 11
3.312900
 21
4.717625
 31
0
  0
LINE
  8
0
 10
3.312900
 20
4.717625
 30
0
 11
3.195172
 21
4.737190
 31
0
  0
LINE
  8
0
 10
3.195172
 20
4.737190
 30
0
 11
3.006240
 21
4.737190
 31
0
  0
LINE
  8
0
 10
3.006240
 20
4.737190
 30
0
 11
2.911774
 21
4.737190
 31
0
  0
LINE
  8
0
 10
2.911774
 20
4.737190
 30
0
 11
2.722842
 21
4.737190
 31
0
  0
LINE
  8
0
 10
2.722842
 20
4.737190
 30
0
 11
2.722842
 21
4.731633
 31
0
  0
LINE
  8
0
 10
2.722842
 20
4.731633
 30
0
 11
2.722842
 21
4.728855
 31
0
  0
LINE
  8
0
 10
2.722842
 20
4.728855
 30
0
 11
2.722842
 21
4.723298
 31
0
  0
LINE
  8
0
 10
2.722842
 20
4.723298
 30
0
 11
2.661717
 21
4.723298
 31
0
  0
LINE
  8
0
 10
2.661717
 20
4.723298
 30
0
 11
2.631155
 21
4.723298
 31
0
  0
LINE
  8
0
 10
2.631155
 20
4.723298
 30
0
 11
2.570030
 21
4.723298
 31
0
  0
LINE
  8
0
 10
2.570030
 20
4.723298
 30
0
 11
2.500267
 21
4.699964
 31
0
  0
LINE
  8
0
 10
2.500267
 20
4.699964
 30
0
 11
2.462875
 21
4.692773
 31
0
  0
LINE
  8
0
 10
2.462875
 20
4.692773
 30
0
 11
2.389433
 21
4.688568
 31
0
  0
LINE
  8
0
 10
2.389433
 20
4.688568
 30
0
 11
2.283964
 21
4.665824
 31
0
  0
LINE
  8
0
 10
2.283964
 20
4.665824
 30
0
 11
2.231171
 21
4.654709
 31
0
  0
LINE
  8
0
 10
2.231171
 20
4.654709
 30
0
 11
2.125484
 21
4.633000
 31
0
  0
LINE
  8
0
 10
2.125484
 20
4.633000
 30
0
 11
2.058802
 21
4.610772
 31
0
  0
LINE
  8
0
 10
2.058802
 20
4.610772
 30
0
 11
2.025461
 21
4.599659
 31
0
  0
LINE
  8
0
 10
2.025461
 20
4.599659
 30
0
 11
1.958779
 21
4.577432
 31
0
  0
LINE
  8
0
 10
1.958779
 20
4.577432
 30
0
 11
1.887417
 21
4.547469
 31
0
  0
LINE
  8
0
 10
1.887417
 20
4.547469
 30
0
 11
1.851231
 21
4.533551
 31
0
  0
LINE
  8
0
 10
1.851231
 20
4.533551
 30
0
 11
1.778183
 21
4.507971
 31
0
  0
LINE
  8
0
 10
1.778183
 20
4.507971
 30
0
 11
1.722615
 21
4.480187
 31
0
  0
LINE
  8
0
 10
1.722615
 20
4.480187
 30
0
 11
1.694830
 21
4.466295
 31
0
  0
LINE
  8
0
 10
1.694830
 20
4.466295
 30
0
 11
1.639262
 21
4.438511
 31
0
  0
LINE
  8
0
 10
1.639262
 20
4.438511
 30
0
 11
1.510894
 21
4.350414
 31
0
  0
LINE
  8
0
 10
1.510894
 20
4.350414
 30
0
 11
1.446986
 21
4.305956
 31
0
  0
LINE
  8
0
 10
1.446986
 20
4.305956
 30
0
 11
1.319745
 21
4.216238
 31
0
  0
LINE
  8
0
 10
1.319745
 20
4.216238
 30
0
 11
1.216944
 21
4.113437
 31
0
  0
LINE
  8
0
 10
1.216944
 20
4.113437
 30
0
 11
1.165543
 21
4.062036
 31
0
  0
LINE
  8
0
 10
1.165543
 20
4.062036
 30
0
 11
1.062742
 21
3.959235
 31
0
  0
LINE
  8
0
 10
1.062742
 20
3.959235
 30
0
 11
1.029089
 21
3.909433
 31
0
  0
LINE
  8
0
 10
1.029089
 20
3.909433
 30
0
 11
1.012417
 21
3.884426
 31
0
  0
LINE
  8
0
 10
1.012417
 20
3.884426
 30
0
 11
0.979390
 21
3.834207
 31
0
  0
LINE
  8
0
 10
0.979390
 20
3.834207
 30
0
 11
0.952845
 21
3.804189
 31
0
  0
LINE
  8
0
 10
0.952845
 20
3.804189
 30
0
 11
0.941321
 21
3.786902
 31
0
  0
LINE
  8
0
 10
0.941321
 20
3.786902
 30
0
 11
0.923822
 21
3.750854
 31
0
  0
LINE
  8
0
 10
0.923822
 20
3.750854
 30
0
 11
0.863111
 21
3.684957
 31
0
  0
LINE
  8
0
 10
0.863111
 20
3.684957
 30
0
 11
0.838636
 21
3.642126
 31
0
  0
LINE
  8
0
 10
0.838636
 20
3.642126
 30
0
 11
0.812685
 21
3.556366
 31
0
  0
LINE
  8
0
 10
0.812685
 20
3.556366
 30
0
 11
0.785157
 21
3.485976
 31
0
  0
LINE
  8
0
 10
0.785157
 20
3.485976
 30
0
 11
0.773920
 21
3.449458
 31
0
  0
LINE
  8
0
 10
0.773920
 20
3.449458
 30
0
 11
0.757117
 21
3.375769
 31
0
  0
LINE
  8
0
 10
0.757117
 20
3.375769
 30
0
 11
0.735763
 21
3.322620
 31
0
  0
LINE
  8
0
 10
0.735763
 20
3.322620
 30
0
 11
0.728556
 21
3.293794
 31
0
  0
LINE
  8
0
 10
0.728556
 20
3.293794
 30
0
 11
0.722387
 21
3.236848
 31
0
  0
LINE
  8
0
 10
0.722387
 20
3.236848
 30
0
 11
0.666656
 21
3.200981
 31
0
  0
LINE
  8
0
 10
0.666656
 20
3.200981
 30
0
 11
0.638870
 21
3.182921
 31
0
  0
LINE
  8
0
 10
0.638870
 20
3.182921
 30
0
 11
0.583466
 21
3.146550
 31
0
  0
LINE
  8
0
 10
0.583466
 20
3.146550
 30
0
 11
0.552986
 21
3.120538
 31
0
  0
LINE
  8
0
 10
0.552986
 20
3.120538
 30
0
 11
0.535848
 21
3.109113
 31
0
  0
LINE
  8
0
 10
0.535848
 20
3.109113
 30
0
 11
0.500114
 21
3.090982
 31
0
  0
LINE
  8
0
 10
0.500114
 20
3.090982
 30
0
 11
0.462341
 21
3.056708
 31
0
  0
LINE
  8
0
 10
0.462341
 20
3.056708
 30
0
 11
0.437883
 21
3.042950
 31
0
  0
LINE
  8
0
 10
0.437883
 20
3.042950
 30
0
 11
0.388977
 21
3.028468
 31
0
  0
LINE
  8
0
 10
0.388977
 20
3.028468
 30
0
 11
0.344549
 21
2.992316
 31
0
  0
LINE
  8
0
 10
0.344549
 20
2.992316
 30
0
 11
0.322322
 21
2.974256
 31
0
  0
LINE
  8
0
 10
0.322322
 20
2.974256
 30
0
 11
0.277841
 21
2.938169
 31
0
  0
LINE
  8
0
 10
0.277841
 20
2.938169
 30
0
 11
0.259871
 21
2.906715
 31
0
  0
LINE
  8
0
 10
0.259871
 20
2.906715
 30
0
 11
0.257947
 21
2.881704
 31
0
  0
LINE
  8
0
 10
0.257947
 20
2.881704
 30
0
 11
0.270895
 21
2.847871
 31
0
  0
LINE
  8
0
 10
0.270895
 20
2.847871
 30
0
 11
0.342664
 21
2.743439
 31
0
  0
LINE
  8
0
 10
0.342664
 20
2.743439
 30
0
 11
0.381832
 21
2.693081
 31
0
  0
LINE
  8
0
 10
0.381832
 20
2.693081
 30
0
 11
0.465384
 21
2.597814
 31
0
  0
LINE
  8
0
 10
0.465384
 20
2.597814
 30
0
 11
0.523730
 21
2.539467
 31
0
  0
LINE
  8
0
 10
0.523730
 20
2.539467
 30
0
 11
0.552904
 21
2.510294
 31
0
  0
LINE
  8
0
 10
0.552904
 20
2.510294
 30
0
 11
0.611250
 21
2.451947
 31
0
  0
LINE
  8
0
 10
0.611250
 20
2.451947
 30
0
 11
0.611250
 21
2.401936
 31
0
  0
LINE
  8
0
 10
0.611250
 20
2.401936
 30
0
 11
0.611250
 21
2.376930
 31
0
  0
LINE
  8
0
 10
0.611250
 20
2.376930
 30
0
 11
0.611250
 21
2.326919
 31
0
  0
LINE
  8
0
 10
0.611250
 20
2.326919
 30
0
 11
0.614029
 21
2.307470
 31
0
  0
LINE
  8
0
 10
0.614029
 20
2.307470
 30
0
 11
0.615418
 21
2.297746
 31
0
  0
LINE
  8
0
 10
0.615418
 20
2.297746
 30
0
 11
0.618196
 21
2.278297
 31
0
  0
LINE
  8
0
 10
0.618196
 20
2.278297
 30
0
 11
0.640424
 21
2.122706
 31
0
  0
LINE
  8
0
 10
0.640424
 20
2.122706
 30
0
 11
0.651537
 21
2.044910
 31
0
  0
LINE
  8
0
 10
0.651537
 20
2.044910
 30
0
 11
0.673765
 21
1.889319
 31
0
  0
LINE
  8
0
 10
0.673765
 20
1.889319
 30
0
 11
0.723155
 21
1.692366
 31
0
  0
LINE
  8
0
 10
0.723155
 20
1.692366
 30
0
 11
0.752451
 21
1.594714
 31
0
  0
LINE
  8
0
 10
0.752451
 20
1.594714
 30
0
 11
0.819631
 21
1.403097
 31
0
  0
LINE
  8
0
 10
0.819631
 20
1.403097
 30
0
 11
0.891067
 21
1.302461
 31
0
  0
LINE
  8
0
 10
0.891067
 20
1.302461
 30
0
 11
0.923360
 21
1.249109
 31
0
  0
LINE
  8
0
 10
0.923360
 20
1.249109
 30
0
 11
0.979390
 21
1.139148
 31
0
  0
LINE
  8
0
 10
0.979390
 20
1.139148
 30
0
 11
0.995993
 21
1.130680
 31
0
  0
LINE
  8
0
 10
0.995993
 20
1.130680
 30
0
 11
1.003416
 21
1.115836
 31
0
  0
LINE
  8
0
 10
1.003416
 20
1.115836
 30
0
 11
1.000228
 21
1.097472
 31
0
  0
LINE
  8
0
 10
1.000228
 20
1.097472
 30
0
 11
1.054418
 21
1.048664
 31
0
  0
LINE
  8
0
 10
1.054418
 20
1.048664
 30
0
 11
1.078870
 21
1.019897
 31
0
  0
LINE
  8
0
 10
1.078870
 20
1.019897
 30
0
 11
1.118310
 21
0.958552
 31
0
  0
LINE
  8
0
 10
1.118310
 20
0.958552
 30
0
 11
1.171100
 21
0.905762
 31
0
  0
LINE
  8
0
 10
1.171100
 20
0.905762
 30
0
 11
1.197495
 21
0.879367
 31
0
  0
LINE
  8
0
 10
1.197495
 20
0.879367
 30
0
 11
1.250285
 21
0.826577
 31
0
  0
LINE
  8
0
 10
1.250285
 20
0.826577
 30
0
 11
1.339252
 21
0.759973
 31
0
  0
LINE
  8
0
 10
1.339252
 20
0.759973
 30
0
 11
1.383706
 21
0.726632
 31
0
  0
LINE
  8
0
 10
1.383706
 20
0.726632
 30
0
 11
1.472558
 21
0.659873
 31
0
  0
LINE
  8
0
 10
1.472558
 20
0.659873
 30
0
 11
1.539239
 21
0.626532
 31
0
  0
LINE
  8
0
 10
1.539239
 20
0.626532
 30
0
 11
1.572580
 21
0.609861
 31
0
  0
LINE
  8
0
 10
1.572580
 20
0.609861
 30
0
 11
1.639262
 21
0.576520
 31
0
  0
LINE
  8
0
 10
1.639262
 20
0.576520
 30
0
 11
1.661490
 21
0.559850
 31
0
  0
LINE
  8
0
 10
1.661490
 20
0.559850
 30
0
 11
1.672603
 21
0.551515
 31
0
  0
LINE
  8
0
 10
1.672603
 20
0.551515
 30
0
 11
1.694830
 21
0.534844
 31
0
  0
LINE
  8
0
 10
1.694830
 20
0.534844
 30
0
 11
1.772626
 21
0.495946
 31
0
  0
LINE
  8
0
 10
1.772626
 20
0.495946
 30
0
 11
1.811524
 21
0.476497
 31
0
  0
LINE
  8
0
 10
1.811524
 20
0.476497
 30
0
 11
1.889319
 21
0.437600
 31
0
  0
LINE
  8
0
 10
1.889319
 20
0.437600
 30
0
 11
1.967967
 21
0.400351
 31
0
  0
LINE
  8
0
 10
1.967967
 20
0.400351
 30
0
 11
2.011536
 21
0.387280
 31
0
  0
LINE
  8
0
 10
2.011536
 20
0.387280
 30
0
 11
2.097700
 21
0.375085
 31
0
  0
LINE
  8
0
 10
2.097700
 20
0.375085
 30
0
 11
2.114817
 21
0.360636
 31
0
  0
LINE
  8
0
 10
2.114817
 20
0.360636
 30
0
 11
2.117679
 21
0.337736
 31
0
  0
LINE
  8
0
 10
2.117679
 20
0.337736
 30
0
 11
2.104646
 21
0.319517
 31
0
  0
LINE
  8
0
 10
2.104646
 20
0.319517
 30
0
 11
2.088043
 21
0.311049
 31
0
  0
LINE
  8
0
 10
2.088043
 20
0.311049
 30
0
 11
2.080620
 21
0.296205
 31
0
  0
LINE
  8
0
 10
2.080620
 20
0.296205
 30
0
 11
2.083808
 21
0.277841
 31
0
  0
LINE
  8
0
 10
2.083808
 20
0.277841
 30
0
 11
2.056103
 21
0.249978
 31
0
  0
LINE
  8
0
 10
2.056103
 20
0.249978
 30
0
 11
2.042211
 21
0.236086
 31
0
  0
LINE
  8
0
 10
2.042211
 20
0.236086
 30
0
 11
2.014348
 21
0.208381
 31
0
  0
LINE
  8
0
 10
2.014348
 20
0.208381
 30
0
 11
1.931641
 21
0.271914
 31
0
  0
LINE
  8
0
 10
1.931641
 20
0.271914
 30
0
 11
1.892320
 21
0.307023
 31
0
  0
LINE
  8
0
 10
1.892320
 20
0.307023
 30
0
 11
1.819859
 21
0.382031
 31
0
  0
LINE
  8
0
 10
1.819859
 20
0.382031
 30
0
 11
1.803078
 21
0.380022
 31
0
  0
LINE
  8
0
 10
1.803078
 20
0.380022
 30
0
 11
1.794708
 21
0.378627
 31
0
  0
LINE
  8
0
 10
1.794708
 20
0.378627
 30
0
 11
1.778183
 21
0.375085
 31
0
  0
LINE
  8
0
 10
1.778183
 20
0.375085
 30
0
 11
1.762477
 21
0.345155
 31
0
  0
LINE
  8
0
 10
1.762477
 20
0.345155
 30
0
 11
1.759141
 21
0.325139
 31
0
  0
LINE
  8
0
 10
1.759141
 20
0.325139
 30
0
 11
1.764291
 21
0.291733
 31
0
  0
LINE
  8
0
 10
1.764291
 20
0.291733
 30
0
 11
1.788804
 21
0.268296
 31
0
  0
LINE
  8
0
 10
1.788804
 20
0.268296
 30
0
 11
1.799282
 21
0.253328
 31
0
  0
LINE
  8
0
 10
1.799282
 20
0.253328
 30
0
 11
1.812913
 21
0.222273
 31
0
  0
LINE
  8
0
 10
1.812913
 20
0.222273
 30
0
 11
1.829516
 21
0.213805
 31
0
  0
LINE
  8
0
 10
1.829516
 20
0.213805
 30
0
 11
1.836939
 21
0.198960
 31
0
  0
LINE
  8
0
 10
1.836939
 20
0.198960
 30
0
 11
1.833751
 21
0.180597
 31
0
  0
LINE
  8
0
 10
1.833751
 20
0.180597
 30
0
 11
1.846529
 21
0.168534
 31
0
  0
LINE
  8
0
 10
1.846529
 20
0.168534
 30
0
 11
1.857967
 21
0.164721
 31
0
  0
LINE
  8
0
 10
1.857967
 20
0.164721
 30
0
 11
1.875427
 21
0.166705
 31
0
  0
LINE
  8
0
 10
1.875427
 20
0.166705
 30
0
 11
1.875427
 21
0.150034
 31
0
  0
LINE
  8
0
 10
1.875427
 20
0.150034
 30
0
 11
1.875427
 21
0.141699
 31
0
  0
LINE
  8
0
 10
1.875427
 20
0.141699
 30
0
 11
1.875427
 21
0.125028
 31
0
  0
LINE
  8
0
 10
1.875427
 20
0.125028
 30
0
 11
1.761148
 21
0.162842
 31
0
  0
LINE
  8
0
 10
1.761148
 20
0.162842
 30
0
 11
1.704180
 21
0.182295
 31
0
  0
LINE
  8
0
 10
1.704180
 20
0.182295
 30
0
 11
1.590640
 21
0.222273
 31
0
  0
LINE
  8
0
 10
1.590640
 20
0.222273
 30
0
 11
1.568105
 21
0.239448
 31
0
  0
LINE
  8
0
 10
1.568105
 20
0.239448
 30
0
 11
1.548588
 21
0.243352
 31
0
  0
LINE
  8
0
 10
1.548588
 20
0.243352
 30
0
 11
1.521180
 21
0.236165
 31
0
  0
LINE
  8
0
 10
1.521180
 20
0.236165
 30
0
 11
1.507288
 21
0.222273
 31
0
  0
LINE
  8
0
 10
1.507288
 20
0.222273
 30
0
 11
1.500342
 21
0.215327
 31
0
  0
LINE
  8
0
 10
1.500342
 20
0.215327
 30
0
 11
1.486450
 21
0.201435
 31
0
  0
LINE
  8
0
 10
1.486450
 20
0.201435
 30
0
 11
1.479210
 21
0.176090
 31
0
  0
LINE
  8
0
 10
1.479210
 20
0.176090
 30
0
 11
1.486289
 21
0.154852
 31
0
  0
LINE
  8
0
 10
1.486289
 20
0.154852
 30
0
 11
1.507288
 21
0.138921
 31
0
  0
LINE
  8
0
 10
1.507288
 20
0.138921
 30
0
 11
1.622356
 21
0.074729
 31
0
  0
LINE
  8
0
 10
1.622356
 20
0.074729
 30
0
 11
1.682737
 21
0.046644
 31
0
  0
LINE
  8
0
 10
1.682737
 20
0.046644
 30
0
 11
1.805967
 21
0.000000
 31
0
  0
LINE
  8
0
 10
1.805967
 20
0.000000
 30
0
 11
1.805967
 21
-0.013892
 31
0
  0
LINE
  8
0
 10
1.805967
 20
-0.013892
 30
0
 11
1.805967
 21
0.000000
 31
0
  0
LINE
  8
0
 10
1.805967
 20
0.000000
 30
0
 11
1.805967
 21
-0.013892
 31
0
  0
LINE
  8
0
 10
2.695058
 20
0.402870
 30
0
 11
2.828422
 21
0.402870
 31
0
  0
LINE
  8
0
 10
2.828422
 20
0.402870
 30
0
 11
2.895104
 21
0.402870
 31
0
  0
LINE
  8
0
 10
2.895104
 20
0.402870
 30
0
 11
3.028468
 21
0.402870
 31
0
  0
LINE
  8
0
 10
3.028468
 20
0.402870
 30
0
 11
3.067365
 21
0.413983
 31
0
  0
LINE
  8
0
 10
3.067365
 20
0.413983
 30
0
 11
3.086814
 21
0.419540
 31
0
  0
LINE
  8
0
 10
3.086814
 20
0.419540
 30
0
 11
3.125712
 21
0.430654
 31
0
  0
LINE
  8
0
 10
3.125712
 20
0.430654
 30
0
 11
3.203883
 21
0.427348
 31
0
  0
LINE
  8
0
 10
3.203883
 20
0.427348
 30
0
 11
3.244504
 21
0.431700
 31
0
  0
LINE
  8
0
 10
3.244504
 20
0.431700
 30
0
 11
3.320201
 21
0.451492
 31
0
  0
LINE
  8
0
 10
3.320201
 20
0.451492
 30
0
 11
3.386883
 21
0.462605
 31
0
  0
LINE
  8
0
 10
3.386883
 20
0.462605
 30
0
 11
3.420223
 21
0.468162
 31
0
  0
LINE
  8
0
 10
3.420223
 20
0.468162
 30
0
 11
3.486905
 21
0.479276
 31
0
  0
LINE
  8
0
 10
3.486905
 20
0.479276
 30
0
 11
3.548789
 21
0.484768
 31
0
  0
LINE
  8
0
 10
3.548789
 20
0.484768
 30
0
 11
3.579861
 21
0.490418
 31
0
  0
LINE
  8
0
 10
3.579861
 20
0.490418
 30
0
 11
3.639718
 21
0.507060
 31
0
  0
LINE
  8
0
 10
3.639718
 20
0.507060
 30
0
 11
3.706400
 21
0.529287
 31
0
  0
LINE
  8
0
 10
3.706400
 20
0.529287
 30
0
 11
3.739741
 21
0.540401
 31
0
  0
LINE
  8
0
 10
3.739741
 20
0.540401
 30
0
 11
3.806423
 21
0.562628
 31
0
  0
LINE
  8
0
 10
3.806423
 20
0.562628
 30
0
 11
3.917701
 21
0.606725
 31
0
  0
LINE
  8
0
 10
3.917701
 20
0.606725
 30
0
 11
3.973271
 21
0.628953
 31
0
  0
LINE
  8
0
 10
3.973271
 20
0.628953
 30
0
 11
4.084264
 21
0.673765
 31
0
  0
LINE
  8
0
 10
4.084264
 20
0.673765
 30
0
 11
4.150945
 21
0.707106
 31
0
  0
LINE
  8
0
 10
4.150945
 20
0.707106
 30
0
 11
4.184286
 21
0.723776
 31
0
  0
LINE
  8
0
 10
4.184286
 20
0.723776
 30
0
 11
4.250968
 21
0.757117
 31
0
  0
LINE
  8
0
 10
4.250968
 20
0.757117
 30
0
 11
4.379748
 21
0.860355
 31
0
  0
LINE
  8
0
 10
4.379748
 20
0.860355
 30
0
 11
4.446708
 21
0.909181
 31
0
  0
LINE
  8
0
 10
4.446708
 20
0.909181
 30
0
 11
4.584378
 21
1.000228
 31
0
  0
LINE
  8
0
 10
4.584378
 20
1.000228
 30
0
 11
4.607238
 21
1.052746
 31
0
  0
LINE
  8
0
 10
4.607238
 20
1.052746
 30
0
 11
4.627949
 21
1.078237
 31
0
  0
LINE
  8
0
 10
4.627949
 20
1.078237
 30
0
 11
4.674676
 21
1.111364
 31
0
  0
LINE
  8
0
 10
4.674676
 20
1.111364
 30
0
 11
4.689607
 21
1.112328
 31
0
  0
LINE
  8
0
 10
4.689607
 20
1.112328
 30
0
 11
4.697929
 21
1.115657
 31
0
  0
LINE
  8
0
 10
4.697929
 20
1.115657
 30
0
 11
4.709406
 21
1.125256
 31
0
  0
LINE
  8
0
 10
4.709406
 20
1.125256
 30
0
 11
4.706778
 21
1.136406
 31
0
  0
LINE
  8
0
 10
4.706778
 20
1.136406
 30
0
 11
4.708786
 21
1.144439
 31
0
  0
LINE
  8
0
 10
4.708786
 20
1.144439
 30
0
 11
4.716352
 21
1.153040
 31
0
  0
LINE
  8
0
 10
4.716352
 20
1.153040
 30
0
 11
4.794148
 21
1.230836
 31
0
  0
LINE
  8
0
 10
4.794148
 20
1.230836
 30
0
 11
4.833045
 21
1.269734
 31
0
  0
LINE
  8
0
 10
4.833045
 20
1.269734
 30
0
 11
4.910841
 21
1.347529
 31
0
  0
LINE
  8
0
 10
4.910841
 20
1.347529
 30
0
 11
4.938397
 21
1.397743
 31
0
  0
LINE
  8
0
 10
4.938397
 20
1.397743
 30
0
 11
4.957629
 21
1.421414
 31
0
  0
LINE
  8
0
 10
4.957629
 20
1.421414
 30
0
 11
5.001139
 21
1.458666
 31
0
  0
LINE
  8
0
 10
5.001139
 20
1.458666
 30
0
 11
4.997951
 21
1.477029
 31
0
  0
LINE
  8
0
 10
4.997951
 20
1.477029
 30
0
 11
5.005374
 21
1.491874
 31
0
  0
LINE
  8
0
 10
5.005374
 20
1.491874
 30
0
 11
5.021977
 21
1.500342
 31
0
  0
LINE
  8
0
 10
5.021977
 20
1.500342
 30
0
 11
5.043835
 21
1.544719
 31
0
  0
LINE
  8
0
 10
5.043835
 20
1.544719
 30
0
 11
5.060437
 21
1.565850
 31
0
  0
LINE
  8
0
 10
5.060437
 20
1.565850
 30
0
 11
5.098384
 21
1.597586
 31
0
  0
LINE
  8
0
 10
5.098384
 20
1.597586
 30
0
 11
5.119347
 21
1.657440
 31
0
  0
LINE
  8
0
 10
5.119347
 20
1.657440
 30
0
 11
5.135468
 21
1.686751
 31
0
  0
LINE
  8
0
 10
5.135468
 20
1.686751
 30
0
 11
5.174790
 21
1.736507
 31
0
  0
LINE
  8
0
 10
5.174790
 20
1.736507
 30
0
 11
5.181868
 21
1.755250
 31
0
  0
LINE
  8
0
 10
5.181868
 20
1.755250
 30
0
 11
5.187995
 21
1.764440
 31
0
  0
LINE
  8
0
 10
5.187995
 20
1.764440
 30
0
 11
5.202574
 21
1.778183
 31
0
  0
LINE
  8
0
 10
5.202574
 20
1.778183
 30
0
 11
5.230358
 21
1.833751
 31
0
  0
LINE
  8
0
 10
5.230358
 20
1.833751
 30
0
 11
5.244250
 21
1.861535
 31
0
  0
LINE
  8
0
 10
5.244250
 20
1.861535
 30
0
 11
5.272034
 21
1.917103
 31
0
  0
LINE
  8
0
 10
5.272034
 20
1.917103
 30
0
 11
5.323824
 21
2.058599
 31
0
  0
LINE
  8
0
 10
5.323824
 20
2.058599
 30
0
 11
5.353125
 21
2.128363
 31
0
  0
LINE
  8
0
 10
5.353125
 20
2.128363
 30
0
 11
5.417901
 21
2.264405
 31
0
  0
LINE
  8
0
 10
5.417901
 20
2.264405
 30
0
 11
5.423551
 21
2.326833
 31
0
  0
LINE
  8
0
 10
5.423551
 20
2.326833
 30
0
 11
5.430743
 21
2.358479
 31
0
  0
LINE
  8
0
 10
5.430743
 20
2.358479
 30
0
 11
5.452631
 21
2.417217
 31
0
  0
LINE
  8
0
 10
5.452631
 20
2.417217
 30
0
 11
5.463470
 21
2.442950
 31
0
  0
LINE
  8
0
 10
5.463470
 20
2.442950
 30
0
 11
5.465106
 21
2.459308
 31
0
  0
LINE
  8
0
 10
5.465106
 20
2.459308
 30
0
 11
5.459577
 21
2.486678
 31
0
  0
LINE
  8
0
 10
5.459577
 20
2.486678
 30
0
 11
5.412816
 21
2.504630
 31
0
  0
LINE
  8
0
 10
5.412816
 20
2.504630
 30
0
 11
5.383010
 21
2.506285
 31
0
  0
LINE
  8
0
 10
5.383010
 20
2.506285
 30
0
 11
5.334548
 21
2.493624
 31
0
  0
LINE
  8
0
 10
5.334548
 20
2.493624
 30
0
 11
5.223932
 21
2.482527
 31
0
  0
LINE
  8
0
 10
5.223932
 20
2.482527
 30
0
 11
5.167740
 21
2.481122
 31
0
  0
LINE
  8
0
 10
5.167740
 20
2.481122
 30
0
 11
5.056707
 21
2.486678
 31
0
  0
LINE
  8
0
 10
5.056707
 20
2.486678
 30
0
 11
5.048735
 21
2.471776
 31
0
  0
LINE
  8
0
 10
5.048735
 20
2.471776
 30
0
 11
5.027406
 21
2.468221
 31
0
  0
LINE
  8
0
 10
5.027406
 20
2.468221
 30
0
 11
5.015031
 21
2.479731
 31
0
  0
LINE
  8
0
 10
5.015031
 20
2.479731
 30
0
 11
4.998882
 21
2.489037
 31
0
  0
LINE
  8
0
 10
4.998882
 20
2.489037
 30
0
 11
4.990489
 21
2.493234
 31
0
  0
LINE
  8
0
 10
4.990489
 20
2.493234
 30
0
 11
4.973355
 21
2.500570
 31
0
  0
LINE
  8
0
 10
4.973355
 20
2.500570
 30
0
 11
4.970945
 21
2.552419
 31
0
  0
LINE
  8
0
 10
4.970945
 20
2.552419
 30
0
 11
4.963302
 21
2.579934
 31
0
  0
LINE
  8
0
 10
4.963302
 20
2.579934
 30
0
 11
4.938625
 21
2.625598
 31
0
  0
LINE
  8
0
 10
4.938625
 20
2.625598
 30
0
 11
4.927317
 21
2.645524
 31
0
  0
LINE
  8
0
 10
4.927317
 20
2.645524
 30
0
 11
4.924132
 21
2.658263
 31
0
  0
LINE
  8
0
 10
4.924132
 20
2.658263
 30
0
 11
4.924733
 21
2.681166
 31
0
  0
LINE
  8
0
 10
4.924733
 20
2.681166
 30
0
 11
4.913619
 21
2.747848
 31
0
  0
LINE
  8
0
 10
4.913619
 20
2.747848
 30
0
 11
4.908062
 21
2.781189
 31
0
  0
LINE
  8
0
 10
4.908062
 20
2.781189
 30
0
 11
4.896949
 21
2.847871
 31
0
  0
LINE
  8
0
 10
4.896949
 20
2.847871
 30
0
 11
4.869974
 21
2.984147
 31
0
  0
LINE
  8
0
 10
4.869974
 20
2.984147
 30
0
 11
4.850221
 21
3.051870
 31
0
  0
LINE
  8
0
 10
4.850221
 20
3.051870
 30
0
 11
4.799704
 21
3.181280
 31
0
  0
LINE
  8
0
 10
4.799704
 20
3.181280
 30
0
 11
4.729052
 21
3.357777
 31
0
  0
LINE
  8
0
 10
4.729052
 20
3.357777
 30
0
 11
4.685299
 21
3.443873
 31
0
  0
LINE
  8
0
 10
4.685299
 20
3.443873
 30
0
 11
4.584378
 21
3.604988
 31
0
  0
LINE
  8
0
 10
4.584378
 20
3.604988
 30
0
 11
4.563603
 21
3.645546
 31
0
  0
LINE
  8
0
 10
4.563603
 20
3.645546
 30
0
 11
4.548790
 21
3.664803
 31
0
  0
LINE
  8
0
 10
4.548790
 20
3.664803
 30
0
 11
4.514917
 21
3.695286
 31
0
  0
LINE
  8
0
 10
4.514917
 20
3.695286
 30
0
 11
4.518105
 21
3.713650
 31
0
  0
LINE
  8
0
 10
4.518105
 20
3.713650
 30
0
 11
4.510683
 21
3.728494
 31
0
  0
LINE
  8
0
 10
4.510683
 20
3.728494
 30
0
 11
4.494079
 21
3.736962
 31
0
  0
LINE
  8
0
 10
4.494079
 20
3.736962
 30
0
 11
4.475948
 21
3.772696
 31
0
  0
LINE
  8
0
 10
4.475948
 20
3.772696
 30
0
 11
4.464523
 21
3.789834
 31
0
  0
LINE
  8
0
 10
4.464523
 20
3.789834
 30
0
 11
4.438511
 21
3.820315
 31
0
  0
LINE
  8
0
 10
4.438511
 20
3.820315
 30
0
 11
4.388978
 21
3.887352
 31
0
  0
LINE
  8
0
 10
4.388978
 20
3.887352
 30
0
 11
4.363969
 21
3.920697
 31
0
  0
LINE
  8
0
 10
4.363969
 20
3.920697
 30
0
 11
4.313483
 21
3.987019
 31
0
  0
LINE
  8
0
 10
4.313483
 20
3.987019
 30
0
 11
4.249579
 21
4.050923
 31
0
  0
LINE
  8
0
 10
4.249579
 20
4.050923
 30
0
 11
4.217627
 21
4.082874
 31
0
  0
LINE
  8
0
 10
4.217627
 20
4.082874
 30
0
 11
4.153724
 21
4.146778
 31
0
  0
LINE
  8
0
 10
4.153724
 20
4.146778
 30
0
 11
4.076603
 21
4.198499
 31
0
  0
LINE
  8
0
 10
4.076603
 20
4.198499
 30
0
 11
4.039916
 21
4.228131
 31
0
  0
LINE
  8
0
 10
4.039916
 20
4.228131
 30
0
 11
3.973127
 21
4.292644
 31
0
  0
LINE
  8
0
 10
3.973127
 20
4.292644
 30
0
 11
3.954764
 21
4.289457
 31
0
  0
LINE
  8
0
 10
3.954764
 20
4.289457
 30
0
 11
3.939919
 21
4.296879
 31
0
  0
LINE
  8
0
 10
3.939919
 20
4.296879
 30
0
 11
3.931451
 21
4.313483
 31
0
  0
LINE
  8
0
 10
3.931451
 20
4.313483
 30
0
 11
3.781069
 21
4.403405
 31
0
  0
LINE
  8
0
 10
3.781069
 20
4.403405
 30
0
 11
3.702693
 21
4.443992
 31
0
  0
LINE
  8
0
 10
3.702693
 20
4.443992
 30
0
 11
3.542474
 21
4.514917
 31
0
  0
LINE
  8
0
 10
3.542474
 20
4.514917
 30
0
 11
3.468988
 21
4.528939
 31
0
  0
LINE
  8
0
 10
3.468988
 20
4.528939
 30
0
 11
3.432469
 21
4.538771
 31
0
  0
LINE
  8
0
 10
3.432469
 20
4.538771
 30
0
 11
3.361877
 21
4.563539
 31
0
  0
LINE
  8
0
 10
3.361877
 20
4.563539
 30
0
 11
3.306309
 21
4.574653
 31
0
  0
LINE
  8
0
 10
3.306309
 20
4.574653
 30
0
 11
3.278525
 21
4.580210
 31
0
  0
LINE
  8
0
 10
3.278525
 20
4.580210
 30
0
 11
3.222956
 21
4.591324
 31
0
  0
LINE
  8
0
 10
3.222956
 20
4.591324
 30
0
 11
3.177832
 21
4.588249
 31
0
  0
LINE
  8
0
 10
3.177832
 20
4.588249
 30
0
 11
3.152766
 21
4.592949
 31
0
  0
LINE
  8
0
 10
3.152766
 20
4.592949
 30
0
 11
3.111820
 21
4.612162
 31
0
  0
LINE
  8
0
 10
3.111820
 20
4.612162
 30
0
 11
3.011797
 21
4.612162
 31
0
  0
LINE
  8
0
 10
3.011797
 20
4.612162
 30
0
 11
2.961786
 21
4.612162
 31
0
  0
LINE
  8
0
 10
2.961786
 20
4.612162
 30
0
 11
2.861763
 21
4.612162
 31
0
  0
LINE
  8
0
 10
2.861763
 20
4.612162
 30
0
 11
2.861763
 21
4.606605
 31
0
  0
LINE
  8
0
 10
2.861763
 20
4.606605
 30
0
 11
2.861763
 21
4.603826
 31
0
  0
LINE
  8
0
 10
2.861763
 20
4.603826
 30
0
 11
2.861763
 21
4.598270
 31
0
  0
LINE
  8
0
 10
2.861763
 20
4.598270
 30
0
 11
2.795081
 21
4.598270
 31
0
  0
LINE
  8
0
 10
2.795081
 20
4.598270
 30
0
 11
2.761740
 21
4.598270
 31
0
  0
LINE
  8
0
 10
2.761740
 20
4.598270
 30
0
 11
2.695058
 21
4.598270
 31
0
  0
LINE
  8
0
 10
2.695058
 20
4.598270
 30
0
 11
2.650604
 21
4.587156
 31
0
  0
LINE
  8
0
 10
2.650604
 20
4.587156
 30
0
 11
2.628376
 21
4.581599
 31
0
  0
LINE
  8
0
 10
2.628376
 20
4.581599
 30
0
 11
2.583922
 21
4.570485
 31
0
  0
LINE
  8
0
 10
2.583922
 20
4.570485
 30
0
 11
2.505816
 21
4.575079
 31
0
  0
LINE
  8
0
 10
2.505816
 20
4.575079
 30
0
 11
2.464793
 21
4.570684
 31
0
  0
LINE
  8
0
 10
2.464793
 20
4.570684
 30
0
 11
2.389433
 21
4.549647
 31
0
  0
LINE
  8
0
 10
2.389433
 20
4.549647
 30
0
 11
2.270437
 21
4.534506
 31
0
  0
LINE
  8
0
 10
2.270437
 20
4.534506
 30
0
 11
2.210752
 21
4.520295
 31
0
  0
LINE
  8
0
 10
2.210752
 20
4.520295
 30
0
 11
2.097700
 21
4.480187
 31
0
  0
LINE
  8
0
 10
2.097700
 20
4.480187
 30
0
 11
2.013194
 21
4.456140
 31
0
  0
LINE
  8
0
 10
2.013194
 20
4.456140
 30
0
 11
1.971352
 21
4.442193
 31
0
  0
LINE
  8
0
 10
1.971352
 20
4.442193
 30
0
 11
1.889319
 21
4.410727
 31
0
  0
LINE
  8
0
 10
1.889319
 20
4.410727
 30
0
 11
1.811524
 21
4.371829
 31
0
  0
LINE
  8
0
 10
1.811524
 20
4.371829
 30
0
 11
1.772626
 21
4.352380
 31
0
  0
LINE
  8
0
 10
1.772626
 20
4.352380
 30
0
 11
1.694830
 21
4.313483
 31
0
  0
LINE
  8
0
 10
1.694830
 20
4.313483
 30
0
 11
1.644499
 21
4.280626
 31
0
  0
LINE
  8
0
 10
1.644499
 20
4.280626
 30
0
 11
1.619489
 21
4.263953
 31
0
  0
LINE
  8
0
 10
1.619489
 20
4.263953
 30
0
 11
1.569802
 21
4.230130
 31
0
  0
LINE
  8
0
 10
1.569802
 20
4.230130
 30
0
 11
1.491669
 21
4.175038
 31
0
  0
LINE
  8
0
 10
1.491669
 20
4.175038
 30
0
 11
1.452768
 21
4.147252
 31
0
  0
LINE
  8
0
 10
1.452768
 20
4.147252
 30
0
 11
1.375313
 21
4.091210
 31
0
  0
LINE
  8
0
 10
1.375313
 20
4.091210
 30
0
 11
1.300296
 21
4.016193
 31
0
  0
LINE
  8
0
 10
1.300296
 20
4.016193
 30
0
 11
1.262788
 21
3.978684
 31
0
  0
LINE
  8
0
 10
1.262788
 20
3.978684
 30
0
 11
1.187771
 21
3.903667
 31
0
  0
LINE
  8
0
 10
1.187771
 20
3.903667
 30
0
 11
1.136088
 21
3.808957
 31
0
  0
LINE
  8
0
 10
1.136088
 20
3.808957
 30
0
 11
1.104880
 21
3.763564
 31
0
  0
LINE
  8
0
 10
1.104880
 20
3.763564
 30
0
 11
1.034958
 21
3.681394
 31
0
  0
LINE
  8
0
 10
1.034958
 20
3.681394
 30
0
 11
0.961702
 21
3.525386
 31
0
  0
LINE
  8
0
 10
0.961702
 20
3.525386
 30
0
 11
0.930782
 21
3.443871
 31
0
  0
LINE
  8
0
 10
0.930782
 20
3.443871
 30
0
 11
0.882145
 21
3.278525
 31
0
  0
LINE
  8
0
 10
0.882145
 20
3.278525
 30
0
 11
0.865475
 21
3.211843
 31
0
  0
LINE
  8
0
 10
0.865475
 20
3.211843
 30
0
 11
0.857140
 21
3.178502
 31
0
  0
LINE
  8
0
 10
0.857140
 20
3.178502
 30
0
 11
0.840469
 21
3.111820
 31
0
  0
LINE
  8
0
 10
0.840469
 20
3.111820
 30
0
 11
0.829356
 21
3.056252
 31
0
  0
LINE
  8
0
 10
0.829356
 20
3.056252
 30
0
 11
0.823799
 21
3.028468
 31
0
  0
LINE
  8
0
 10
0.823799
 20
3.028468
 30
0
 11
0.812685
 21
2.972899
 31
0
  0
LINE
  8
0
 10
0.812685
 20
2.972899
 30
0
 11
0.811874
 21
2.904791
 31
0
  0
LINE
  8
0
 10
0.811874
 20
2.904791
 30
0
 11
0.804409
 21
2.868961
 31
0
  0
LINE
  8
0
 10
0.804409
 20
2.868961
 30
0
 11
0.777955
 21
2.806195
 31
0
  0
LINE
  8
0
 10
0.777955
 20
2.806195
 30
0
 11
0.787907
 21
2.756870
 31
0
  0
LINE
  8
0
 10
0.787907
 20
2.756870
 30
0
 11
0.784600
 21
2.727104
 31
0
  0
LINE
  8
0
 10
0.784600
 20
2.727104
 30
0
 11
0.764063
 21
2.681166
 31
0
  0
LINE
  8
0
 10
0.764063
 20
2.681166
 30
0
 11
0.764063
 21
2.514462
 31
0
  0
LINE
  8
0
 10
0.764063
 20
2.514462
 30
0
 11
0.764063
 21
2.431109
 31
0
  0
LINE
  8
0
 10
0.764063
 20
2.431109
 30
0
 11
0.764063
 21
2.264405
 31
0
  0
LINE
  8
0
 10
0.764063
 20
2.264405
 30
0
 11
0.789922
 21
2.120078
 31
0
  0
LINE
  8
0
 10
0.789922
 20
2.120078
 30
0
 11
0.802426
 21
2.047834
 31
0
  0
LINE
  8
0
 10
0.802426
 20
2.047834
 30
0
 11
0.826577
 21
1.903211
 31
0
  0
LINE
  8
0
 10
0.826577
 20
1.903211
 30
0
 11
0.843248
 21
1.836529
 31
0
  0
LINE
  8
0
 10
0.843248
 20
1.836529
 30
0
 11
0.851583
 21
1.803189
 31
0
  0
LINE
  8
0
 10
0.851583
 20
1.803189
 30
0
 11
0.868253
 21
1.736507
 31
0
  0
LINE
  8
0
 10
0.868253
 20
1.736507
 30
0
 11
0.878643
 21
1.689109
 31
0
  0
LINE
  8
0
 10
0.878643
 20
1.689109
 30
0
 11
0.889117
 21
1.665169
 31
0
  0
LINE
  8
0
 10
0.889117
 20
1.665169
 30
0
 11
0.916876
 21
1.625370
 31
0
  0
LINE
  8
0
 10
0.916876
 20
1.625370
 30
0
 11
0.915018
 21
1.585633
 31
0
  0
LINE
  8
0
 10
0.915018
 20
1.585633
 30
0
 11
0.919737
 21
1.563613
 31
0
  0
LINE
  8
0
 10
0.919737
 20
1.563613
 30
0
 11
0.937714
 21
1.528126
 31
0
  0
LINE
  8
0
 10
0.937714
 20
1.528126
 30
0
 11
0.972073
 21
1.444171
 31
0
  0
LINE
  8
0
 10
0.972073
 20
1.444171
 30
0
 11
0.993240
 21
1.403248
 31
0
  0
LINE
  8
0
 10
0.993240
 20
1.403248
 30
0
 11
1.041904
 21
1.326691
 31
0
  0
LINE
  8
0
 10
1.041904
 20
1.326691
 30
0
 11
1.104874
 21
1.219791
 31
0
  0
LINE
  8
0
 10
1.104874
 20
1.219791
 30
0
 11
1.139870
 21
1.167997
 31
0
  0
LINE
  8
0
 10
1.139870
 20
1.167997
 30
0
 11
1.215555
 21
1.069688
 31
0
  0
LINE
  8
0
 10
1.215555
 20
1.069688
 30
0
 11
1.285015
 21
1.000228
 31
0
  0
LINE
  8
0
 10
1.285015
 20
1.000228
 30
0
 11
1.319745
 21
0.965498
 31
0
  0
LINE
  8
0
 10
1.319745
 20
0.965498
 30
0
 11
1.389205
 21
0.896037
 31
0
  0
LINE
  8
0
 10
1.389205
 20
0.896037
 30
0
 11
1.456179
 21
0.857543
 31
0
  0
LINE
  8
0
 10
1.456179
 20
0.857543
 30
0
 11
1.487874
 21
0.833052
 31
0
  0
LINE
  8
0
 10
1.487874
 20
0.833052
 30
0
 11
1.542018
 21
0.777955
 31
0
  0
LINE
  8
0
 10
1.542018
 20
0.777955
 30
0
 11
1.627742
 21
0.741404
 31
0
  0
LINE
  8
0
 10
1.627742
 20
0.741404
 30
0
 11
1.669724
 21
0.720413
 31
0
  0
LINE
  8
0
 10
1.669724
 20
0.720413
 30
0
 11
1.750399
 21
0.673765
 31
0
  0
LINE
  8
0
 10
1.750399
 20
0.673765
 30
0
 11
1.755956
 21
0.668208
 31
0
  0
LINE
  8
0
 10
1.755956
 20
0.668208
 30
0
 11
1.758734
 21
0.665429
 31
0
  0
LINE
  8
0
 10
1.758734
 20
0.665429
 30
0
 11
1.764291
 21
0.659873
 31
0
  0
LINE
  8
0
 10
1.764291
 20
0.659873
 30
0
 11
1.819859
 21
0.632088
 31
0
  0
LINE
  8
0
 10
1.819859
 20
0.632088
 30
0
 11
1.847643
 21
0.618196
 31
0
  0
LINE
  8
0
 10
1.847643
 20
0.618196
 30
0
 11
1.903211
 21
0.590412
 31
0
  0
LINE
  8
0
 10
1.903211
 20
0.590412
 30
0
 11
2.002567
 21
0.537606
 31
0
  0
LINE
  8
0
 10
2.002567
 20
0.537606
 30
0
 11
2.057293
 21
0.517444
 31
0
  0
LINE
  8
0
 10
2.057293
 20
0.517444
 30
0
 11
2.167160
 21
0.493168
 31
0
  0
LINE
  8
0
 10
2.167160
 20
0.493168
 30
0
 11
2.222729
 21
0.482054
 31
0
  0
LINE
  8
0
 10
2.222729
 20
0.482054
 30
0
 11
2.250513
 21
0.476497
 31
0
  0
LINE
  8
0
 10
2.250513
 20
0.476497
 30
0
 11
2.306081
 21
0.465384
 31
0
  0
LINE
  8
0
 10
2.306081
 20
0.465384
 30
0
 11
2.401536
 21
0.451586
 31
0
  0
LINE
  8
0
 10
2.401536
 20
0.451586
 30
0
 11
2.449103
 21
0.441793
 31
0
  0
LINE
  8
0
 10
2.449103
 20
0.441793
 30
0
 11
2.542246
 21
0.416762
 31
0
  0
LINE
  8
0
 10
2.542246
 20
0.416762
 30
0
 11
2.603371
 21
0.416762
 31
0
  0
LINE
  8
0
 10
2.603371
 20
0.416762
 30
0
 11
2.633933
 21
0.416762
 31
0
  0
LINE
  8
0
 10
2.633933
 20
0.416762
 30
0
 11
2.695058
 21
0.416762
 31
0
  0
LINE
  8
0
 10
2.695058
 20
0.416762
 30
0
 11
2.695058
 21
0.411205
 31
0
  0
LINE
  8
0
 10
2.695058
 20
0.411205
 30
0
 11
2.695058
 21
0.408426
 31
0
  0
LINE
  8
0
 10
2.695058
 20
0.408426
 30
0
 11
2.695058
 21
0.402870
 31
0
  0
LINE
  8
0
 10
3.639718
 20
1.041904
 30
0
 11
3.757709
 21
1.050492
 31
0
  0
LINE
  8
0
 10
3.757709
 20
1.050492
 30
0
 11
3.817053
 21
1.060383
 31
0
  0
LINE
  8
0
 10
3.817053
 20
1.060383
 30
0
 11
3.931451
 21
1.090526
 31
0
  0
LINE
  8
0
 10
3.931451
 20
1.090526
 30
0
 11
4.022921
 21
1.109405
 31
0
  0
LINE
  8
0
 10
4.022921
 20
1.109405
 30
0
 11
4.069203
 21
1.128813
 31
0
  0
LINE
  8
0
 10
4.069203
 20
1.128813
 30
0
 11
4.146778
 21
1.180825
 31
0
  0
LINE
  8
0
 10
4.146778
 20
1.180825
 30
0
 11
4.187336
 21
1.201599
 31
0
  0
LINE
  8
0
 10
4.187336
 20
1.201599
 30
0
 11
4.206593
 21
1.216412
 31
0
  0
LINE
  8
0
 10
4.206593
 20
1.216412
 30
0
 11
4.237076
 21
1.250285
 31
0
  0
LINE
  8
0
 10
4.237076
 20
1.250285
 30
0
 11
4.255440
 21
1.247097
 31
0
  0
LINE
  8
0
 10
4.255440
 20
1.247097
 30
0
 11
4.270284
 21
1.254519
 31
0
  0
LINE
  8
0
 10
4.270284
 20
1.254519
 30
0
 11
4.278752
 21
1.271123
 31
0
  0
LINE
  8
0
 10
4.278752
 20
1.271123
 30
0
 11
4.360152
 21
1.322555
 31
0
  0
LINE
  8
0
 10
4.360152
 20
1.322555
 30
0
 11
4.397389
 21
1.361343
 31
0
  0
LINE
  8
0
 10
4.397389
 20
1.361343
 30
0
 11
4.445457
 21
1.444774
 31
0
  0
LINE
  8
0
 10
4.445457
 20
1.444774
 30
0
 11
4.460799
 21
1.461095
 31
0
  0
LINE
  8
0
 10
4.460799
 20
1.461095
 30
0
 11
4.463255
 21
1.480746
 31
0
  0
LINE
  8
0
 10
4.463255
 20
1.480746
 30
0
 11
4.452403
 21
1.500342
 31
0
  0
LINE
  8
0
 10
4.452403
 20
1.500342
 30
0
 11
4.443097
 21
1.516491
 31
0
  0
LINE
  8
0
 10
4.443097
 20
1.516491
 30
0
 11
4.438901
 21
1.524884
 31
0
  0
LINE
  8
0
 10
4.438901
 20
1.524884
 30
0
 11
4.431565
 21
1.542018
 31
0
  0
LINE
  8
0
 10
4.431565
 20
1.542018
 30
0
 11
4.401579
 21
1.550128
 31
0
  0
LINE
  8
0
 10
4.401579
 20
1.550128
 30
0
 11
4.380371
 21
1.546272
 31
0
  0
LINE
  8
0
 10
4.380371
 20
1.546272
 30
0
 11
4.355159
 21
1.528126
 31
0
  0
LINE
  8
0
 10
4.355159
 20
1.528126
 30
0
 11
4.325712
 21
1.511300
 31
0
  0
LINE
  8
0
 10
4.325712
 20
1.511300
 30
0
 11
4.312267
 21
1.492093
 31
0
  0
LINE
  8
0
 10
4.312267
 20
1.492093
 30
0
 11
4.306536
 21
1.458666
 31
0
  0
LINE
  8
0
 10
4.306536
 20
1.458666
 30
0
 11
4.188090
 21
1.372598
 31
0
  0
LINE
  8
0
 10
4.188090
 20
1.372598
 30
0
 11
4.126710
 21
1.332143
 31
0
  0
LINE
  8
0
 10
4.126710
 20
1.332143
 30
0
 11
4.000911
 21
1.257231
 31
0
  0
LINE
  8
0
 10
4.000911
 20
1.257231
 30
0
 11
3.943577
 21
1.243856
 31
0
  0
LINE
  8
0
 10
3.943577
 20
1.243856
 30
0
 11
3.915152
 21
1.233907
 31
0
  0
LINE
  8
0
 10
3.915152
 20
1.233907
 30
0
 11
3.861991
 21
1.208609
 31
0
  0
LINE
  8
0
 10
3.861991
 20
1.208609
 30
0
 11
3.824431
 21
1.220149
 31
0
  0
LINE
  8
0
 10
3.824431
 20
1.220149
 30
0
 11
3.797572
 21
1.216312
 31
0
  0
LINE
  8
0
 10
3.797572
 20
1.216312
 30
0
 11
3.764746
 21
1.194717
 31
0
  0
LINE
  8
0
 10
3.764746
 20
1.194717
 30
0
 11
3.709178
 21
1.194717
 31
0
  0
LINE
  8
0
 10
3.709178
 20
1.194717
 30
0
 11
3.681394
 21
1.194717
 31
0
  0
LINE
  8
0
 10
3.681394
 20
1.194717
 30
0
 11
3.625826
 21
1.194717
 31
0
  0
LINE
  8
0
 10
3.625826
 20
1.194717
 30
0
 11
3.570230
 21
1.208496
 31
0
  0
LINE
  8
0
 10
3.570230
 20
1.208496
 30
0
 11
3.542445
 21
1.215442
 31
0
  0
LINE
  8
0
 10
3.542445
 20
1.215442
 30
0
 11
3.486905
 21
1.229447
 31
0
  0
LINE
  8
0
 10
3.486905
 20
1.229447
 30
0
 11
3.378686
 21
1.257630
 31
0
  0
LINE
  8
0
 10
3.378686
 20
1.257630
 30
0
 11
3.324326
 21
1.284809
 31
0
  0
LINE
  8
0
 10
3.324326
 20
1.284809
 30
0
 11
3.236848
 21
1.354475
 31
0
  0
LINE
  8
0
 10
3.236848
 20
1.354475
 30
0
 11
3.177428
 21
1.414814
 31
0
  0
LINE
  8
0
 10
3.177428
 20
1.414814
 30
0
 11
3.149431
 21
1.447011
 31
0
  0
LINE
  8
0
 10
3.149431
 20
1.447011
 30
0
 11
3.097928
 21
1.514234
 31
0
  0
LINE
  8
0
 10
3.097928
 20
1.514234
 30
0
 11
3.084212
 21
1.572490
 31
0
  0
LINE
  8
0
 10
3.084212
 20
1.572490
 30
0
 11
3.072604
 21
1.601510
 31
0
  0
LINE
  8
0
 10
3.072604
 20
1.601510
 30
0
 11
3.042360
 21
1.653154
 31
0
  0
LINE
  8
0
 10
3.042360
 20
1.653154
 30
0
 11
3.013624
 21
1.657115
 31
0
  0
LINE
  8
0
 10
3.013624
 20
1.657115
 30
0
 11
2.994709
 21
1.651441
 31
0
  0
LINE
  8
0
 10
2.994709
 20
1.651441
 30
0
 11
2.972899
 21
1.632316
 31
0
  0
LINE
  8
0
 10
2.972899
 20
1.632316
 30
0
 11
2.969882
 21
1.626886
 31
0
  0
LINE
  8
0
 10
2.969882
 20
1.626886
 30
0
 11
2.965162
 21
1.624526
 31
0
  0
LINE
  8
0
 10
2.965162
 20
1.624526
 30
0
 11
2.959007
 21
1.625370
 31
0
  0
LINE
  8
0
 10
2.959007
 20
1.625370
 30
0
 11
2.959007
 21
1.569802
 31
0
  0
LINE
  8
0
 10
2.959007
 20
1.569802
 30
0
 11
2.959007
 21
1.542018
 31
0
  0
LINE
  8
0
 10
2.959007
 20
1.542018
 30
0
 11
2.959007
 21
1.486450
 31
0
  0
LINE
  8
0
 10
2.959007
 20
1.486450
 30
0
 11
2.990357
 21
1.422747
 31
0
  0
LINE
  8
0
 10
2.990357
 20
1.422747
 30
0
 11
3.008627
 21
1.391828
 31
0
  0
LINE
  8
0
 10
3.008627
 20
1.391828
 30
0
 11
3.049306
 21
1.333637
 31
0
  0
LINE
  8
0
 10
3.049306
 20
1.333637
 30
0
 11
3.086639
 21
1.278107
 31
0
  0
LINE
  8
0
 10
3.086639
 20
1.278107
 30
0
 11
3.109672
 21
1.252195
 31
0
  0
LINE
  8
0
 10
3.109672
 20
1.252195
 30
0
 11
3.160442
 21
1.208609
 31
0
  0
LINE
  8
0
 10
3.160442
 20
1.208609
 30
0
 11
3.247963
 21
1.166957
 31
0
  0
LINE
  8
0
 10
3.247963
 20
1.166957
 30
0
 11
3.291118
 21
1.144684
 31
0
  0
LINE
  8
0
 10
3.291118
 20
1.144684
 30
0
 11
3.375769
 21
1.097472
 31
0
  0
LINE
  8
0
 10
3.375769
 20
1.097472
 30
0
 11
3.444208
 21
1.091110
 31
0
  0
LINE
  8
0
 10
3.444208
 20
1.091110
 30
0
 11
3.479092
 21
1.082389
 31
0
  0
LINE
  8
0
 10
3.479092
 20
1.082389
 30
0
 11
3.542474
 21
1.055796
 31
0
  0
LINE
  8
0
 10
3.542474
 20
1.055796
 30
0
 11
3.580033
 21
1.067337
 31
0
  0
LINE
  8
0
 10
3.580033
 20
1.067337
 30
0
 11
3.606892
 21
1.063500
 31
0
  0
LINE
  8
0
 10
3.606892
 20
1.063500
 30
0
 11
3.639718
 21
1.041904
 31
0
  0
LINE
  8
0
 10
1.805967
 20
2.875655
 30
0
 11
1.856460
 21
2.871060
 31
0
  0
LINE
  8
0
 10
1.856460
 20
2.871060
 30
0
 11
1.884722
 21
2.875771
 31
0
  0
LINE
  8
0
 10
1.884722
 20
2.875771
 30
0
 11
1.930995
 21
2.896493
 31
0
  0
LINE
  8
0
 10
1.930995
 20
2.896493
 30
0
 11
1.989441
 21
2.922483
 31
0
  0
LINE
  8
0
 10
1.989441
 20
2.922483
 30
0
 11
2.017573
 21
2.941731
 31
0
  0
LINE
  8
0
 10
2.017573
 20
2.941731
 30
0
 11
2.062970
 21
2.986791
 31
0
  0
LINE
  8
0
 10
2.062970
 20
2.986791
 30
0
 11
2.077626
 21
3.027736
 31
0
  0
LINE
  8
0
 10
2.077626
 20
3.027736
 30
0
 11
2.087630
 21
3.047744
 31
0
  0
LINE
  8
0
 10
2.087630
 20
3.047744
 30
0
 11
2.111592
 21
3.084036
 31
0
  0
LINE
  8
0
 10
2.111592
 20
3.084036
 30
0
 11
2.113906
 21
3.140657
 31
0
  0
LINE
  8
0
 10
2.113906
 20
3.140657
 30
0
 11
2.107721
 21
3.171580
 31
0
  0
LINE
  8
0
 10
2.107721
 20
3.171580
 30
0
 11
2.083808
 21
3.222956
 31
0
  0
LINE
  8
0
 10
2.083808
 20
3.222956
 30
0
 11
2.062726
 21
3.267707
 31
0
  0
LINE
  8
0
 10
2.062726
 20
3.267707
 30
0
 11
2.045894
 21
3.289129
 31
0
  0
LINE
  8
0
 10
2.045894
 20
3.289129
 30
0
 11
2.007402
 21
3.320201
 31
0
  0
LINE
  8
0
 10
2.007402
 20
3.320201
 30
0
 11
1.980160
 21
3.322783
 31
0
  0
LINE
  8
0
 10
1.980160
 20
3.322783
 30
0
 11
1.965059
 21
3.329494
 31
0
  0
LINE
  8
0
 10
1.965059
 20
3.329494
 30
0
 11
1.944887
 21
3.347985
 31
0
  0
LINE
  8
0
 10
1.944887
 20
3.347985
 30
0
 11
1.889319
 21
3.347985
 31
0
  0
LINE
  8
0
 10
1.889319
 20
3.347985
 30
0
 11
1.861535
 21
3.347985
 31
0
  0
LINE
  8
0
 10
1.861535
 20
3.347985
 30
0
 11
1.805967
 21
3.347985
 31
0
  0
LINE
  8
0
 10
1.805967
 20
3.347985
 30
0
 11
1.745424
 21
3.322798
 31
0
  0
LINE
  8
0
 10
1.745424
 20
3.322798
 30
0
 11
1.715983
 21
3.301105
 31
0
  0
LINE
  8
0
 10
1.715983
 20
3.301105
 30
0
 11
1.673992
 21
3.250740
 31
0
  0
LINE
  8
0
 10
1.673992
 20
3.250740
 30
0
 11
1.663840
 21
3.231562
 31
0
  0
LINE
  8
0
 10
1.663840
 20
3.231562
 30
0
 11
1.656296
 21
3.222509
 31
0
  0
LINE
  8
0
 10
1.656296
 20
3.222509
 30
0
 11
1.639262
 21
3.209064
 31
0
  0
LINE
  8
0
 10
1.639262
 20
3.209064
 30
0
 11
1.648867
 21
3.194349
 31
0
  0
LINE
  8
0
 10
1.648867
 20
3.194349
 30
0
 11
1.641883
 21
3.173398
 31
0
  0
LINE
  8
0
 10
1.641883
 20
3.173398
 30
0
 11
1.625370
 21
3.167388
 31
0
  0
LINE
  8
0
 10
1.625370
 20
3.167388
 30
0
 11
1.625370
 21
3.111820
 31
0
  0
LINE
  8
0
 10
1.625370
 20
3.111820
 30
0
 11
1.625370
 21
3.084036
 31
0
  0
LINE
  8
0
 10
1.625370
 20
3.084036
 30
0
 11
1.625370
 21
3.028468
 31
0
  0
LINE
  8
0
 10
1.625370
 20
3.028468
 30
0
 11
1.650936
 21
2.991678
 31
0
  0
LINE
  8
0
 10
1.650936
 20
2.991678
 30
0
 11
1.662222
 21
2.971927
 31
0
  0
LINE
  8
0
 10
1.662222
 20
2.971927
 30
0
 11
1.680938
 21
2.931223
 31
0
  0
LINE
  8
0
 10
1.680938
 20
2.931223
 30
0
 11
1.699302
 21
2.934411
 31
0
  0
LINE
  8
0
 10
1.699302
 20
2.934411
 30
0
 11
1.714147
 21
2.926989
 31
0
  0
LINE
  8
0
 10
1.714147
 20
2.926989
 30
0
 11
1.722615
 21
2.910385
 31
0
  0
LINE
  8
0
 10
1.722615
 20
2.910385
 30
0
 11
1.756888
 21
2.898985
 31
0
  0
LINE
  8
0
 10
1.756888
 20
2.898985
 30
0
 11
1.773739
 21
2.891963
 31
0
  0
LINE
  8
0
 10
1.773739
 20
2.891963
 30
0
 11
1.805967
 21
2.875655
 31
0
  0
LINE
  8
0
 10
0.590412
 20
2.681166
 30
0
 11
0.604304
 21
2.681166
 31
0
  0
LINE
  8
0
 10
0.604304
 20
2.681166
 30
0
 11
0.611250
 21
2.681166
 31
0
  0
LINE
  8
0
 10
0.611250
 20
2.681166
 30
0
 11
0.625142
 21
2.681166
 31
0
  0
LINE
  8
0
 10
0.625142
 20
2.681166
 30
0
 11
0.623767
 21
2.753871
 31
0
  0
LINE
  8
0
 10
0.623767
 20
2.753871
 30
0
 11
0.628083
 21
2.791282
 31
0
  0
LINE
  8
0
 10
0.628083
 20
2.791282
 30
0
 11
0.645980
 21
2.861763
 31
0
  0
LINE
  8
0
 10
0.645980
 20
2.861763
 30
0
 11
0.663217
 21
2.920670
 31
0
  0
LINE
  8
0
 10
0.663217
 20
2.920670
 30
0
 11
0.666204
 21
2.953526
 31
0
  0
LINE
  8
0
 10
0.666204
 20
2.953526
 30
0
 11
0.659873
 21
3.014576
 31
0
  0
LINE
  8
0
 10
0.659873
 20
3.014576
 30
0
 11
0.657707
 21
3.023091
 31
0
  0
LINE
  8
0
 10
0.657707
 20
3.023091
 30
0
 11
0.645876
 21
3.027034
 31
0
  0
LINE
  8
0
 10
0.645876
 20
3.027034
 30
0
 11
0.639034
 21
3.021522
 31
0
  0
LINE
  8
0
 10
0.639034
 20
3.021522
 30
0
 11
0.556071
 21
2.959870
 31
0
  0
LINE
  8
0
 10
0.556071
 20
2.959870
 30
0
 11
0.514391
 21
2.929305
 31
0
  0
LINE
  8
0
 10
0.514391
 20
2.929305
 30
0
 11
0.430654
 21
2.868709
 31
0
  0
LINE
  8
0
 10
0.430654
 20
2.868709
 30
0
 11
0.485007
 21
2.786509
 31
0
  0
LINE
  8
0
 10
0.485007
 20
2.786509
 30
0
 11
0.517899
 21
2.747897
 31
0
  0
LINE
  8
0
 10
0.517899
 20
2.747897
 30
0
 11
0.590412
 21
2.681166
 31
0
  0
ENDSEC
  0
EOF