  0
SECTION
  2
HEADER
  9
$ACADVER
  1
AC1009
  9
$INSBASE
 10
0.0
 20
0.0
 30
0.0
  9
$EXTMIN
 10
0.000000
 20
0.000000
 30
0.0
  9
$EXTMAX
 10
1.680938
 20
1.153040
 30
0.0
  9
$LIMMIN
 10
0.000000
 20
0.000000
  9
$LIMMAX
 10
1.680938
 20
1.153040
  9
$LTSCALE
 40
0.404040
  9
$CELTYPE
  6
BYLAYER
  9
$CECOLOR
 62
   256
  9
$LUNITS
 70
     3
  9
$HANDLING
 70
     1
  9
$UNITMODE
 70
     0
  0
ENDSEC
  0
SECTION
  2
TABLES
  0
TABLE
  2
LTYPE
 70
     1
  0
LTYPE
  2
CONTINUOUS
 70
     0
  3
Solid line
 72
    65
 73
     0
 40
0.0
  0
ENDTAB
  0
TABLE
  2
LAYER
 70
     1
  0
LAYER
  2
0
 70
     0
 62
     7
  6
CONTINUOUS
  0
ENDTAB
  0
TABLE
  2
APPID
 70
     1
  0
APPID
  2
ACAD
 70
     0
  0
ENDTAB
  0
ENDSEC
  0
SECTION
  2
ENTITIES
  0
LINE
  8
0
 10
0.013892
 20
-0.013892
 30
0
 11
0.691824
 21
-0.013892
 31
0
  0
LINE
  8
0
 10
0.691824
 20
-0.013892
 30
0
 11
1.030790
 21
-0.013892
 31
0
  0
LINE
  8
0
 10
1.030790
 20
-0.013892
 30
0
 11
1.708723
 21
-0.013892
 31
0
  0
LINE
  8
0
 10
1.708723
 20
-0.013892
 30
0
 11
1.708723
 21
0.452881
 31
0
  0
LINE
  8
0
 10
1.708723
 20
0.452881
 30
0
 11
1.708723
 21
0.686267
 31
0
  0
LINE
  8
0
 10
1.708723
 20
0.686267
 30
0
 11
1.708723
 21
1.153040
 31
0
  0
LINE
  8
0
 10
1.708723
 20
1.153040
 30
0
 11
1.030790
 21
1.153040
 31
0
  0
LINE
  8
0
 10
1.030790
 20
1.153040
 30
0
 11
0.691824
 21
1.153040
 31
0
  0
LINE
  8
0
 10
0.691824
 20
1.153040
 30
0
 11
0.013892
 21
1.153040
 31
0
  0
LINE
  8
0
 10
0.013892
 20
1.153040
 30
0
 11
0.013892
 21
0.686267
 31
0
  0
LINE
  8
0
 10
0.013892
 20
0.686267
 30
0
 11
0.013892
 21
0.452881
 31
0
  0
LINE
  8
0
 10
0.013892
 20
0.452881
 30
0
 11
0.013892
 21
-0.013892
 31
0
  0
LINE
  8
0
 10
0.680711
 20
0.097244
 30
0
 11
0.808517
 21
0.097244
 31
0
  0
LINE
  8
0
 10
0.808517
 20
0.097244
 30
0
 11
0.872421
 21
0.097244
 31
0
  0
LINE
  8
0
 10
0.872421
 20
0.097244
 30
0
 11
1.000228
 21
0.097244
 31
0
  0
LINE
  8
0
 10
1.000228
 20
0.097244
 30
0
 11
1.147834
 21
0.125935
 31
0
  0
LINE
  8
0
 10
1.147834
 20
0.125935
 30
0
 11
1.221212
 21
0.147102
 31
0
  0
LINE
  8
0
 10
1.221212
 20
0.147102
 30
0
 11
1.361421
 21
0.201435
 31
0
  0
LINE
  8
0
 10
1.361421
 20
0.201435
 30
0
 11
1.398004
 21
0.208592
 31
0
  0
LINE
  8
0
 10
1.398004
 20
0.208592
 30
0
 11
1.417098
 21
0.218139
 31
0
  0
LINE
  8
0
 10
1.417098
 20
0.218139
 30
0
 11
1.444774
 21
0.243111
 31
0
  0
LINE
  8
0
 10
1.444774
 20
0.243111
 30
0
 11
1.487343
 21
0.264856
 31
0
  0
LINE
  8
0
 10
1.487343
 20
0.264856
 30
0
 11
1.507642
 21
0.279355
 31
0
  0
LINE
  8
0
 10
1.507642
 20
0.279355
 30
0
 11
1.542018
 21
0.312571
 31
0
  0
LINE
  8
0
 10
1.542018
 20
0.312571
 30
0
 11
1.558087
 21
0.338717
 31
0
  0
LINE
  8
0
 10
1.558087
 20
0.338717
 30
0
 11
1.560055
 21
0.360363
 31
0
  0
LINE
  8
0
 10
1.560055
 20
0.360363
 30
0
 11
1.548964
 21
0.388977
 31
0
  0
LINE
  8
0
 10
1.548964
 20
0.388977
 30
0
 11
1.539658
 21
0.405126
 31
0
  0
LINE
  8
0
 10
1.539658
 20
0.405126
 30
0
 11
1.535461
 21
0.413520
 31
0
  0
LINE
  8
0
 10
1.535461
 20
0.413520
 30
0
 11
1.528126
 21
0.430654
 31
0
  0
LINE
  8
0
 10
1.528126
 20
0.430654
 30
0
 11
1.478114
 21
0.427890
 31
0
  0
LINE
  8
0
 10
1.478114
 20
0.427890
 30
0
 11
1.453108
 21
0.426501
 31
0
  0
LINE
  8
0
 10
1.453108
 20
0.426501
 30
0
 11
1.403097
 21
0.423708
 31
0
  0
LINE
  8
0
 10
1.403097
 20
0.423708
 30
0
 11
1.393840
 21
0.465835
 31
0
  0
LINE
  8
0
 10
1.393840
 20
0.465835
 30
0
 11
1.388261
 21
0.486755
 31
0
  0
LINE
  8
0
 10
1.388261
 20
0.486755
 30
0
 11
1.375313
 21
0.527898
 31
0
  0
LINE
  8
0
 10
1.375313
 20
0.527898
 30
0
 11
1.375313
 21
0.594580
 31
0
  0
LINE
  8
0
 10
1.375313
 20
0.594580
 30
0
 11
1.375313
 21
0.627921
 31
0
  0
LINE
  8
0
 10
1.375313
 20
0.627921
 30
0
 11
1.375313
 21
0.694603
 31
0
  0
LINE
  8
0
 10
1.375313
 20
0.694603
 30
0
 11
1.350451
 21
0.770231
 31
0
  0
LINE
  8
0
 10
1.350451
 20
0.770231
 30
0
 11
1.329560
 21
0.807537
 31
0
  0
LINE
  8
0
 10
1.329560
 20
0.807537
 30
0
 11
1.278069
 21
0.868253
 31
0
  0
LINE
  8
0
 10
1.278069
 20
0.868253
 30
0
 11
1.233385
 21
0.909684
 31
0
  0
LINE
  8
0
 10
1.233385
 20
0.909684
 30
0
 11
1.211156
 21
0.930523
 31
0
  0
LINE
  8
0
 10
1.211156
 20
0.930523
 30
0
 11
1.166932
 21
0.972444
 31
0
  0
LINE
  8
0
 10
1.166932
 20
0.972444
 30
0
 11
1.126090
 21
0.978603
 31
0
  0
LINE
  8
0
 10
1.126090
 20
0.978603
 30
0
 11
1.105192
 21
0.986067
 31
0
  0
LINE
  8
0
 10
1.105192
 20
0.986067
 30
0
 11
1.069688
 21
1.007174
 31
0
  0
LINE
  8
0
 10
1.069688
 20
1.007174
 30
0
 11
1.013112
 21
1.016115
 31
0
  0
LINE
  8
0
 10
1.013112
 20
1.016115
 30
0
 11
0.984895
 21
1.023169
 31
0
  0
LINE
  8
0
 10
0.984895
 20
1.023169
 30
0
 11
0.930768
 21
1.041904
 31
0
  0
LINE
  8
0
 10
0.930768
 20
1.041904
 30
0
 11
0.858529
 21
1.041904
 31
0
  0
LINE
  8
0
 10
0.858529
 20
1.041904
 30
0
 11
0.822410
 21
1.041904
 31
0
  0
LINE
  8
0
 10
0.822410
 20
1.041904
 30
0
 11
0.750171
 21
1.041904
 31
0
  0
LINE
  8
0
 10
0.750171
 20
1.041904
 30
0
 11
0.643019
 21
1.017418
 31
0
  0
LINE
  8
0
 10
0.643019
 20
1.017418
 30
0
 11
0.589690
 21
0.997240
 31
0
  0
LINE
  8
0
 10
0.589690
 20
0.997240
 30
0
 11
0.493168
 21
0.944660
 31
0
  0
LINE
  8
0
 10
0.493168
 20
0.944660
 30
0
 11
0.447449
 21
0.913816
 31
0
  0
LINE
  8
0
 10
0.447449
 20
0.913816
 30
0
 11
0.426006
 21
0.895232
 31
0
  0
LINE
  8
0
 10
0.426006
 20
0.895232
 30
0
 11
0.388977
 21
0.854361
 31
0
  0
LINE
  8
0
 10
0.388977
 20
0.854361
 30
0
 11
0.365153
 21
0.799670
 31
0
  0
LINE
  8
0
 10
0.365153
 20
0.799670
 30
0
 11
0.351110
 21
0.772989
 31
0
  0
LINE
  8
0
 10
0.351110
 20
0.772989
 30
0
 11
0.319517
 21
0.722387
 31
0
  0
LINE
  8
0
 10
0.319517
 20
0.722387
 30
0
 11
0.304292
 21
0.628496
 31
0
  0
LINE
  8
0
 10
0.304292
 20
0.628496
 30
0
 11
0.298714
 21
0.581083
 31
0
  0
LINE
  8
0
 10
0.298714
 20
0.581083
 30
0
 11
0.291733
 21
0.486222
 31
0
  0
LINE
  8
0
 10
0.291733
 20
0.486222
 30
0
 11
0.308015
 21
0.406969
 31
0
  0
LINE
  8
0
 10
0.308015
 20
0.406969
 30
0
 11
0.319256
 21
0.367625
 31
0
  0
LINE
  8
0
 10
0.319256
 20
0.367625
 30
0
 11
0.347301
 21
0.291733
 31
0
  0
LINE
  8
0
 10
0.347301
 20
0.291733
 30
0
 11
0.374956
 21
0.233061
 31
0
  0
LINE
  8
0
 10
0.374956
 20
0.233061
 30
0
 11
0.401548
 21
0.204807
 31
0
  0
LINE
  8
0
 10
0.401548
 20
0.204807
 30
0
 11
0.458438
 21
0.173651
 31
0
  0
LINE
  8
0
 10
0.458438
 20
0.173651
 30
0
 11
0.499383
 21
0.158995
 31
0
  0
LINE
  8
0
 10
0.499383
 20
0.158995
 30
0
 11
0.519390
 21
0.148991
 31
0
  0
LINE
  8
0
 10
0.519390
 20
0.148991
 30
0
 11
0.555682
 21
0.125028
 31
0
  0
LINE
  8
0
 10
0.555682
 20
0.125028
 30
0
 11
0.606804
 21
0.128379
 31
0
  0
LINE
  8
0
 10
0.606804
 20
0.128379
 30
0
 11
0.635819
 21
0.121931
 31
0
  0
LINE
  8
0
 10
0.635819
 20
0.121931
 30
0
 11
0.680711
 21
0.097244
 31
0
  0
LINE
  8
0
 10
0.347301
 20
0.430654
 30
0
 11
0.361193
 21
0.430654
 31
0
  0
LINE
  8
0
 10
0.361193
 20
0.430654
 30
0
 11
0.347301
 21
0.430654
 31
0
  0
LINE
  8
0
 10
0.347301
 20
0.430654
 30
0
 11
0.361193
 21
0.430654
 31
0
  0
LINE
  8
0
 10
0.361193
 20
0.430654
 30
0
 11
0.361193
 21
0.375085
 31
0
  0
LINE
  8
0
 10
0.361193
 20
0.375085
 30
0
 11
0.361193
 21
0.430654
 31
0
  0
LINE
  8
0
 10
0.361193
 20
0.430654
 30
0
 11
0.361193
 21
0.375085
 31
0
  0
LINE
  8
0
 10
0.361193
 20
0.375085
 30
0
 11
0.373548
 21
0.373757
 31
0
  0
LINE
  8
0
 10
0.373548
 20
0.373757
 30
0
 11
0.381435
 21
0.357982
 31
0
  0
LINE
  8
0
 10
0.381435
 20
0.357982
 30
0
 11
0.375085
 21
0.347301
 31
0
  0
LINE
  8
0
 10
0.375085
 20
0.347301
 30
0
 11
0.396199
 21
0.293479
 31
0
  0
LINE
  8
0
 10
0.396199
 20
0.293479
 30
0
 11
0.414794
 21
0.267137
 31
0
  0
LINE
  8
0
 10
0.414794
 20
0.267137
 30
0
 11
0.458438
 21
0.229219
 31
0
  0
LINE
  8
0
 10
0.458438
 20
0.229219
 30
0
 11
0.541677
 21
0.185513
 31
0
  0
LINE
  8
0
 10
0.541677
 20
0.185513
 30
0
 11
0.588192
 21
0.169523
 31
0
  0
LINE
  8
0
 10
0.588192
 20
0.169523
 30
0
 11
0.680711
 21
0.152813
 31
0
  0
LINE
  8
0
 10
0.680711
 20
0.152813
 30
0
 11
0.724932
 21
0.158138
 31
0
  0
LINE
  8
0
 10
0.724932
 20
0.158138
 30
0
 11
0.748632
 21
0.156656
 31
0
  0
LINE
  8
0
 10
0.748632
 20
0.156656
 30
0
 11
0.791847
 21
0.145867
 31
0
  0
LINE
  8
0
 10
0.791847
 20
0.145867
 30
0
 11
0.832675
 21
0.128061
 31
0
  0
LINE
  8
0
 10
0.832675
 20
0.128061
 30
0
 11
0.864691
 21
0.130062
 31
0
  0
LINE
  8
0
 10
0.864691
 20
0.130062
 30
0
 11
0.902983
 21
0.152813
 31
0
  0
LINE
  8
0
 10
0.902983
 20
0.152813
 30
0
 11
0.958552
 21
0.152813
 31
0
  0
LINE
  8
0
 10
0.958552
 20
0.152813
 30
0
 11
0.986336
 21
0.152813
 31
0
  0
LINE
  8
0
 10
0.986336
 20
0.152813
 30
0
 11
1.041904
 21
0.152813
 31
0
  0
LINE
  8
0
 10
1.041904
 20
0.152813
 30
0
 11
1.047914
 21
0.169325
 31
0
  0
LINE
  8
0
 10
1.047914
 20
0.169325
 30
0
 11
1.068865
 21
0.176309
 31
0
  0
LINE
  8
0
 10
1.068865
 20
0.176309
 30
0
 11
1.083580
 21
0.166705
 31
0
  0
LINE
  8
0
 10
1.083580
 20
0.166705
 30
0
 11
1.192371
 21
0.187274
 31
0
  0
LINE
  8
0
 10
1.192371
 20
0.187274
 30
0
 11
1.246655
 21
0.204416
 31
0
  0
LINE
  8
0
 10
1.246655
 20
0.204416
 30
0
 11
1.347529
 21
0.250057
 31
0
  0
LINE
  8
0
 10
1.347529
 20
0.250057
 30
0
 11
1.413131
 21
0.274831
 31
0
  0
LINE
  8
0
 10
1.413131
 20
0.274831
 30
0
 11
1.445296
 21
0.296274
 31
0
  0
LINE
  8
0
 10
1.445296
 20
0.296274
 30
0
 11
1.493396
 21
0.347301
 31
0
  0
LINE
  8
0
 10
1.493396
 20
0.347301
 30
0
 11
1.502619
 21
0.358055
 31
0
  0
LINE
  8
0
 10
1.502619
 20
0.358055
 30
0
 11
1.499100
 21
0.375653
 31
0
  0
LINE
  8
0
 10
1.499100
 20
0.375653
 30
0
 11
1.486450
 21
0.382031
 31
0
  0
LINE
  8
0
 10
1.486450
 20
0.382031
 30
0
 11
1.444718
 21
0.373978
 31
0
  0
LINE
  8
0
 10
1.444718
 20
0.373978
 30
0
 11
1.423878
 21
0.369810
 31
0
  0
LINE
  8
0
 10
1.423878
 20
0.369810
 30
0
 11
1.382259
 21
0.361193
 31
0
  0
LINE
  8
0
 10
1.382259
 20
0.361193
 30
0
 11
1.358537
 21
0.391642
 31
0
  0
LINE
  8
0
 10
1.358537
 20
0.391642
 30
0
 11
1.348465
 21
0.408909
 31
0
  0
LINE
  8
0
 10
1.348465
 20
0.408909
 30
0
 11
1.333637
 21
0.444546
 31
0
  0
LINE
  8
0
 10
1.333637
 20
0.444546
 30
0
 11
1.333637
 21
0.516784
 31
0
  0
LINE
  8
0
 10
1.333637
 20
0.516784
 30
0
 11
1.333637
 21
0.552904
 31
0
  0
LINE
  8
0
 10
1.333637
 20
0.552904
 30
0
 11
1.333637
 21
0.625142
 31
0
  0
LINE
  8
0
 10
1.333637
 20
0.625142
 30
0
 11
1.314793
 21
0.666911
 31
0
  0
LINE
  8
0
 10
1.314793
 20
0.666911
 30
0
 11
1.308882
 21
0.690556
 31
0
  0
LINE
  8
0
 10
1.308882
 20
0.690556
 30
0
 11
1.305853
 21
0.736279
 31
0
  0
LINE
  8
0
 10
1.305853
 20
0.736279
 30
0
 11
1.280666
 21
0.796822
 31
0
  0
LINE
  8
0
 10
1.280666
 20
0.796822
 30
0
 11
1.258973
 21
0.826262
 31
0
  0
LINE
  8
0
 10
1.258973
 20
0.826262
 30
0
 11
1.208609
 21
0.868253
 31
0
  0
LINE
  8
0
 10
1.208609
 20
0.868253
 30
0
 11
1.123259
 21
0.930464
 31
0
  0
LINE
  8
0
 10
1.123259
 20
0.930464
 30
0
 11
1.073422
 21
0.955383
 31
0
  0
LINE
  8
0
 10
1.073422
 20
0.955383
 30
0
 11
0.972444
 21
0.986336
 31
0
  0
LINE
  8
0
 10
0.972444
 20
0.986336
 30
0
 11
0.872421
 21
0.986336
 31
0
  0
LINE
  8
0
 10
0.872421
 20
0.986336
 30
0
 11
0.822410
 21
0.986336
 31
0
  0
LINE
  8
0
 10
0.822410
 20
0.986336
 30
0
 11
0.722387
 21
0.986336
 31
0
  0
LINE
  8
0
 10
0.722387
 20
0.986336
 30
0
 11
0.702438
 21
0.966214
 31
0
  0
LINE
  8
0
 10
0.702438
 20
0.966214
 30
0
 11
0.679080
 21
0.961543
 31
0
  0
LINE
  8
0
 10
0.679080
 20
0.961543
 30
0
 11
0.652926
 21
0.972444
 31
0
  0
LINE
  8
0
 10
0.652926
 20
0.972444
 30
0
 11
0.590543
 21
0.936338
 31
0
  0
LINE
  8
0
 10
0.590543
 20
0.936338
 30
0
 11
0.558469
 21
0.919604
 31
0
  0
LINE
  8
0
 10
0.558469
 20
0.919604
 30
0
 11
0.493168
 21
0.889091
 31
0
  0
LINE
  8
0
 10
0.493168
 20
0.889091
 30
0
 11
0.448554
 21
0.853169
 31
0
  0
LINE
  8
0
 10
0.448554
 20
0.853169
 30
0
 11
0.428898
 21
0.828978
 31
0
  0
LINE
  8
0
 10
0.428898
 20
0.828978
 30
0
 11
0.402870
 21
0.777955
 31
0
  0
LINE
  8
0
 10
0.402870
 20
0.777955
 30
0
 11
0.376530
 21
0.712788
 31
0
  0
LINE
  8
0
 10
0.376530
 20
0.712788
 30
0
 11
0.365330
 21
0.679188
 31
0
  0
LINE
  8
0
 10
0.365330
 20
0.679188
 30
0
 11
0.347301
 21
0.611250
 31
0
  0
LINE
  8
0
 10
0.347301
 20
0.611250
 30
0
 11
0.347301
 21
0.539012
 31
0
  0
LINE
  8
0
 10
0.347301
 20
0.539012
 30
0
 11
0.347301
 21
0.502892
 31
0
  0
LINE
  8
0
 10
0.347301
 20
0.502892
 30
0
 11
0.347301
 21
0.430654
 31
0
  0
LINE
  8
0
 10
1.139148
 20
0.388977
 30
0
 11
1.139148
 21
0.416762
 31
0
  0
LINE
  8
0
 10
1.139148
 20
0.416762
 30
0
 11
1.139148
 21
0.388977
 31
0
  0
LINE
  8
0
 10
1.139148
 20
0.388977
 30
0
 11
1.139148
 21
0.416762
 31
0
  0
LINE
  8
0
 10
1.139148
 20
0.416762
 30
0
 11
1.125256
 21
0.416762
 31
0
  0
LINE
  8
0
 10
1.125256
 20
0.416762
 30
0
 11
1.139148
 21
0.416762
 31
0
  0
LINE
  8
0
 10
1.139148
 20
0.416762
 30
0
 11
1.125256
 21
0.416762
 31
0
  0
LINE
  8
0
 10
1.125256
 20
0.416762
 30
0
 11
1.125256
 21
0.422318
 31
0
  0
LINE
  8
0
 10
1.125256
 20
0.422318
 30
0
 11
1.125256
 21
0.425097
 31
0
  0
LINE
  8
0
 10
1.125256
 20
0.425097
 30
0
 11
1.125256
 21
0.430654
 31
0
  0
LINE
  8
0
 10
1.125256
 20
0.430654
 30
0
 11
1.111364
 21
0.430654
 31
0
  0
LINE
  8
0
 10
1.111364
 20
0.430654
 30
0
 11
1.125256
 21
0.430654
 31
0
  0
LINE
  8
0
 10
1.125256
 20
0.430654
 30
0
 11
1.111364
 21
0.430654
 31
0
  0
LINE
  8
0
 10
1.111364
 20
0.430654
 30
0
 11
1.111364
 21
0.416762
 31
0
  0
LINE
  8
0
 10
1.111364
 20
0.416762
 30
0
 11
1.111364
 21
0.430654
 31
0
  0
LINE
  8
0
 10
1.111364
 20
0.430654
 30
0
 11
1.111364
 21
0.416762
 31
0
  0
LINE
  8
0
 10
1.111364
 20
0.416762
 30
0
 11
1.077445
 21
0.406014
 31
0
  0
LINE
  8
0
 10
1.077445
 20
0.406014
 30
0
 11
1.058836
 21
0.382752
 31
0
  0
LINE
  8
0
 10
1.058836
 20
0.382752
 30
0
 11
1.055796
 21
0.347301
 31
0
  0
LINE
  8
0
 10
1.055796
 20
0.347301
 30
0
 11
1.038662
 21
0.339966
 31
0
  0
LINE
  8
0
 10
1.038662
 20
0.339966
 30
0
 11
1.030269
 21
0.335769
 31
0
  0
LINE
  8
0
 10
1.030269
 20
0.335769
 30
0
 11
1.014120
 21
0.326463
 31
0
  0
LINE
  8
0
 10
1.014120
 20
0.326463
 30
0
 11
0.981977
 21
0.305092
 31
0
  0
LINE
  8
0
 10
0.981977
 20
0.305092
 30
0
 11
0.965192
 21
0.295301
 31
0
  0
LINE
  8
0
 10
0.965192
 20
0.295301
 30
0
 11
0.930768
 21
0.277841
 31
0
  0
LINE
  8
0
 10
0.930768
 20
0.277841
 30
0
 11
0.852972
 21
0.277841
 31
0
  0
LINE
  8
0
 10
0.852972
 20
0.277841
 30
0
 11
0.814074
 21
0.277841
 31
0
  0
LINE
  8
0
 10
0.814074
 20
0.277841
 30
0
 11
0.736279
 21
0.277841
 31
0
  0
LINE
  8
0
 10
0.736279
 20
0.277841
 30
0
 11
0.710847
 21
0.295678
 31
0
  0
LINE
  8
0
 10
0.710847
 20
0.295678
 30
0
 11
0.696347
 21
0.302928
 31
0
  0
LINE
  8
0
 10
0.696347
 20
0.302928
 30
0
 11
0.666819
 21
0.312571
 31
0
  0
LINE
  8
0
 10
0.666819
 20
0.312571
 30
0
 11
0.658351
 21
0.329175
 31
0
  0
LINE
  8
0
 10
0.658351
 20
0.329175
 30
0
 11
0.643506
 21
0.336597
 31
0
  0
LINE
  8
0
 10
0.643506
 20
0.336597
 30
0
 11
0.625142
 21
0.333409
 31
0
  0
LINE
  8
0
 10
0.625142
 20
0.333409
 30
0
 11
0.605395
 21
0.368277
 31
0
  0
LINE
  8
0
 10
0.605395
 20
0.368277
 30
0
 11
0.594164
 21
0.385123
 31
0
  0
LINE
  8
0
 10
0.594164
 20
0.385123
 30
0
 11
0.569574
 21
0.416762
 31
0
  0
LINE
  8
0
 10
0.569574
 20
0.416762
 30
0
 11
0.527898
 21
0.416762
 31
0
  0
LINE
  8
0
 10
0.527898
 20
0.416762
 30
0
 11
0.569574
 21
0.416762
 31
0
  0
LINE
  8
0
 10
0.569574
 20
0.416762
 30
0
 11
0.527898
 21
0.416762
 31
0
  0
LINE
  8
0
 10
0.527898
 20
0.416762
 30
0
 11
0.527898
 21
0.388977
 31
0
  0
LINE
  8
0
 10
0.527898
 20
0.388977
 30
0
 11
0.527898
 21
0.416762
 31
0
  0
LINE
  8
0
 10
0.527898
 20
0.416762
 30
0
 11
0.527898
 21
0.388977
 31
0
  0
LINE
  8
0
 10
0.527898
 20
0.388977
 30
0
 11
0.556156
 21
0.348375
 31
0
  0
LINE
  8
0
 10
0.556156
 20
0.348375
 30
0
 11
0.571540
 21
0.328795
 31
0
  0
LINE
  8
0
 10
0.571540
 20
0.328795
 30
0
 11
0.604304
 21
0.291733
 31
0
  0
LINE
  8
0
 10
0.604304
 20
0.291733
 30
0
 11
0.633293
 21
0.283807
 31
0
  0
LINE
  8
0
 10
0.633293
 20
0.283807
 30
0
 11
0.648352
 21
0.273768
 31
0
  0
LINE
  8
0
 10
0.648352
 20
0.273768
 30
0
 11
0.666819
 21
0.250057
 31
0
  0
LINE
  8
0
 10
0.666819
 20
0.250057
 30
0
 11
0.707248
 21
0.251469
 31
0
  0
LINE
  8
0
 10
0.707248
 20
0.251469
 30
0
 11
0.730482
 21
0.244831
 31
0
  0
LINE
  8
0
 10
0.730482
 20
0.244831
 30
0
 11
0.764063
 21
0.222273
 31
0
  0
LINE
  8
0
 10
0.764063
 20
0.222273
 30
0
 11
0.819631
 21
0.222273
 31
0
  0
LINE
  8
0
 10
0.819631
 20
0.222273
 30
0
 11
0.847415
 21
0.222273
 31
0
  0
LINE
  8
0
 10
0.847415
 20
0.222273
 30
0
 11
0.902983
 21
0.222273
 31
0
  0
LINE
  8
0
 10
0.902983
 20
0.222273
 30
0
 11
0.980482
 21
0.245010
 31
0
  0
LINE
  8
0
 10
0.980482
 20
0.245010
 30
0
 11
1.018891
 21
0.264215
 31
0
  0
LINE
  8
0
 10
1.018891
 20
0.264215
 30
0
 11
1.083580
 21
0.312571
 31
0
  0
LINE
  8
0
 10
1.083580
 20
0.312571
 30
0
 11
1.101039
 21
0.346087
 31
0
  0
LINE
  8
0
 10
1.101039
 20
0.346087
 30
0
 11
1.112642
 21
0.362042
 31
0
  0
LINE
  8
0
 10
1.112642
 20
0.362042
 30
0
 11
1.139148
 21
0.388977
 31
0
  0
LINE
  8
0
 10
0.430654
 20
0.416762
 30
0
 11
0.555682
 21
0.416762
 31
0
  0
LINE
  8
0
 10
0.555682
 20
0.416762
 30
0
 11
0.430654
 21
0.416762
 31
0
  0
LINE
  8
0
 10
0.430654
 20
0.416762
 30
0
 11
0.555682
 21
0.416762
 31
0
  0
LINE
  8
0
 10
0.555682
 20
0.416762
 30
0
 11
0.555682
 21
0.444546
 31
0
  0
LINE
  8
0
 10
0.555682
 20
0.444546
 30
0
 11
0.555682
 21
0.416762
 31
0
  0
LINE
  8
0
 10
0.555682
 20
0.416762
 30
0
 11
0.555682
 21
0.444546
 31
0
  0
LINE
  8
0
 10
0.555682
 20
0.444546
 30
0
 11
0.572195
 21
0.450555
 31
0
  0
LINE
  8
0
 10
0.572195
 20
0.450555
 30
0
 11
0.579178
 21
0.471507
 31
0
  0
LINE
  8
0
 10
0.579178
 20
0.471507
 30
0
 11
0.569574
 21
0.486222
 31
0
  0
LINE
  8
0
 10
0.569574
 20
0.486222
 30
0
 11
0.564017
 21
0.486222
 31
0
  0
LINE
  8
0
 10
0.564017
 20
0.486222
 30
0
 11
0.561239
 21
0.486222
 31
0
  0
LINE
  8
0
 10
0.561239
 20
0.486222
 30
0
 11
0.555682
 21
0.486222
 31
0
  0
LINE
  8
0
 10
0.555682
 20
0.486222
 30
0
 11
0.555682
 21
0.500114
 31
0
  0
LINE
  8
0
 10
0.555682
 20
0.500114
 30
0
 11
0.555682
 21
0.486222
 31
0
  0
LINE
  8
0
 10
0.555682
 20
0.486222
 30
0
 11
0.555682
 21
0.500114
 31
0
  0
LINE
  8
0
 10
0.555682
 20
0.500114
 30
0
 11
0.541790
 21
0.500114
 31
0
  0
LINE
  8
0
 10
0.541790
 20
0.500114
 30
0
 11
0.555682
 21
0.500114
 31
0
  0
LINE
  8
0
 10
0.555682
 20
0.500114
 30
0
 11
0.541790
 21
0.500114
 31
0
  0
LINE
  8
0
 10
0.541790
 20
0.500114
 30
0
 11
0.541790
 21
0.505671
 31
0
  0
LINE
  8
0
 10
0.541790
 20
0.505671
 30
0
 11
0.541790
 21
0.508449
 31
0
  0
LINE
  8
0
 10
0.541790
 20
0.508449
 30
0
 11
0.541790
 21
0.514006
 31
0
  0
LINE
  8
0
 10
0.541790
 20
0.514006
 30
0
 11
0.500114
 21
0.514006
 31
0
  0
LINE
  8
0
 10
0.500114
 20
0.514006
 30
0
 11
0.541790
 21
0.514006
 31
0
  0
LINE
  8
0
 10
0.541790
 20
0.514006
 30
0
 11
0.500114
 21
0.514006
 31
0
  0
LINE
  8
0
 10
0.500114
 20
0.514006
 30
0
 11
0.500114
 21
0.502892
 31
0
  0
LINE
  8
0
 10
0.500114
 20
0.502892
 30
0
 11
0.500114
 21
0.497336
 31
0
  0
LINE
  8
0
 10
0.500114
 20
0.497336
 30
0
 11
0.500114
 21
0.486222
 31
0
  0
LINE
  8
0
 10
0.500114
 20
0.486222
 30
0
 11
0.444446
 21
0.490670
 31
0
  0
LINE
  8
0
 10
0.444446
 20
0.490670
 30
0
 11
0.414878
 21
0.487713
 31
0
  0
LINE
  8
0
 10
0.414878
 20
0.487713
 30
0
 11
0.361193
 21
0.472330
 31
0
  0
LINE
  8
0
 10
0.361193
 20
0.472330
 30
0
 11
0.360349
 21
0.466175
 31
0
  0
LINE
  8
0
 10
0.360349
 20
0.466175
 30
0
 11
0.362709
 21
0.461455
 31
0
  0
LINE
  8
0
 10
0.362709
 20
0.461455
 30
0
 11
0.368139
 21
0.458438
 31
0
  0
LINE
  8
0
 10
0.368139
 20
0.458438
 30
0
 11
0.371163
 21
0.453010
 31
0
  0
LINE
  8
0
 10
0.371163
 20
0.453010
 30
0
 11
0.367349
 21
0.445384
 31
0
  0
LINE
  8
0
 10
0.367349
 20
0.445384
 30
0
 11
0.361193
 21
0.444546
 31
0
  0
LINE
  8
0
 10
0.361193
 20
0.444546
 30
0
 11
0.361193
 21
0.430654
 31
0
  0
LINE
  8
0
 10
0.361193
 20
0.430654
 30
0
 11
0.361193
 21
0.444546
 31
0
  0
LINE
  8
0
 10
0.361193
 20
0.444546
 30
0
 11
0.361193
 21
0.430654
 31
0
  0
LINE
  8
0
 10
0.361193
 20
0.430654
 30
0
 11
0.430654
 21
0.430654
 31
0
  0
LINE
  8
0
 10
0.430654
 20
0.430654
 30
0
 11
0.361193
 21
0.430654
 31
0
  0
LINE
  8
0
 10
0.361193
 20
0.430654
 30
0
 11
0.430654
 21
0.430654
 31
0
  0
LINE
  8
0
 10
0.430654
 20
0.430654
 30
0
 11
0.430654
 21
0.425097
 31
0
  0
LINE
  8
0
 10
0.430654
 20
0.425097
 30
0
 11
0.430654
 21
0.422318
 31
0
  0
LINE
  8
0
 10
0.430654
 20
0.422318
 30
0
 11
0.430654
 21
0.416762
 31
0
  0
LINE
  8
0
 10
0.541790
 20
0.500114
 30
0
 11
0.680711
 21
0.500114
 31
0
  0
LINE
  8
0
 10
0.680711
 20
0.500114
 30
0
 11
0.541790
 21
0.500114
 31
0
  0
LINE
  8
0
 10
0.541790
 20
0.500114
 30
0
 11
0.680711
 21
0.500114
 31
0
  0
LINE
  8
0
 10
0.680711
 20
0.500114
 30
0
 11
0.719916
 21
0.535900
 31
0
  0
LINE
  8
0
 10
0.719916
 20
0.535900
 30
0
 11
0.739367
 21
0.553962
 31
0
  0
LINE
  8
0
 10
0.739367
 20
0.553962
 30
0
 11
0.777955
 21
0.590412
 31
0
  0
LINE
  8
0
 10
0.777955
 20
0.590412
 30
0
 11
0.791303
 21
0.641788
 31
0
  0
LINE
  8
0
 10
0.791303
 20
0.641788
 30
0
 11
0.794205
 21
0.669358
 31
0
  0
LINE
  8
0
 10
0.794205
 20
0.669358
 30
0
 11
0.791847
 21
0.722387
 31
0
  0
LINE
  8
0
 10
0.791847
 20
0.722387
 30
0
 11
0.777955
 21
0.750171
 31
0
  0
LINE
  8
0
 10
0.777955
 20
0.750171
 30
0
 11
0.771009
 21
0.764063
 31
0
  0
LINE
  8
0
 10
0.771009
 20
0.764063
 30
0
 11
0.757117
 21
0.791847
 31
0
  0
LINE
  8
0
 10
0.757117
 20
0.791847
 30
0
 11
0.722760
 21
0.828295
 31
0
  0
LINE
  8
0
 10
0.722760
 20
0.828295
 30
0
 11
0.699785
 21
0.843612
 31
0
  0
LINE
  8
0
 10
0.699785
 20
0.843612
 30
0
 11
0.652926
 21
0.861307
 31
0
  0
LINE
  8
0
 10
0.652926
 20
0.861307
 30
0
 11
0.602915
 21
0.861307
 31
0
  0
LINE
  8
0
 10
0.602915
 20
0.861307
 30
0
 11
0.577909
 21
0.861307
 31
0
  0
LINE
  8
0
 10
0.577909
 20
0.861307
 30
0
 11
0.527898
 21
0.861307
 31
0
  0
LINE
  8
0
 10
0.527898
 20
0.861307
 30
0
 11
0.500204
 21
0.836202
 31
0
  0
LINE
  8
0
 10
0.500204
 20
0.836202
 30
0
 11
0.486312
 21
0.823699
 31
0
  0
LINE
  8
0
 10
0.486312
 20
0.823699
 30
0
 11
0.458438
 21
0.798793
 31
0
  0
LINE
  8
0
 10
0.458438
 20
0.798793
 30
0
 11
0.436774
 21
0.766726
 31
0
  0
LINE
  8
0
 10
0.436774
 20
0.766726
 30
0
 11
0.429116
 21
0.746814
 31
0
  0
LINE
  8
0
 10
0.429116
 20
0.746814
 30
0
 11
0.423708
 21
0.708495
 31
0
  0
LINE
  8
0
 10
0.423708
 20
0.708495
 30
0
 11
0.414523
 21
0.664911
 31
0
  0
LINE
  8
0
 10
0.414523
 20
0.664911
 30
0
 11
0.416114
 21
0.639460
 31
0
  0
LINE
  8
0
 10
0.416114
 20
0.639460
 30
0
 11
0.430654
 21
0.597358
 31
0
  0
LINE
  8
0
 10
0.430654
 20
0.597358
 30
0
 11
0.451451
 21
0.591164
 31
0
  0
LINE
  8
0
 10
0.451451
 20
0.591164
 30
0
 11
0.463041
 21
0.577255
 31
0
  0
LINE
  8
0
 10
0.463041
 20
0.577255
 30
0
 11
0.465384
 21
0.555682
 31
0
  0
LINE
  8
0
 10
0.465384
 20
0.555682
 30
0
 11
0.474924
 21
0.535415
 31
0
  0
LINE
  8
0
 10
0.474924
 20
0.535415
 30
0
 11
0.491702
 21
0.525828
 31
0
  0
LINE
  8
0
 10
0.491702
 20
0.525828
 30
0
 11
0.514006
 21
0.527898
 31
0
  0
LINE
  8
0
 10
0.514006
 20
0.527898
 30
0
 11
0.514006
 21
0.514006
 31
0
  0
LINE
  8
0
 10
0.514006
 20
0.514006
 30
0
 11
0.514006
 21
0.527898
 31
0
  0
LINE
  8
0
 10
0.514006
 20
0.527898
 30
0
 11
0.514006
 21
0.514006
 31
0
  0
LINE
  8
0
 10
0.514006
 20
0.514006
 30
0
 11
0.541790
 21
0.514006
 31
0
  0
LINE
  8
0
 10
0.541790
 20
0.514006
 30
0
 11
0.514006
 21
0.514006
 31
0
  0
LINE
  8
0
 10
0.514006
 20
0.514006
 30
0
 11
0.541790
 21
0.514006
 31
0
  0
LINE
  8
0
 10
0.541790
 20
0.514006
 30
0
 11
0.541790
 21
0.508449
 31
0
  0
LINE
  8
0
 10
0.541790
 20
0.508449
 30
0
 11
0.541790
 21
0.505671
 31
0
  0
LINE
  8
0
 10
0.541790
 20
0.505671
 30
0
 11
0.541790
 21
0.500114
 31
0
  0
LINE
  8
0
 10
0.604304
 20
0.541790
 30
0
 11
0.626737
 21
0.555348
 31
0
  0
LINE
  8
0
 10
0.626737
 20
0.555348
 30
0
 11
0.636677
 21
0.571253
 31
0
  0
LINE
  8
0
 10
0.636677
 20
0.571253
 30
0
 11
0.639034
 21
0.597358
 31
0
  0
LINE
  8
0
 10
0.639034
 20
0.597358
 30
0
 11
0.624585
 21
0.614475
 31
0
  0
LINE
  8
0
 10
0.624585
 20
0.614475
 30
0
 11
0.601685
 21
0.617337
 31
0
  0
LINE
  8
0
 10
0.601685
 20
0.617337
 30
0
 11
0.583466
 21
0.604304
 31
0
  0
LINE
  8
0
 10
0.583466
 20
0.604304
 30
0
 11
0.570816
 21
0.597925
 31
0
  0
LINE
  8
0
 10
0.570816
 20
0.597925
 30
0
 11
0.567297
 21
0.580328
 31
0
  0
LINE
  8
0
 10
0.567297
 20
0.580328
 30
0
 11
0.576520
 21
0.569574
 31
0
  0
LINE
  8
0
 10
0.576520
 20
0.569574
 30
0
 11
0.587634
 21
0.558461
 31
0
  0
LINE
  8
0
 10
0.587634
 20
0.558461
 30
0
 11
0.593191
 21
0.552904
 31
0
  0
LINE
  8
0
 10
0.593191
 20
0.552904
 30
0
 11
0.604304
 21
0.541790
 31
0
  0
LINE
  8
0
 10
0.680711
 20
0.597358
 30
0
 11
0.703193
 21
0.592946
 31
0
  0
LINE
  8
0
 10
0.703193
 20
0.592946
 30
0
 11
0.718518
 21
0.596777
 31
0
  0
LINE
  8
0
 10
0.718518
 20
0.596777
 30
0
 11
0.736279
 21
0.611250
 31
0
  0
LINE
  8
0
 10
0.736279
 20
0.611250
 30
0
 11
0.742518
 21
0.636095
 31
0
  0
LINE
  8
0
 10
0.742518
 20
0.636095
 30
0
 11
0.738561
 21
0.653901
 31
0
  0
LINE
  8
0
 10
0.738561
 20
0.653901
 30
0
 11
0.722387
 21
0.673765
 31
0
  0
LINE
  8
0
 10
0.722387
 20
0.673765
 30
0
 11
0.716938
 21
0.690471
 31
0
  0
LINE
  8
0
 10
0.716938
 20
0.690471
 30
0
 11
0.695093
 21
0.697752
 31
0
  0
LINE
  8
0
 10
0.695093
 20
0.697752
 30
0
 11
0.680711
 21
0.687657
 31
0
  0
LINE
  8
0
 10
0.680711
 20
0.687657
 30
0
 11
0.669597
 21
0.676543
 31
0
  0
LINE
  8
0
 10
0.669597
 20
0.676543
 30
0
 11
0.664040
 21
0.670986
 31
0
  0
LINE
  8
0
 10
0.664040
 20
0.670986
 30
0
 11
0.652926
 21
0.659873
 31
0
  0
LINE
  8
0
 10
0.652926
 20
0.659873
 30
0
 11
0.652926
 21
0.640424
 31
0
  0
LINE
  8
0
 10
0.652926
 20
0.640424
 30
0
 11
0.652926
 21
0.630699
 31
0
  0
LINE
  8
0
 10
0.652926
 20
0.630699
 30
0
 11
0.652926
 21
0.611250
 31
0
  0
LINE
  8
0
 10
0.652926
 20
0.611250
 30
0
 11
0.663607
 21
0.617600
 31
0
  0
LINE
  8
0
 10
0.663607
 20
0.617600
 30
0
 11
0.679382
 21
0.609712
 31
0
  0
LINE
  8
0
 10
0.679382
 20
0.609712
 30
0
 11
0.680711
 21
0.597358
 31
0
  0
LINE
  8
0
 10
0.548736
 20
0.639034
 30
0
 11
0.589285
 21
0.655938
 31
0
  0
LINE
  8
0
 10
0.589285
 20
0.655938
 30
0
 11
0.608940
 21
0.669545
 31
0
  0
LINE
  8
0
 10
0.608940
 20
0.669545
 30
0
 11
0.639034
 21
0.701549
 31
0
  0
LINE
  8
0
 10
0.639034
 20
0.701549
 30
0
 11
0.639954
 21
0.738081
 31
0
  0
LINE
  8
0
 10
0.639954
 20
0.738081
 30
0
 11
0.637000
 21
0.757280
 31
0
  0
LINE
  8
0
 10
0.637000
 20
0.757280
 30
0
 11
0.625142
 21
0.791847
 31
0
  0
LINE
  8
0
 10
0.625142
 20
0.791847
 30
0
 11
0.600369
 21
0.806938
 31
0
  0
LINE
  8
0
 10
0.600369
 20
0.806938
 30
0
 11
0.584671
 21
0.811647
 31
0
  0
LINE
  8
0
 10
0.584671
 20
0.811647
 30
0
 11
0.555682
 21
0.812685
 31
0
  0
LINE
  8
0
 10
0.555682
 20
0.812685
 30
0
 11
0.524197
 21
0.805035
 31
0
  0
LINE
  8
0
 10
0.524197
 20
0.805035
 30
0
 11
0.507789
 21
0.795190
 31
0
  0
LINE
  8
0
 10
0.507789
 20
0.795190
 30
0
 11
0.486222
 21
0.771009
 31
0
  0
LINE
  8
0
 10
0.486222
 20
0.771009
 30
0
 11
0.470242
 21
0.744809
 31
0
  0
LINE
  8
0
 10
0.470242
 20
0.744809
 30
0
 11
0.468283
 21
0.723255
 31
0
  0
LINE
  8
0
 10
0.468283
 20
0.723255
 30
0
 11
0.479276
 21
0.694603
 31
0
  0
LINE
  8
0
 10
0.479276
 20
0.694603
 30
0
 11
0.504520
 21
0.669528
 31
0
  0
LINE
  8
0
 10
0.504520
 20
0.669528
 30
0
 11
0.518732
 21
0.658159
 31
0
  0
LINE
  8
0
 10
0.518732
 20
0.658159
 30
0
 11
0.548736
 21
0.639034
 31
0
  0
LINE
  8
0
 10
1.125256
 20
0.416762
 30
0
 11
1.250285
 21
0.416762
 31
0
  0
LINE
  8
0
 10
1.250285
 20
0.416762
 30
0
 11
1.125256
 21
0.416762
 31
0
  0
LINE
  8
0
 10
1.125256
 20
0.416762
 30
0
 11
1.250285
 21
0.416762
 31
0
  0
LINE
  8
0
 10
1.250285
 20
0.416762
 30
0
 11
1.267836
 21
0.430680
 31
0
  0
LINE
  8
0
 10
1.267836
 20
0.430680
 30
0
 11
1.278005
 21
0.436491
 31
0
  0
LINE
  8
0
 10
1.278005
 20
0.436491
 30
0
 11
1.298907
 21
0.444546
 31
0
  0
LINE
  8
0
 10
1.298907
 20
0.444546
 30
0
 11
1.304158
 21
0.455807
 31
0
  0
LINE
  8
0
 10
1.304158
 20
0.455807
 30
0
 11
1.297175
 21
0.469774
 31
0
  0
LINE
  8
0
 10
1.297175
 20
0.469774
 30
0
 11
1.285015
 21
0.472330
 31
0
  0
LINE
  8
0
 10
1.285015
 20
0.472330
 30
0
 11
1.247084
 21
0.490470
 31
0
  0
LINE
  8
0
 10
1.247084
 20
0.490470
 30
0
 11
1.222183
 21
0.493790
 31
0
  0
LINE
  8
0
 10
1.222183
 20
0.493790
 30
0
 11
1.180825
 21
0.486222
 31
0
  0
LINE
  8
0
 10
1.180825
 20
0.486222
 30
0
 11
1.180825
 21
0.497336
 31
0
  0
LINE
  8
0
 10
1.180825
 20
0.497336
 30
0
 11
1.180825
 21
0.502892
 31
0
  0
LINE
  8
0
 10
1.180825
 20
0.502892
 30
0
 11
1.180825
 21
0.514006
 31
0
  0
LINE
  8
0
 10
1.180825
 20
0.514006
 30
0
 11
1.139148
 21
0.514006
 31
0
  0
LINE
  8
0
 10
1.139148
 20
0.514006
 30
0
 11
1.180825
 21
0.514006
 31
0
  0
LINE
  8
0
 10
1.180825
 20
0.514006
 30
0
 11
1.139148
 21
0.514006
 31
0
  0
LINE
  8
0
 10
1.139148
 20
0.514006
 30
0
 11
1.139148
 21
0.508449
 31
0
  0
LINE
  8
0
 10
1.139148
 20
0.508449
 30
0
 11
1.139148
 21
0.505671
 31
0
  0
LINE
  8
0
 10
1.139148
 20
0.505671
 30
0
 11
1.139148
 21
0.500114
 31
0
  0
LINE
  8
0
 10
1.139148
 20
0.500114
 30
0
 11
1.125256
 21
0.500114
 31
0
  0
LINE
  8
0
 10
1.125256
 20
0.500114
 30
0
 11
1.139148
 21
0.500114
 31
0
  0
LINE
  8
0
 10
1.139148
 20
0.500114
 30
0
 11
1.125256
 21
0.500114
 31
0
  0
LINE
  8
0
 10
1.125256
 20
0.500114
 30
0
 11
1.125256
 21
0.472330
 31
0
  0
LINE
  8
0
 10
1.125256
 20
0.472330
 30
0
 11
1.125256
 21
0.500114
 31
0
  0
LINE
  8
0
 10
1.125256
 20
0.500114
 30
0
 11
1.125256
 21
0.472330
 31
0
  0
LINE
  8
0
 10
1.125256
 20
0.472330
 30
0
 11
1.119699
 21
0.472330
 31
0
  0
LINE
  8
0
 10
1.119699
 20
0.472330
 30
0
 11
1.116921
 21
0.472330
 31
0
  0
LINE
  8
0
 10
1.116921
 20
0.472330
 30
0
 11
1.111364
 21
0.472330
 31
0
  0
LINE
  8
0
 10
1.111364
 20
0.472330
 30
0
 11
1.111364
 21
0.430654
 31
0
  0
LINE
  8
0
 10
1.111364
 20
0.430654
 30
0
 11
1.111364
 21
0.472330
 31
0
  0
LINE
  8
0
 10
1.111364
 20
0.472330
 30
0
 11
1.111364
 21
0.430654
 31
0
  0
LINE
  8
0
 10
1.111364
 20
0.430654
 30
0
 11
1.125256
 21
0.430654
 31
0
  0
LINE
  8
0
 10
1.125256
 20
0.430654
 30
0
 11
1.111364
 21
0.430654
 31
0
  0
LINE
  8
0
 10
1.111364
 20
0.430654
 30
0
 11
1.125256
 21
0.430654
 31
0
  0
LINE
  8
0
 10
1.125256
 20
0.430654
 30
0
 11
1.125256
 21
0.425097
 31
0
  0
LINE
  8
0
 10
1.125256
 20
0.425097
 30
0
 11
1.125256
 21
0.422318
 31
0
  0
LINE
  8
0
 10
1.125256
 20
0.422318
 30
0
 11
1.125256
 21
0.416762
 31
0
  0
LINE
  8
0
 10
1.000228
 20
0.500114
 30
0
 11
1.139148
 21
0.500114
 31
0
  0
LINE
  8
0
 10
1.139148
 20
0.500114
 30
0
 11
1.000228
 21
0.500114
 31
0
  0
LINE
  8
0
 10
1.000228
 20
0.500114
 30
0
 11
1.139148
 21
0.500114
 31
0
  0
LINE
  8
0
 10
1.139148
 20
0.500114
 30
0
 11
1.139148
 21
0.505671
 31
0
  0
LINE
  8
0
 10
1.139148
 20
0.505671
 30
0
 11
1.139148
 21
0.508449
 31
0
  0
LINE
  8
0
 10
1.139148
 20
0.508449
 30
0
 11
1.139148
 21
0.514006
 31
0
  0
LINE
  8
0
 10
1.139148
 20
0.514006
 30
0
 11
1.166932
 21
0.514006
 31
0
  0
LINE
  8
0
 10
1.166932
 20
0.514006
 30
0
 11
1.139148
 21
0.514006
 31
0
  0
LINE
  8
0
 10
1.139148
 20
0.514006
 30
0
 11
1.166932
 21
0.514006
 31
0
  0
LINE
  8
0
 10
1.166932
 20
0.514006
 30
0
 11
1.166932
 21
0.527898
 31
0
  0
LINE
  8
0
 10
1.166932
 20
0.527898
 30
0
 11
1.166932
 21
0.514006
 31
0
  0
LINE
  8
0
 10
1.166932
 20
0.514006
 30
0
 11
1.166932
 21
0.527898
 31
0
  0
LINE
  8
0
 10
1.166932
 20
0.527898
 30
0
 11
1.204848
 21
0.555927
 31
0
  0
LINE
  8
0
 10
1.204848
 20
0.555927
 30
0
 11
1.222256
 21
0.573335
 31
0
  0
LINE
  8
0
 10
1.222256
 20
0.573335
 30
0
 11
1.250285
 21
0.611250
 31
0
  0
LINE
  8
0
 10
1.250285
 20
0.611250
 30
0
 11
1.250285
 21
0.666819
 31
0
  0
LINE
  8
0
 10
1.250285
 20
0.666819
 30
0
 11
1.250285
 21
0.694603
 31
0
  0
LINE
  8
0
 10
1.250285
 20
0.694603
 30
0
 11
1.250285
 21
0.750171
 31
0
  0
LINE
  8
0
 10
1.250285
 20
0.750171
 30
0
 11
1.208619
 21
0.797250
 31
0
  0
LINE
  8
0
 10
1.208619
 20
0.797250
 30
0
 11
1.186227
 21
0.819642
 31
0
  0
LINE
  8
0
 10
1.186227
 20
0.819642
 30
0
 11
1.139148
 21
0.861307
 31
0
  0
LINE
  8
0
 10
1.139148
 20
0.861307
 30
0
 11
1.078023
 21
0.861307
 31
0
  0
LINE
  8
0
 10
1.078023
 20
0.861307
 30
0
 11
1.047461
 21
0.861307
 31
0
  0
LINE
  8
0
 10
1.047461
 20
0.861307
 30
0
 11
0.986336
 21
0.861307
 31
0
  0
LINE
  8
0
 10
0.986336
 20
0.861307
 30
0
 11
0.945249
 21
0.824730
 31
0
  0
LINE
  8
0
 10
0.945249
 20
0.824730
 30
0
 11
0.925669
 21
0.805150
 31
0
  0
LINE
  8
0
 10
0.925669
 20
0.805150
 30
0
 11
0.889091
 21
0.764063
 31
0
  0
LINE
  8
0
 10
0.889091
 20
0.764063
 30
0
 11
0.889091
 21
0.702938
 31
0
  0
LINE
  8
0
 10
0.889091
 20
0.702938
 30
0
 11
0.889091
 21
0.672375
 31
0
  0
LINE
  8
0
 10
0.889091
 20
0.672375
 30
0
 11
0.889091
 21
0.611250
 31
0
  0
LINE
  8
0
 10
0.889091
 20
0.611250
 30
0
 11
0.930757
 21
0.564172
 31
0
  0
LINE
  8
0
 10
0.930757
 20
0.564172
 30
0
 11
0.953149
 21
0.541779
 31
0
  0
LINE
  8
0
 10
0.953149
 20
0.541779
 30
0
 11
1.000228
 21
0.500114
 31
0
  0
LINE
  8
0
 10
1.062742
 20
0.541790
 30
0
 11
1.085174
 21
0.555348
 31
0
  0
LINE
  8
0
 10
1.085174
 20
0.555348
 30
0
 11
1.095115
 21
0.571253
 31
0
  0
LINE
  8
0
 10
1.095115
 20
0.571253
 30
0
 11
1.097472
 21
0.597358
 31
0
  0
LINE
  8
0
 10
1.097472
 20
0.597358
 30
0
 11
1.087578
 21
0.611060
 31
0
  0
LINE
  8
0
 10
1.087578
 20
0.611060
 30
0
 11
1.069599
 21
0.614056
 31
0
  0
LINE
  8
0
 10
1.069599
 20
0.614056
 30
0
 11
1.055796
 21
0.604304
 31
0
  0
LINE
  8
0
 10
1.055796
 20
0.604304
 30
0
 11
1.038561
 21
0.594873
 31
0
  0
LINE
  8
0
 10
1.038561
 20
0.594873
 30
0
 11
1.034945
 21
0.569562
 31
0
  0
LINE
  8
0
 10
1.034945
 20
0.569562
 30
0
 11
1.048850
 21
0.555682
 31
0
  0
LINE
  8
0
 10
1.048850
 20
0.555682
 30
0
 11
1.054407
 21
0.550125
 31
0
  0
LINE
  8
0
 10
1.054407
 20
0.550125
 30
0
 11
1.057185
 21
0.547347
 31
0
  0
LINE
  8
0
 10
1.057185
 20
0.547347
 30
0
 11
1.062742
 21
0.541790
 31
0
  0
LINE
  8
0
 10
1.146094
 20
0.597358
 30
0
 11
1.166058
 21
0.594103
 31
0
  0
LINE
  8
0
 10
1.166058
 20
0.594103
 30
0
 11
1.179486
 21
0.597939
 31
0
  0
LINE
  8
0
 10
1.179486
 20
0.597939
 30
0
 11
1.194717
 21
0.611250
 31
0
  0
LINE
  8
0
 10
1.194717
 20
0.611250
 30
0
 11
1.198258
 21
0.627775
 31
0
  0
LINE
  8
0
 10
1.198258
 20
0.627775
 30
0
 11
1.199653
 21
0.636146
 31
0
  0
LINE
  8
0
 10
1.199653
 20
0.636146
 30
0
 11
1.201663
 21
0.652926
 31
0
  0
LINE
  8
0
 10
1.201663
 20
0.652926
 30
0
 11
1.192831
 21
0.660223
 31
0
  0
LINE
  8
0
 10
1.192831
 20
0.660223
 30
0
 11
1.190358
 21
0.670117
 31
0
  0
LINE
  8
0
 10
1.190358
 20
0.670117
 30
0
 11
1.194717
 21
0.680711
 31
0
  0
LINE
  8
0
 10
1.194717
 20
0.680711
 30
0
 11
1.178191
 21
0.684252
 31
0
  0
LINE
  8
0
 10
1.178191
 20
0.684252
 30
0
 11
1.169821
 21
0.685647
 31
0
  0
LINE
  8
0
 10
1.169821
 20
0.685647
 30
0
 11
1.153040
 21
0.687657
 31
0
  0
LINE
  8
0
 10
1.153040
 20
0.687657
 30
0
 11
1.145744
 21
0.678825
 31
0
  0
LINE
  8
0
 10
1.145744
 20
0.678825
 30
0
 11
1.135850
 21
0.676352
 31
0
  0
LINE
  8
0
 10
1.135850
 20
0.676352
 30
0
 11
1.125256
 21
0.680711
 31
0
  0
LINE
  8
0
 10
1.125256
 20
0.680711
 30
0
 11
1.115792
 21
0.660408
 31
0
  0
LINE
  8
0
 10
1.115792
 20
0.660408
 30
0
 11
1.114134
 21
0.647150
 31
0
  0
LINE
  8
0
 10
1.114134
 20
0.647150
 30
0
 11
1.118310
 21
0.625142
 31
0
  0
LINE
  8
0
 10
1.118310
 20
0.625142
 30
0
 11
1.129424
 21
0.614029
 31
0
  0
LINE
  8
0
 10
1.129424
 20
0.614029
 30
0
 11
1.134981
 21
0.608472
 31
0
  0
LINE
  8
0
 10
1.134981
 20
0.608472
 30
0
 11
1.146094
 21
0.597358
 31
0
  0
LINE
  8
0
 10
1.014120
 20
0.639034
 30
0
 11
1.052449
 21
0.655398
 31
0
  0
LINE
  8
0
 10
1.052449
 20
0.655398
 30
0
 11
1.071031
 21
0.669334
 31
0
  0
LINE
  8
0
 10
1.071031
 20
0.669334
 30
0
 11
1.097472
 21
0.701549
 31
0
  0
LINE
  8
0
 10
1.097472
 20
0.701549
 30
0
 11
1.102497
 21
0.714795
 31
0
  0
LINE
  8
0
 10
1.102497
 20
0.714795
 30
0
 11
1.103962
 21
0.722119
 31
0
  0
LINE
  8
0
 10
1.103962
 20
0.722119
 30
0
 11
1.104418
 21
0.736279
 31
0
  0
LINE
  8
0
 10
1.104418
 20
0.736279
 30
0
 11
1.098097
 21
0.764177
 31
0
  0
LINE
  8
0
 10
1.098097
 20
0.764177
 30
0
 11
1.090036
 21
0.778687
 31
0
  0
LINE
  8
0
 10
1.090036
 20
0.778687
 30
0
 11
1.069688
 21
0.798793
 31
0
  0
LINE
  8
0
 10
1.069688
 20
0.798793
 30
0
 11
1.052485
 21
0.813925
 31
0
  0
LINE
  8
0
 10
1.052485
 20
0.813925
 30
0
 11
1.036420
 21
0.817942
 31
0
  0
LINE
  8
0
 10
1.036420
 20
0.817942
 30
0
 11
1.014120
 21
0.812685
 31
0
  0
LINE
  8
0
 10
1.014120
 20
0.812685
 30
0
 11
0.986455
 21
0.798557
 31
0
  0
LINE
  8
0
 10
0.986455
 20
0.798557
 30
0
 11
0.972561
 21
0.791610
 31
0
  0
LINE
  8
0
 10
0.972561
 20
0.791610
 30
0
 11
0.944660
 21
0.777955
 31
0
  0
LINE
  8
0
 10
0.944660
 20
0.777955
 30
0
 11
0.940186
 21
0.750393
 31
0
  0
LINE
  8
0
 10
0.940186
 20
0.750393
 30
0
 11
0.938786
 21
0.736397
 31
0
  0
LINE
  8
0
 10
0.938786
 20
0.736397
 30
0
 11
0.937714
 21
0.708495
 31
0
  0
LINE
  8
0
 10
0.937714
 20
0.708495
 30
0
 11
0.953221
 21
0.670212
 31
0
  0
LINE
  8
0
 10
0.953221
 20
0.670212
 30
0
 11
0.974537
 21
0.650834
 31
0
  0
LINE
  8
0
 10
0.974537
 20
0.650834
 30
0
 11
1.014120
 21
0.639034
 31
0
  0
ENDSEC
  0
EOF