  0
SECTION
  2
HEADER
  9
$ACADVER
  1
AC1009
  9
$INSBASE
 10
0.0
 20
0.0
 30
0.0
  9
$EXTMIN
 10
0.000000
 20
0.000000
 30
0.0
  9
$EXTMAX
 10
1.597586
 20
1.180825
 30
0.0
  9
$LIMMIN
 10
0.000000
 20
0.000000
  9
$LIMMAX
 10
1.597586
 20
1.180825
  9
$LTSCALE
 40
0.404040
  9
$CELTYPE
  6
BYLAYER
  9
$CECOLOR
 62
   256
  9
$LUNITS
 70
     3
  9
$HANDLING
 70
     1
  9
$UNITMODE
 70
     0
  0
ENDSEC
  0
SECTION
  2
TABLES
  0
TABLE
  2
LTYPE
 70
     1
  0
LTYPE
  2
CONTINUOUS
 70
     0
  3
Solid line
 72
    65
 73
     0
 40
0.0
  0
ENDTAB
  0
TABLE
  2
LAYER
 70
     1
  0
LAYER
  2
0
 70
     0
 62
     7
  6
CONTINUOUS
  0
ENDTAB
  0
TABLE
  2
APPID
 70
     1
  0
APPID
  2
ACAD
 70
     0
  0
ENDTAB
  0
ENDSEC
  0
SECTION
  2
ENTITIES
  0
LINE
  8
0
 10
1.611478
 20
0.486222
 30
0
 11
1.625370
 21
0.486222
 31
0
  0
LINE
  8
0
 10
1.625370
 20
0.486222
 30
0
 11
1.611478
 21
0.486222
 31
0
  0
LINE
  8
0
 10
1.611478
 20
0.486222
 30
0
 11
1.625370
 21
0.486222
 31
0
  0
LINE
  8
0
 10
1.625370
 20
0.486222
 30
0
 11
1.625370
 21
0.791847
 31
0
  0
LINE
  8
0
 10
1.625370
 20
0.791847
 30
0
 11
1.625370
 21
0.486222
 31
0
  0
LINE
  8
0
 10
1.625370
 20
0.486222
 30
0
 11
1.625370
 21
0.791847
 31
0
  0
LINE
  8
0
 10
1.625370
 20
0.791847
 30
0
 11
1.597586
 21
0.791847
 31
0
  0
LINE
  8
0
 10
1.597586
 20
0.791847
 30
0
 11
1.625370
 21
0.791847
 31
0
  0
LINE
  8
0
 10
1.625370
 20
0.791847
 30
0
 11
1.597586
 21
0.791847
 31
0
  0
LINE
  8
0
 10
1.597586
 20
0.791847
 30
0
 11
1.607678
 21
0.777462
 31
0
  0
LINE
  8
0
 10
1.607678
 20
0.777462
 30
0
 11
1.610920
 21
0.767734
 31
0
  0
LINE
  8
0
 10
1.610920
 20
0.767734
 30
0
 11
1.611478
 21
0.750171
 31
0
  0
LINE
  8
0
 10
1.611478
 20
0.750171
 30
0
 11
1.600365
 21
0.750171
 31
0
  0
LINE
  8
0
 10
1.600365
 20
0.750171
 30
0
 11
1.594808
 21
0.750171
 31
0
  0
LINE
  8
0
 10
1.594808
 20
0.750171
 30
0
 11
1.583694
 21
0.750171
 31
0
  0
LINE
  8
0
 10
1.583694
 20
0.750171
 30
0
 11
1.583694
 21
0.722387
 31
0
  0
LINE
  8
0
 10
1.583694
 20
0.722387
 30
0
 11
1.583694
 21
0.708495
 31
0
  0
LINE
  8
0
 10
1.583694
 20
0.708495
 30
0
 11
1.583694
 21
0.680711
 31
0
  0
LINE
  8
0
 10
1.583694
 20
0.680711
 30
0
 11
1.594808
 21
0.680711
 31
0
  0
LINE
  8
0
 10
1.594808
 20
0.680711
 30
0
 11
1.600365
 21
0.680711
 31
0
  0
LINE
  8
0
 10
1.600365
 20
0.680711
 30
0
 11
1.611478
 21
0.680711
 31
0
  0
LINE
  8
0
 10
1.611478
 20
0.680711
 30
0
 11
1.611478
 21
0.669597
 31
0
  0
LINE
  8
0
 10
1.611478
 20
0.669597
 30
0
 11
1.611478
 21
0.664040
 31
0
  0
LINE
  8
0
 10
1.611478
 20
0.664040
 30
0
 11
1.611478
 21
0.652926
 31
0
  0
LINE
  8
0
 10
1.611478
 20
0.652926
 30
0
 11
1.600365
 21
0.652926
 31
0
  0
LINE
  8
0
 10
1.600365
 20
0.652926
 30
0
 11
1.594808
 21
0.652926
 31
0
  0
LINE
  8
0
 10
1.594808
 20
0.652926
 30
0
 11
1.583694
 21
0.652926
 31
0
  0
LINE
  8
0
 10
1.583694
 20
0.652926
 30
0
 11
1.583694
 21
0.608472
 31
0
  0
LINE
  8
0
 10
1.583694
 20
0.608472
 30
0
 11
1.583694
 21
0.586245
 31
0
  0
LINE
  8
0
 10
1.583694
 20
0.586245
 30
0
 11
1.583694
 21
0.541790
 31
0
  0
LINE
  8
0
 10
1.583694
 20
0.541790
 30
0
 11
1.594808
 21
0.541790
 31
0
  0
LINE
  8
0
 10
1.594808
 20
0.541790
 30
0
 11
1.600365
 21
0.541790
 31
0
  0
LINE
  8
0
 10
1.600365
 20
0.541790
 30
0
 11
1.611478
 21
0.541790
 31
0
  0
LINE
  8
0
 10
1.611478
 20
0.541790
 30
0
 11
1.611478
 21
0.519563
 31
0
  0
LINE
  8
0
 10
1.611478
 20
0.519563
 30
0
 11
1.611478
 21
0.508449
 31
0
  0
LINE
  8
0
 10
1.611478
 20
0.508449
 30
0
 11
1.611478
 21
0.486222
 31
0
  0
LINE
  8
0
 10
1.625370
 20
-0.013892
 30
0
 11
1.625370
 21
0.486222
 31
0
  0
LINE
  8
0
 10
1.625370
 20
0.486222
 30
0
 11
1.625370
 21
-0.013892
 31
0
  0
LINE
  8
0
 10
1.625370
 20
-0.013892
 30
0
 11
1.625370
 21
0.486222
 31
0
  0
LINE
  8
0
 10
1.625370
 20
0.486222
 30
0
 11
1.611478
 21
0.486222
 31
0
  0
LINE
  8
0
 10
1.611478
 20
0.486222
 30
0
 11
1.625370
 21
0.486222
 31
0
  0
LINE
  8
0
 10
1.625370
 20
0.486222
 30
0
 11
1.611478
 21
0.486222
 31
0
  0
LINE
  8
0
 10
1.611478
 20
0.486222
 30
0
 11
1.611478
 21
0.508449
 31
0
  0
LINE
  8
0
 10
1.611478
 20
0.508449
 30
0
 11
1.611478
 21
0.519563
 31
0
  0
LINE
  8
0
 10
1.611478
 20
0.519563
 30
0
 11
1.611478
 21
0.541790
 31
0
  0
LINE
  8
0
 10
1.611478
 20
0.541790
 30
0
 11
1.600365
 21
0.541790
 31
0
  0
LINE
  8
0
 10
1.600365
 20
0.541790
 30
0
 11
1.594808
 21
0.541790
 31
0
  0
LINE
  8
0
 10
1.594808
 20
0.541790
 30
0
 11
1.583694
 21
0.541790
 31
0
  0
LINE
  8
0
 10
1.583694
 20
0.541790
 30
0
 11
1.583694
 21
0.586245
 31
0
  0
LINE
  8
0
 10
1.583694
 20
0.586245
 30
0
 11
1.583694
 21
0.608472
 31
0
  0
LINE
  8
0
 10
1.583694
 20
0.608472
 30
0
 11
1.583694
 21
0.652926
 31
0
  0
LINE
  8
0
 10
1.583694
 20
0.652926
 30
0
 11
1.594808
 21
0.652926
 31
0
  0
LINE
  8
0
 10
1.594808
 20
0.652926
 30
0
 11
1.600365
 21
0.652926
 31
0
  0
LINE
  8
0
 10
1.600365
 20
0.652926
 30
0
 11
1.611478
 21
0.652926
 31
0
  0
LINE
  8
0
 10
1.611478
 20
0.652926
 30
0
 11
1.611478
 21
0.664040
 31
0
  0
LINE
  8
0
 10
1.611478
 20
0.664040
 30
0
 11
1.611478
 21
0.669597
 31
0
  0
LINE
  8
0
 10
1.611478
 20
0.669597
 30
0
 11
1.611478
 21
0.680711
 31
0
  0
LINE
  8
0
 10
1.611478
 20
0.680711
 30
0
 11
1.600365
 21
0.680711
 31
0
  0
LINE
  8
0
 10
1.600365
 20
0.680711
 30
0
 11
1.594808
 21
0.680711
 31
0
  0
LINE
  8
0
 10
1.594808
 20
0.680711
 30
0
 11
1.583694
 21
0.680711
 31
0
  0
LINE
  8
0
 10
1.583694
 20
0.680711
 30
0
 11
1.583694
 21
0.708495
 31
0
  0
LINE
  8
0
 10
1.583694
 20
0.708495
 30
0
 11
1.583694
 21
0.722387
 31
0
  0
LINE
  8
0
 10
1.583694
 20
0.722387
 30
0
 11
1.583694
 21
0.750171
 31
0
  0
LINE
  8
0
 10
1.583694
 20
0.750171
 30
0
 11
1.594808
 21
0.750171
 31
0
  0
LINE
  8
0
 10
1.594808
 20
0.750171
 30
0
 11
1.600365
 21
0.750171
 31
0
  0
LINE
  8
0
 10
1.600365
 20
0.750171
 30
0
 11
1.611478
 21
0.750171
 31
0
  0
LINE
  8
0
 10
1.611478
 20
0.750171
 30
0
 11
1.610920
 21
0.767734
 31
0
  0
LINE
  8
0
 10
1.610920
 20
0.767734
 30
0
 11
1.607678
 21
0.777462
 31
0
  0
LINE
  8
0
 10
1.607678
 20
0.777462
 30
0
 11
1.597586
 21
0.791847
 31
0
  0
LINE
  8
0
 10
1.597586
 20
0.791847
 30
0
 11
1.625370
 21
0.791847
 31
0
  0
LINE
  8
0
 10
1.625370
 20
0.791847
 30
0
 11
1.597586
 21
0.791847
 31
0
  0
LINE
  8
0
 10
1.597586
 20
0.791847
 30
0
 11
1.625370
 21
0.791847
 31
0
  0
LINE
  8
0
 10
1.625370
 20
0.791847
 30
0
 11
1.625370
 21
1.180825
 31
0
  0
LINE
  8
0
 10
1.625370
 20
1.180825
 30
0
 11
1.625370
 21
0.791847
 31
0
  0
LINE
  8
0
 10
1.625370
 20
0.791847
 30
0
 11
1.625370
 21
1.180825
 31
0
  0
LINE
  8
0
 10
1.625370
 20
1.180825
 30
0
 11
0.980779
 21
1.180825
 31
0
  0
LINE
  8
0
 10
0.980779
 20
1.180825
 30
0
 11
0.658483
 21
1.180825
 31
0
  0
LINE
  8
0
 10
0.658483
 20
1.180825
 30
0
 11
0.013892
 21
1.180825
 31
0
  0
LINE
  8
0
 10
0.013892
 20
1.180825
 30
0
 11
0.013892
 21
0.702938
 31
0
  0
LINE
  8
0
 10
0.013892
 20
0.702938
 30
0
 11
0.013892
 21
0.463995
 31
0
  0
LINE
  8
0
 10
0.013892
 20
0.463995
 30
0
 11
0.013892
 21
-0.013892
 31
0
  0
LINE
  8
0
 10
0.013892
 20
-0.013892
 30
0
 11
0.658483
 21
-0.013892
 31
0
  0
LINE
  8
0
 10
0.658483
 20
-0.013892
 30
0
 11
0.980779
 21
-0.013892
 31
0
  0
LINE
  8
0
 10
0.980779
 20
-0.013892
 30
0
 11
1.625370
 21
-0.013892
 31
0
  0
LINE
  8
0
 10
0.916876
 20
0.111136
 30
0
 11
1.000228
 21
0.111136
 31
0
  0
LINE
  8
0
 10
1.000228
 20
0.111136
 30
0
 11
0.916876
 21
0.111136
 31
0
  0
LINE
  8
0
 10
0.916876
 20
0.111136
 30
0
 11
1.000228
 21
0.111136
 31
0
  0
LINE
  8
0
 10
1.000228
 20
0.111136
 30
0
 11
1.000228
 21
0.125028
 31
0
  0
LINE
  8
0
 10
1.000228
 20
0.125028
 30
0
 11
1.000228
 21
0.111136
 31
0
  0
LINE
  8
0
 10
1.000228
 20
0.111136
 30
0
 11
1.000228
 21
0.125028
 31
0
  0
LINE
  8
0
 10
1.000228
 20
0.125028
 30
0
 11
1.006384
 21
0.125866
 31
0
  0
LINE
  8
0
 10
1.006384
 20
0.125866
 30
0
 11
1.010197
 21
0.133493
 31
0
  0
LINE
  8
0
 10
1.010197
 20
0.133493
 30
0
 11
1.007174
 21
0.138921
 31
0
  0
LINE
  8
0
 10
1.007174
 20
0.138921
 30
0
 11
1.000997
 21
0.139585
 31
0
  0
LINE
  8
0
 10
1.000997
 20
0.139585
 30
0
 11
0.997053
 21
0.147472
 31
0
  0
LINE
  8
0
 10
0.997053
 20
0.147472
 30
0
 11
1.000228
 21
0.152813
 31
0
  0
LINE
  8
0
 10
1.000228
 20
0.152813
 30
0
 11
0.666819
 21
0.152813
 31
0
  0
LINE
  8
0
 10
0.666819
 20
0.152813
 30
0
 11
1.000228
 21
0.152813
 31
0
  0
LINE
  8
0
 10
1.000228
 20
0.152813
 30
0
 11
0.666819
 21
0.152813
 31
0
  0
LINE
  8
0
 10
0.666819
 20
0.152813
 30
0
 11
0.621927
 21
0.177499
 31
0
  0
LINE
  8
0
 10
0.621927
 20
0.177499
 30
0
 11
0.592912
 21
0.183947
 31
0
  0
LINE
  8
0
 10
0.592912
 20
0.183947
 30
0
 11
0.541790
 21
0.180597
 31
0
  0
LINE
  8
0
 10
0.541790
 20
0.180597
 30
0
 11
0.525120
 21
0.191710
 31
0
  0
LINE
  8
0
 10
0.525120
 20
0.191710
 30
0
 11
0.516784
 21
0.197267
 31
0
  0
LINE
  8
0
 10
0.516784
 20
0.197267
 30
0
 11
0.500114
 21
0.208381
 31
0
  0
LINE
  8
0
 10
0.500114
 20
0.208381
 30
0
 11
0.444546
 21
0.208381
 31
0
  0
LINE
  8
0
 10
0.444546
 20
0.208381
 30
0
 11
0.500114
 21
0.208381
 31
0
  0
LINE
  8
0
 10
0.500114
 20
0.208381
 30
0
 11
0.444546
 21
0.208381
 31
0
  0
LINE
  8
0
 10
0.444546
 20
0.208381
 30
0
 11
0.442562
 21
0.190921
 31
0
  0
LINE
  8
0
 10
0.442562
 20
0.190921
 30
0
 11
0.446375
 21
0.179482
 31
0
  0
LINE
  8
0
 10
0.446375
 20
0.179482
 30
0
 11
0.458438
 21
0.166705
 31
0
  0
LINE
  8
0
 10
0.458438
 20
0.166705
 30
0
 11
0.469551
 21
0.166705
 31
0
  0
LINE
  8
0
 10
0.469551
 20
0.166705
 30
0
 11
0.475108
 21
0.166705
 31
0
  0
LINE
  8
0
 10
0.475108
 20
0.166705
 30
0
 11
0.486222
 21
0.166705
 31
0
  0
LINE
  8
0
 10
0.486222
 20
0.166705
 30
0
 11
0.486222
 21
0.152813
 31
0
  0
LINE
  8
0
 10
0.486222
 20
0.152813
 30
0
 11
0.486222
 21
0.166705
 31
0
  0
LINE
  8
0
 10
0.486222
 20
0.166705
 30
0
 11
0.486222
 21
0.152813
 31
0
  0
LINE
  8
0
 10
0.486222
 20
0.152813
 30
0
 11
0.500114
 21
0.152813
 31
0
  0
LINE
  8
0
 10
0.500114
 20
0.152813
 30
0
 11
0.486222
 21
0.152813
 31
0
  0
LINE
  8
0
 10
0.486222
 20
0.152813
 30
0
 11
0.500114
 21
0.152813
 31
0
  0
LINE
  8
0
 10
0.500114
 20
0.152813
 30
0
 11
0.551855
 21
0.126571
 31
0
  0
LINE
  8
0
 10
0.551855
 20
0.126571
 30
0
 11
0.581393
 21
0.117710
 31
0
  0
LINE
  8
0
 10
0.581393
 20
0.117710
 30
0
 11
0.639034
 21
0.111136
 31
0
  0
LINE
  8
0
 10
0.639034
 20
0.111136
 30
0
 11
0.671355
 21
0.121029
 31
0
  0
LINE
  8
0
 10
0.671355
 20
0.121029
 30
0
 11
0.695021
 21
0.117084
 31
0
  0
LINE
  8
0
 10
0.695021
 20
0.117084
 30
0
 11
0.722387
 21
0.097244
 31
0
  0
LINE
  8
0
 10
0.722387
 20
0.097244
 30
0
 11
0.800182
 21
0.097244
 31
0
  0
LINE
  8
0
 10
0.800182
 20
0.097244
 30
0
 11
0.839080
 21
0.097244
 31
0
  0
LINE
  8
0
 10
0.839080
 20
0.097244
 30
0
 11
0.916876
 21
0.097244
 31
0
  0
LINE
  8
0
 10
0.916876
 20
0.097244
 30
0
 11
0.916876
 21
0.102801
 31
0
  0
LINE
  8
0
 10
0.916876
 20
0.102801
 30
0
 11
0.916876
 21
0.105580
 31
0
  0
LINE
  8
0
 10
0.916876
 20
0.105580
 30
0
 11
0.916876
 21
0.111136
 31
0
  0
LINE
  8
0
 10
0.430654
 20
0.152813
 30
0
 11
0.486222
 21
0.152813
 31
0
  0
LINE
  8
0
 10
0.486222
 20
0.152813
 30
0
 11
0.430654
 21
0.152813
 31
0
  0
LINE
  8
0
 10
0.430654
 20
0.152813
 30
0
 11
0.486222
 21
0.152813
 31
0
  0
LINE
  8
0
 10
0.486222
 20
0.152813
 30
0
 11
0.486222
 21
0.166705
 31
0
  0
LINE
  8
0
 10
0.486222
 20
0.166705
 30
0
 11
0.486222
 21
0.152813
 31
0
  0
LINE
  8
0
 10
0.486222
 20
0.152813
 30
0
 11
0.486222
 21
0.166705
 31
0
  0
LINE
  8
0
 10
0.486222
 20
0.166705
 30
0
 11
0.475108
 21
0.166705
 31
0
  0
LINE
  8
0
 10
0.475108
 20
0.166705
 30
0
 11
0.469551
 21
0.166705
 31
0
  0
LINE
  8
0
 10
0.469551
 20
0.166705
 30
0
 11
0.458438
 21
0.166705
 31
0
  0
LINE
  8
0
 10
0.458438
 20
0.166705
 30
0
 11
0.446375
 21
0.179482
 31
0
  0
LINE
  8
0
 10
0.446375
 20
0.179482
 30
0
 11
0.442562
 21
0.190921
 31
0
  0
LINE
  8
0
 10
0.442562
 20
0.190921
 30
0
 11
0.444546
 21
0.208381
 31
0
  0
LINE
  8
0
 10
0.444546
 20
0.208381
 30
0
 11
0.486222
 21
0.208381
 31
0
  0
LINE
  8
0
 10
0.486222
 20
0.208381
 30
0
 11
0.444546
 21
0.208381
 31
0
  0
LINE
  8
0
 10
0.444546
 20
0.208381
 30
0
 11
0.486222
 21
0.208381
 31
0
  0
LINE
  8
0
 10
0.486222
 20
0.208381
 30
0
 11
0.486222
 21
0.222273
 31
0
  0
LINE
  8
0
 10
0.486222
 20
0.222273
 30
0
 11
0.486222
 21
0.208381
 31
0
  0
LINE
  8
0
 10
0.486222
 20
0.208381
 30
0
 11
0.486222
 21
0.222273
 31
0
  0
LINE
  8
0
 10
0.486222
 20
0.222273
 30
0
 11
0.475108
 21
0.222273
 31
0
  0
LINE
  8
0
 10
0.475108
 20
0.222273
 30
0
 11
0.469551
 21
0.222273
 31
0
  0
LINE
  8
0
 10
0.469551
 20
0.222273
 30
0
 11
0.458438
 21
0.222273
 31
0
  0
LINE
  8
0
 10
0.458438
 20
0.222273
 30
0
 11
0.462796
 21
0.232867
 31
0
  0
LINE
  8
0
 10
0.462796
 20
0.232867
 30
0
 11
0.460323
 21
0.242760
 31
0
  0
LINE
  8
0
 10
0.460323
 20
0.242760
 30
0
 11
0.451492
 21
0.250057
 31
0
  0
LINE
  8
0
 10
0.451492
 20
0.250057
 30
0
 11
0.447070
 21
0.272016
 31
0
  0
LINE
  8
0
 10
0.447070
 20
0.272016
 30
0
 11
0.448746
 21
0.285430
 31
0
  0
LINE
  8
0
 10
0.448746
 20
0.285430
 30
0
 11
0.458438
 21
0.305625
 31
0
  0
LINE
  8
0
 10
0.458438
 20
0.305625
 30
0
 11
0.486222
 21
0.305625
 31
0
  0
LINE
  8
0
 10
0.486222
 20
0.305625
 30
0
 11
0.458438
 21
0.305625
 31
0
  0
LINE
  8
0
 10
0.458438
 20
0.305625
 30
0
 11
0.486222
 21
0.305625
 31
0
  0
LINE
  8
0
 10
0.486222
 20
0.305625
 30
0
 11
0.486222
 21
0.319517
 31
0
  0
LINE
  8
0
 10
0.486222
 20
0.319517
 30
0
 11
0.486222
 21
0.305625
 31
0
  0
LINE
  8
0
 10
0.486222
 20
0.305625
 30
0
 11
0.486222
 21
0.319517
 31
0
  0
LINE
  8
0
 10
0.486222
 20
0.319517
 30
0
 11
0.468945
 21
0.323763
 31
0
  0
LINE
  8
0
 10
0.468945
 20
0.323763
 30
0
 11
0.459426
 21
0.331378
 31
0
  0
LINE
  8
0
 10
0.459426
 20
0.331378
 30
0
 11
0.451492
 21
0.347301
 31
0
  0
LINE
  8
0
 10
0.451492
 20
0.347301
 30
0
 11
0.453501
 21
0.364082
 31
0
  0
LINE
  8
0
 10
0.453501
 20
0.364082
 30
0
 11
0.454896
 21
0.372452
 31
0
  0
LINE
  8
0
 10
0.454896
 20
0.372452
 30
0
 11
0.458438
 21
0.388977
 31
0
  0
LINE
  8
0
 10
0.458438
 20
0.388977
 30
0
 11
0.472330
 21
0.388977
 31
0
  0
LINE
  8
0
 10
0.472330
 20
0.388977
 30
0
 11
0.458438
 21
0.388977
 31
0
  0
LINE
  8
0
 10
0.458438
 20
0.388977
 30
0
 11
0.472330
 21
0.388977
 31
0
  0
LINE
  8
0
 10
0.472330
 20
0.388977
 30
0
 11
0.472330
 21
0.416762
 31
0
  0
LINE
  8
0
 10
0.472330
 20
0.416762
 30
0
 11
0.472330
 21
0.388977
 31
0
  0
LINE
  8
0
 10
0.472330
 20
0.388977
 30
0
 11
0.472330
 21
0.416762
 31
0
  0
LINE
  8
0
 10
0.472330
 20
0.416762
 30
0
 11
0.461216
 21
0.427875
 31
0
  0
LINE
  8
0
 10
0.461216
 20
0.427875
 30
0
 11
0.455659
 21
0.433432
 31
0
  0
LINE
  8
0
 10
0.455659
 20
0.433432
 30
0
 11
0.444546
 21
0.444546
 31
0
  0
LINE
  8
0
 10
0.444546
 20
0.444546
 30
0
 11
0.444546
 21
0.533455
 31
0
  0
LINE
  8
0
 10
0.444546
 20
0.533455
 30
0
 11
0.444546
 21
0.577909
 31
0
  0
LINE
  8
0
 10
0.444546
 20
0.577909
 30
0
 11
0.444546
 21
0.666819
 31
0
  0
LINE
  8
0
 10
0.444546
 20
0.666819
 30
0
 11
0.450103
 21
0.666819
 31
0
  0
LINE
  8
0
 10
0.450103
 20
0.666819
 30
0
 11
0.452881
 21
0.666819
 31
0
  0
LINE
  8
0
 10
0.452881
 20
0.666819
 30
0
 11
0.458438
 21
0.666819
 31
0
  0
LINE
  8
0
 10
0.458438
 20
0.666819
 30
0
 11
0.458438
 21
0.694603
 31
0
  0
LINE
  8
0
 10
0.458438
 20
0.694603
 30
0
 11
0.458438
 21
0.666819
 31
0
  0
LINE
  8
0
 10
0.458438
 20
0.666819
 30
0
 11
0.458438
 21
0.694603
 31
0
  0
LINE
  8
0
 10
0.458438
 20
0.694603
 30
0
 11
0.402870
 21
0.694603
 31
0
  0
LINE
  8
0
 10
0.402870
 20
0.694603
 30
0
 11
0.458438
 21
0.694603
 31
0
  0
LINE
  8
0
 10
0.458438
 20
0.694603
 30
0
 11
0.402870
 21
0.694603
 31
0
  0
LINE
  8
0
 10
0.402870
 20
0.694603
 30
0
 11
0.386199
 21
0.683489
 31
0
  0
LINE
  8
0
 10
0.386199
 20
0.683489
 30
0
 11
0.377864
 21
0.677932
 31
0
  0
LINE
  8
0
 10
0.377864
 20
0.677932
 30
0
 11
0.361193
 21
0.666819
 31
0
  0
LINE
  8
0
 10
0.361193
 20
0.666819
 30
0
 11
0.333409
 21
0.666819
 31
0
  0
LINE
  8
0
 10
0.333409
 20
0.666819
 30
0
 11
0.361193
 21
0.666819
 31
0
  0
LINE
  8
0
 10
0.361193
 20
0.666819
 30
0
 11
0.333409
 21
0.666819
 31
0
  0
LINE
  8
0
 10
0.333409
 20
0.666819
 30
0
 11
0.333409
 21
0.625142
 31
0
  0
LINE
  8
0
 10
0.333409
 20
0.625142
 30
0
 11
0.333409
 21
0.666819
 31
0
  0
LINE
  8
0
 10
0.333409
 20
0.666819
 30
0
 11
0.333409
 21
0.625142
 31
0
  0
LINE
  8
0
 10
0.333409
 20
0.625142
 30
0
 11
0.327852
 21
0.625142
 31
0
  0
LINE
  8
0
 10
0.327852
 20
0.625142
 30
0
 11
0.325074
 21
0.625142
 31
0
  0
LINE
  8
0
 10
0.325074
 20
0.625142
 30
0
 11
0.319517
 21
0.625142
 31
0
  0
LINE
  8
0
 10
0.319517
 20
0.625142
 30
0
 11
0.319517
 21
0.430654
 31
0
  0
LINE
  8
0
 10
0.319517
 20
0.430654
 30
0
 11
0.319517
 21
0.625142
 31
0
  0
LINE
  8
0
 10
0.319517
 20
0.625142
 30
0
 11
0.319517
 21
0.430654
 31
0
  0
LINE
  8
0
 10
0.319517
 20
0.430654
 30
0
 11
0.333409
 21
0.430654
 31
0
  0
LINE
  8
0
 10
0.333409
 20
0.430654
 30
0
 11
0.319517
 21
0.430654
 31
0
  0
LINE
  8
0
 10
0.319517
 20
0.430654
 30
0
 11
0.333409
 21
0.430654
 31
0
  0
LINE
  8
0
 10
0.333409
 20
0.430654
 30
0
 11
0.327880
 21
0.403284
 31
0
  0
LINE
  8
0
 10
0.327880
 20
0.403284
 30
0
 11
0.329516
 21
0.386926
 31
0
  0
LINE
  8
0
 10
0.329516
 20
0.386926
 30
0
 11
0.340355
 21
0.361193
 31
0
  0
LINE
  8
0
 10
0.340355
 20
0.361193
 30
0
 11
0.349633
 21
0.347067
 31
0
  0
LINE
  8
0
 10
0.349633
 20
0.347067
 30
0
 11
0.346767
 21
0.329871
 31
0
  0
LINE
  8
0
 10
0.346767
 20
0.329871
 30
0
 11
0.333409
 21
0.319517
 31
0
  0
LINE
  8
0
 10
0.333409
 20
0.319517
 30
0
 11
0.305625
 21
0.319517
 31
0
  0
LINE
  8
0
 10
0.305625
 20
0.319517
 30
0
 11
0.333409
 21
0.319517
 31
0
  0
LINE
  8
0
 10
0.333409
 20
0.319517
 30
0
 11
0.305625
 21
0.319517
 31
0
  0
LINE
  8
0
 10
0.305625
 20
0.319517
 30
0
 11
0.305625
 21
0.305625
 31
0
  0
LINE
  8
0
 10
0.305625
 20
0.305625
 30
0
 11
0.305625
 21
0.319517
 31
0
  0
LINE
  8
0
 10
0.305625
 20
0.319517
 30
0
 11
0.305625
 21
0.305625
 31
0
  0
LINE
  8
0
 10
0.305625
 20
0.305625
 30
0
 11
0.311182
 21
0.305625
 31
0
  0
LINE
  8
0
 10
0.311182
 20
0.305625
 30
0
 11
0.313960
 21
0.305625
 31
0
  0
LINE
  8
0
 10
0.313960
 20
0.305625
 30
0
 11
0.319517
 21
0.305625
 31
0
  0
LINE
  8
0
 10
0.319517
 20
0.305625
 30
0
 11
0.319517
 21
0.247279
 31
0
  0
LINE
  8
0
 10
0.319517
 20
0.247279
 30
0
 11
0.319517
 21
0.218105
 31
0
  0
LINE
  8
0
 10
0.319517
 20
0.218105
 30
0
 11
0.319517
 21
0.159759
 31
0
  0
LINE
  8
0
 10
0.319517
 20
0.159759
 30
0
 11
0.333409
 21
0.145867
 31
0
  0
LINE
  8
0
 10
0.333409
 20
0.145867
 30
0
 11
0.340355
 21
0.138921
 31
0
  0
LINE
  8
0
 10
0.340355
 20
0.138921
 30
0
 11
0.354247
 21
0.125028
 31
0
  0
LINE
  8
0
 10
0.354247
 20
0.125028
 30
0
 11
0.384990
 21
0.120573
 31
0
  0
LINE
  8
0
 10
0.384990
 20
0.120573
 30
0
 11
0.403447
 21
0.123929
 31
0
  0
LINE
  8
0
 10
0.403447
 20
0.123929
 30
0
 11
0.430654
 21
0.138921
 31
0
  0
LINE
  8
0
 10
0.430654
 20
0.138921
 30
0
 11
0.430654
 21
0.144477
 31
0
  0
LINE
  8
0
 10
0.430654
 20
0.144477
 30
0
 11
0.430654
 21
0.147256
 31
0
  0
LINE
  8
0
 10
0.430654
 20
0.147256
 30
0
 11
0.430654
 21
0.152813
 31
0
  0
LINE
  8
0
 10
0.305625
 20
0.319517
 30
0
 11
0.333409
 21
0.319517
 31
0
  0
LINE
  8
0
 10
0.333409
 20
0.319517
 30
0
 11
0.305625
 21
0.319517
 31
0
  0
LINE
  8
0
 10
0.305625
 20
0.319517
 30
0
 11
0.333409
 21
0.319517
 31
0
  0
LINE
  8
0
 10
0.333409
 20
0.319517
 30
0
 11
0.346767
 21
0.329871
 31
0
  0
LINE
  8
0
 10
0.346767
 20
0.329871
 30
0
 11
0.349633
 21
0.347067
 31
0
  0
LINE
  8
0
 10
0.349633
 20
0.347067
 30
0
 11
0.340355
 21
0.361193
 31
0
  0
LINE
  8
0
 10
0.340355
 20
0.361193
 30
0
 11
0.329516
 21
0.386926
 31
0
  0
LINE
  8
0
 10
0.329516
 20
0.386926
 30
0
 11
0.327880
 21
0.403284
 31
0
  0
LINE
  8
0
 10
0.327880
 20
0.403284
 30
0
 11
0.333409
 21
0.430654
 31
0
  0
LINE
  8
0
 10
0.333409
 20
0.430654
 30
0
 11
0.305625
 21
0.430654
 31
0
  0
LINE
  8
0
 10
0.305625
 20
0.430654
 30
0
 11
0.333409
 21
0.430654
 31
0
  0
LINE
  8
0
 10
0.333409
 20
0.430654
 30
0
 11
0.305625
 21
0.430654
 31
0
  0
LINE
  8
0
 10
0.305625
 20
0.430654
 30
0
 11
0.314427
 21
0.403721
 31
0
  0
LINE
  8
0
 10
0.314427
 20
0.403721
 30
0
 11
0.317283
 21
0.389439
 31
0
  0
LINE
  8
0
 10
0.317283
 20
0.389439
 30
0
 11
0.319517
 21
0.361193
 31
0
  0
LINE
  8
0
 10
0.319517
 20
0.361193
 30
0
 11
0.291733
 21
0.361193
 31
0
  0
LINE
  8
0
 10
0.291733
 20
0.361193
 30
0
 11
0.319517
 21
0.361193
 31
0
  0
LINE
  8
0
 10
0.319517
 20
0.361193
 30
0
 11
0.291733
 21
0.361193
 31
0
  0
LINE
  8
0
 10
0.291733
 20
0.361193
 30
0
 11
0.291733
 21
0.347301
 31
0
  0
LINE
  8
0
 10
0.291733
 20
0.347301
 30
0
 11
0.291733
 21
0.361193
 31
0
  0
LINE
  8
0
 10
0.291733
 20
0.361193
 30
0
 11
0.291733
 21
0.347301
 31
0
  0
LINE
  8
0
 10
0.291733
 20
0.347301
 30
0
 11
0.297290
 21
0.347301
 31
0
  0
LINE
  8
0
 10
0.297290
 20
0.347301
 30
0
 11
0.300068
 21
0.347301
 31
0
  0
LINE
  8
0
 10
0.300068
 20
0.347301
 30
0
 11
0.305625
 21
0.347301
 31
0
  0
LINE
  8
0
 10
0.305625
 20
0.347301
 30
0
 11
0.305625
 21
0.319517
 31
0
  0
LINE
  8
0
 10
0.305625
 20
0.319517
 30
0
 11
0.305625
 21
0.347301
 31
0
  0
LINE
  8
0
 10
0.305625
 20
0.347301
 30
0
 11
0.305625
 21
0.319517
 31
0
  0
LINE
  8
0
 10
0.291733
 20
0.361193
 30
0
 11
0.319517
 21
0.361193
 31
0
  0
LINE
  8
0
 10
0.319517
 20
0.361193
 30
0
 11
0.291733
 21
0.361193
 31
0
  0
LINE
  8
0
 10
0.291733
 20
0.361193
 30
0
 11
0.319517
 21
0.361193
 31
0
  0
LINE
  8
0
 10
0.319517
 20
0.361193
 30
0
 11
0.317283
 21
0.389439
 31
0
  0
LINE
  8
0
 10
0.317283
 20
0.389439
 30
0
 11
0.314427
 21
0.403721
 31
0
  0
LINE
  8
0
 10
0.314427
 20
0.403721
 30
0
 11
0.305625
 21
0.430654
 31
0
  0
LINE
  8
0
 10
0.305625
 20
0.430654
 30
0
 11
0.319517
 21
0.430654
 31
0
  0
LINE
  8
0
 10
0.319517
 20
0.430654
 30
0
 11
0.305625
 21
0.430654
 31
0
  0
LINE
  8
0
 10
0.305625
 20
0.430654
 30
0
 11
0.319517
 21
0.430654
 31
0
  0
LINE
  8
0
 10
0.319517
 20
0.430654
 30
0
 11
0.319517
 21
0.625142
 31
0
  0
LINE
  8
0
 10
0.319517
 20
0.625142
 30
0
 11
0.319517
 21
0.430654
 31
0
  0
LINE
  8
0
 10
0.319517
 20
0.430654
 30
0
 11
0.319517
 21
0.625142
 31
0
  0
LINE
  8
0
 10
0.319517
 20
0.625142
 30
0
 11
0.325074
 21
0.625142
 31
0
  0
LINE
  8
0
 10
0.325074
 20
0.625142
 30
0
 11
0.327852
 21
0.625142
 31
0
  0
LINE
  8
0
 10
0.327852
 20
0.625142
 30
0
 11
0.333409
 21
0.625142
 31
0
  0
LINE
  8
0
 10
0.333409
 20
0.625142
 30
0
 11
0.333409
 21
0.666819
 31
0
  0
LINE
  8
0
 10
0.333409
 20
0.666819
 30
0
 11
0.333409
 21
0.625142
 31
0
  0
LINE
  8
0
 10
0.333409
 20
0.625142
 30
0
 11
0.333409
 21
0.666819
 31
0
  0
LINE
  8
0
 10
0.333409
 20
0.666819
 30
0
 11
0.277841
 21
0.666819
 31
0
  0
LINE
  8
0
 10
0.277841
 20
0.666819
 30
0
 11
0.333409
 21
0.666819
 31
0
  0
LINE
  8
0
 10
0.333409
 20
0.666819
 30
0
 11
0.277841
 21
0.666819
 31
0
  0
LINE
  8
0
 10
0.277841
 20
0.666819
 30
0
 11
0.277841
 21
0.555682
 31
0
  0
LINE
  8
0
 10
0.277841
 20
0.555682
 30
0
 11
0.277841
 21
0.500114
 31
0
  0
LINE
  8
0
 10
0.277841
 20
0.500114
 30
0
 11
0.277841
 21
0.388977
 31
0
  0
LINE
  8
0
 10
0.277841
 20
0.388977
 30
0
 11
0.283398
 21
0.388977
 31
0
  0
LINE
  8
0
 10
0.283398
 20
0.388977
 30
0
 11
0.286176
 21
0.388977
 31
0
  0
LINE
  8
0
 10
0.286176
 20
0.388977
 30
0
 11
0.291733
 21
0.388977
 31
0
  0
LINE
  8
0
 10
0.291733
 20
0.388977
 30
0
 11
0.291733
 21
0.361193
 31
0
  0
LINE
  8
0
 10
0.291733
 20
0.361193
 30
0
 11
0.291733
 21
0.388977
 31
0
  0
LINE
  8
0
 10
0.291733
 20
0.388977
 30
0
 11
0.291733
 21
0.361193
 31
0
  0
LINE
  8
0
 10
1.153040
 20
0.152813
 30
0
 11
1.208609
 21
0.152813
 31
0
  0
LINE
  8
0
 10
1.208609
 20
0.152813
 30
0
 11
1.153040
 21
0.152813
 31
0
  0
LINE
  8
0
 10
1.153040
 20
0.152813
 30
0
 11
1.208609
 21
0.152813
 31
0
  0
LINE
  8
0
 10
1.208609
 20
0.152813
 30
0
 11
1.242012
 21
0.178796
 31
0
  0
LINE
  8
0
 10
1.242012
 20
0.178796
 30
0
 11
1.264000
 21
0.188220
 31
0
  0
LINE
  8
0
 10
1.264000
 20
0.188220
 30
0
 11
1.305853
 21
0.194489
 31
0
  0
LINE
  8
0
 10
1.305853
 20
0.194489
 30
0
 11
1.390279
 21
0.228478
 31
0
  0
LINE
  8
0
 10
1.390279
 20
0.228478
 30
0
 11
1.431237
 21
0.253345
 31
0
  0
LINE
  8
0
 10
1.431237
 20
0.253345
 30
0
 11
1.500342
 21
0.312571
 31
0
  0
LINE
  8
0
 10
1.500342
 20
0.312571
 30
0
 11
1.513698
 21
0.343621
 31
0
  0
LINE
  8
0
 10
1.513698
 20
0.343621
 30
0
 11
1.516798
 21
0.362220
 31
0
  0
LINE
  8
0
 10
1.516798
 20
0.362220
 30
0
 11
1.514234
 21
0.395924
 31
0
  0
LINE
  8
0
 10
1.514234
 20
0.395924
 30
0
 11
1.500342
 21
0.409816
 31
0
  0
LINE
  8
0
 10
1.500342
 20
0.409816
 30
0
 11
1.493396
 21
0.416762
 31
0
  0
LINE
  8
0
 10
1.493396
 20
0.416762
 30
0
 11
1.479504
 21
0.430654
 31
0
  0
LINE
  8
0
 10
1.479504
 20
0.430654
 30
0
 11
1.463258
 21
0.449865
 31
0
  0
LINE
  8
0
 10
1.463258
 20
0.449865
 30
0
 11
1.437056
 21
0.452776
 31
0
  0
LINE
  8
0
 10
1.437056
 20
0.452776
 30
0
 11
1.416989
 21
0.437600
 31
0
  0
LINE
  8
0
 10
1.416989
 20
0.437600
 30
0
 11
1.392686
 21
0.423852
 31
0
  0
LINE
  8
0
 10
1.392686
 20
0.423852
 30
0
 11
1.368629
 21
0.426257
 31
0
  0
LINE
  8
0
 10
1.368629
 20
0.426257
 30
0
 11
1.347529
 21
0.444546
 31
0
  0
LINE
  8
0
 10
1.347529
 20
0.444546
 30
0
 11
1.347529
 21
0.516784
 31
0
  0
LINE
  8
0
 10
1.347529
 20
0.516784
 30
0
 11
1.347529
 21
0.552904
 31
0
  0
LINE
  8
0
 10
1.347529
 20
0.552904
 30
0
 11
1.347529
 21
0.625142
 31
0
  0
LINE
  8
0
 10
1.347529
 20
0.625142
 30
0
 11
1.325934
 21
0.657968
 31
0
  0
LINE
  8
0
 10
1.325934
 20
0.657968
 30
0
 11
1.322097
 21
0.684827
 31
0
  0
LINE
  8
0
 10
1.322097
 20
0.684827
 30
0
 11
1.333637
 21
0.722387
 31
0
  0
LINE
  8
0
 10
1.333637
 20
0.722387
 30
0
 11
1.311761
 21
0.752569
 31
0
  0
LINE
  8
0
 10
1.311761
 20
0.752569
 30
0
 11
1.302981
 21
0.770129
 31
0
  0
LINE
  8
0
 10
1.302981
 20
0.770129
 30
0
 11
1.291961
 21
0.805739
 31
0
  0
LINE
  8
0
 10
1.291961
 20
0.805739
 30
0
 11
1.254966
 21
0.877318
 31
0
  0
LINE
  8
0
 10
1.254966
 20
0.877318
 30
0
 11
1.222731
 21
0.911165
 31
0
  0
LINE
  8
0
 10
1.222731
 20
0.911165
 30
0
 11
1.153040
 21
0.951606
 31
0
  0
LINE
  8
0
 10
1.153040
 20
0.951606
 30
0
 11
1.073967
 21
0.996322
 31
0
  0
LINE
  8
0
 10
1.073967
 20
0.996322
 30
0
 11
1.031359
 21
1.014785
 31
0
  0
LINE
  8
0
 10
1.031359
 20
1.014785
 30
0
 11
0.944660
 21
1.041904
 31
0
  0
LINE
  8
0
 10
0.944660
 20
1.041904
 30
0
 11
0.844637
 21
1.041904
 31
0
  0
LINE
  8
0
 10
0.844637
 20
1.041904
 30
0
 11
0.794625
 21
1.041904
 31
0
  0
LINE
  8
0
 10
0.794625
 20
1.041904
 30
0
 11
0.694603
 21
1.041904
 31
0
  0
LINE
  8
0
 10
0.694603
 20
1.041904
 30
0
 11
0.622136
 21
1.017566
 31
0
  0
LINE
  8
0
 10
0.622136
 20
1.017566
 30
0
 11
0.586011
 21
1.005061
 31
0
  0
LINE
  8
0
 10
0.586011
 20
1.005061
 30
0
 11
0.514006
 21
0.979390
 31
0
  0
LINE
  8
0
 10
0.514006
 20
0.979390
 30
0
 11
0.483988
 21
0.952845
 31
0
  0
LINE
  8
0
 10
0.483988
 20
0.952845
 30
0
 11
0.466702
 21
0.941321
 31
0
  0
LINE
  8
0
 10
0.466702
 20
0.941321
 30
0
 11
0.430654
 21
0.923822
 31
0
  0
LINE
  8
0
 10
0.430654
 20
0.923822
 30
0
 11
0.377864
 21
0.871032
 31
0
  0
LINE
  8
0
 10
0.377864
 20
0.871032
 30
0
 11
0.351469
 21
0.844637
 31
0
  0
LINE
  8
0
 10
0.351469
 20
0.844637
 30
0
 11
0.298679
 21
0.791847
 31
0
  0
LINE
  8
0
 10
0.298679
 20
0.791847
 30
0
 11
0.295396
 21
0.779863
 31
0
  0
LINE
  8
0
 10
0.295396
 20
0.779863
 30
0
 11
0.292404
 21
0.773880
 31
0
  0
LINE
  8
0
 10
0.292404
 20
0.773880
 30
0
 11
0.284787
 21
0.764063
 31
0
  0
LINE
  8
0
 10
0.284787
 20
0.764063
 30
0
 11
0.267498
 21
0.735420
 31
0
  0
LINE
  8
0
 10
0.267498
 20
0.735420
 30
0
 11
0.269942
 21
0.706097
 31
0
  0
LINE
  8
0
 10
0.269942
 20
0.706097
 30
0
 11
0.291733
 21
0.680711
 31
0
  0
LINE
  8
0
 10
0.291733
 20
0.680711
 30
0
 11
0.291733
 21
0.666819
 31
0
  0
LINE
  8
0
 10
0.291733
 20
0.666819
 30
0
 11
0.291733
 21
0.680711
 31
0
  0
LINE
  8
0
 10
0.291733
 20
0.680711
 30
0
 11
0.291733
 21
0.666819
 31
0
  0
LINE
  8
0
 10
0.291733
 20
0.666819
 30
0
 11
0.361193
 21
0.666819
 31
0
  0
LINE
  8
0
 10
0.361193
 20
0.666819
 30
0
 11
0.291733
 21
0.666819
 31
0
  0
LINE
  8
0
 10
0.291733
 20
0.666819
 30
0
 11
0.361193
 21
0.666819
 31
0
  0
LINE
  8
0
 10
0.361193
 20
0.666819
 30
0
 11
0.377864
 21
0.677932
 31
0
  0
LINE
  8
0
 10
0.377864
 20
0.677932
 30
0
 11
0.386199
 21
0.683489
 31
0
  0
LINE
  8
0
 10
0.386199
 20
0.683489
 30
0
 11
0.402870
 21
0.694603
 31
0
  0
LINE
  8
0
 10
0.402870
 20
0.694603
 30
0
 11
0.555682
 21
0.694603
 31
0
  0
LINE
  8
0
 10
0.555682
 20
0.694603
 30
0
 11
0.402870
 21
0.694603
 31
0
  0
LINE
  8
0
 10
0.402870
 20
0.694603
 30
0
 11
0.555682
 21
0.694603
 31
0
  0
LINE
  8
0
 10
0.555682
 20
0.694603
 30
0
 11
0.572353
 21
0.683489
 31
0
  0
LINE
  8
0
 10
0.572353
 20
0.683489
 30
0
 11
0.580688
 21
0.677932
 31
0
  0
LINE
  8
0
 10
0.580688
 20
0.677932
 30
0
 11
0.597358
 21
0.666819
 31
0
  0
LINE
  8
0
 10
0.597358
 20
0.666819
 30
0
 11
0.627344
 21
0.658708
 31
0
  0
LINE
  8
0
 10
0.627344
 20
0.658708
 30
0
 11
0.648552
 21
0.662564
 31
0
  0
LINE
  8
0
 10
0.648552
 20
0.662564
 30
0
 11
0.673765
 21
0.680711
 31
0
  0
LINE
  8
0
 10
0.673765
 20
0.680711
 30
0
 11
0.682100
 21
0.689046
 31
0
  0
LINE
  8
0
 10
0.682100
 20
0.689046
 30
0
 11
0.686267
 21
0.693213
 31
0
  0
LINE
  8
0
 10
0.686267
 20
0.693213
 30
0
 11
0.694603
 21
0.701549
 31
0
  0
LINE
  8
0
 10
0.694603
 20
0.701549
 30
0
 11
0.697167
 21
0.735252
 31
0
  0
LINE
  8
0
 10
0.697167
 20
0.735252
 30
0
 11
0.694067
 21
0.753851
 31
0
  0
LINE
  8
0
 10
0.694067
 20
0.753851
 30
0
 11
0.680711
 21
0.784901
 31
0
  0
LINE
  8
0
 10
0.680711
 20
0.784901
 30
0
 11
0.644778
 21
0.825139
 31
0
  0
LINE
  8
0
 10
0.644778
 20
0.825139
 30
0
 11
0.620011
 21
0.842166
 31
0
  0
LINE
  8
0
 10
0.620011
 20
0.842166
 30
0
 11
0.569574
 21
0.861307
 31
0
  0
LINE
  8
0
 10
0.569574
 20
0.861307
 30
0
 11
0.537588
 21
0.872235
 31
0
  0
LINE
  8
0
 10
0.537588
 20
0.872235
 30
0
 11
0.520023
 21
0.875162
 31
0
  0
LINE
  8
0
 10
0.520023
 20
0.875162
 30
0
 11
0.486222
 21
0.875199
 31
0
  0
LINE
  8
0
 10
0.486222
 20
0.875199
 30
0
 11
0.480763
 21
0.889130
 31
0
  0
LINE
  8
0
 10
0.480763
 20
0.889130
 30
0
 11
0.486553
 21
0.903606
 31
0
  0
LINE
  8
0
 10
0.486553
 20
0.903606
 30
0
 11
0.500114
 21
0.909929
 31
0
  0
LINE
  8
0
 10
0.500114
 20
0.909929
 30
0
 11
0.571503
 21
0.948207
 31
0
  0
LINE
  8
0
 10
0.571503
 20
0.948207
 30
0
 11
0.609843
 21
0.963827
 31
0
  0
LINE
  8
0
 10
0.609843
 20
0.963827
 30
0
 11
0.687657
 21
0.986336
 31
0
  0
LINE
  8
0
 10
0.687657
 20
0.986336
 30
0
 11
0.756423
 21
0.996514
 31
0
  0
LINE
  8
0
 10
0.756423
 20
0.996514
 30
0
 11
0.791947
 21
0.997935
 31
0
  0
LINE
  8
0
 10
0.791947
 20
0.997935
 30
0
 11
0.861307
 21
0.993282
 31
0
  0
LINE
  8
0
 10
0.861307
 20
0.993282
 30
0
 11
0.923087
 21
0.986718
 31
0
  0
LINE
  8
0
 10
0.923087
 20
0.986718
 30
0
 11
0.953984
 21
0.981100
 31
0
  0
LINE
  8
0
 10
0.953984
 20
0.981100
 30
0
 11
1.014120
 21
0.965498
 31
0
  0
LINE
  8
0
 10
1.014120
 20
0.965498
 30
0
 11
1.061397
 21
0.950163
 31
0
  0
LINE
  8
0
 10
1.061397
 20
0.950163
 30
0
 11
1.084623
 21
0.938550
 31
0
  0
LINE
  8
0
 10
1.084623
 20
0.938550
 30
0
 11
1.125256
 21
0.909929
 31
0
  0
LINE
  8
0
 10
1.125256
 20
0.909929
 30
0
 11
1.169048
 21
0.883342
 31
0
  0
LINE
  8
0
 10
1.169048
 20
0.883342
 30
0
 11
1.189528
 21
0.865788
 31
0
  0
LINE
  8
0
 10
1.189528
 20
0.865788
 30
0
 11
1.222501
 21
0.826577
 31
0
  0
LINE
  8
0
 10
1.222501
 20
0.826577
 30
0
 11
1.243400
 21
0.784219
 31
0
  0
LINE
  8
0
 10
1.243400
 20
0.784219
 30
0
 11
1.254536
 21
0.763340
 31
0
  0
LINE
  8
0
 10
1.254536
 20
0.763340
 30
0
 11
1.278069
 21
0.722387
 31
0
  0
LINE
  8
0
 10
1.278069
 20
0.722387
 30
0
 11
1.268465
 21
0.707671
 31
0
  0
LINE
  8
0
 10
1.268465
 20
0.707671
 30
0
 11
1.275448
 21
0.686720
 31
0
  0
LINE
  8
0
 10
1.275448
 20
0.686720
 30
0
 11
1.291961
 21
0.680711
 31
0
  0
LINE
  8
0
 10
1.291961
 20
0.680711
 30
0
 11
1.291961
 21
0.614029
 31
0
  0
LINE
  8
0
 10
1.291961
 20
0.614029
 30
0
 11
1.291961
 21
0.580688
 31
0
  0
LINE
  8
0
 10
1.291961
 20
0.580688
 30
0
 11
1.291961
 21
0.514006
 31
0
  0
LINE
  8
0
 10
1.291961
 20
0.514006
 30
0
 11
1.305837
 21
0.467509
 31
0
  0
LINE
  8
0
 10
1.305837
 20
0.467509
 30
0
 11
1.311432
 21
0.443729
 31
0
  0
LINE
  8
0
 10
1.311432
 20
0.443729
 30
0
 11
1.319745
 21
0.395924
 31
0
  0
LINE
  8
0
 10
1.319745
 20
0.395924
 30
0
 11
1.336359
 21
0.371035
 31
0
  0
LINE
  8
0
 10
1.336359
 20
0.371035
 30
0
 11
1.360010
 21
0.361574
 31
0
  0
LINE
  8
0
 10
1.360010
 20
0.361574
 30
0
 11
1.389205
 21
0.368139
 31
0
  0
LINE
  8
0
 10
1.389205
 20
0.368139
 30
0
 11
1.413121
 21
0.384555
 31
0
  0
LINE
  8
0
 10
1.413121
 20
0.384555
 30
0
 11
1.429663
 21
0.389518
 31
0
  0
LINE
  8
0
 10
1.429663
 20
0.389518
 30
0
 11
1.458666
 21
0.388977
 31
0
  0
LINE
  8
0
 10
1.458666
 20
0.388977
 30
0
 11
1.464463
 21
0.365958
 31
0
  0
LINE
  8
0
 10
1.464463
 20
0.365958
 30
0
 11
1.457332
 21
0.346941
 31
0
  0
LINE
  8
0
 10
1.457332
 20
0.346941
 30
0
 11
1.437828
 21
0.333409
 31
0
  0
LINE
  8
0
 10
1.437828
 20
0.333409
 30
0
 11
1.374831
 21
0.275135
 31
0
  0
LINE
  8
0
 10
1.374831
 20
0.275135
 30
0
 11
1.333044
 21
0.251920
 31
0
  0
LINE
  8
0
 10
1.333044
 20
0.251920
 30
0
 11
1.250285
 21
0.229219
 31
0
  0
LINE
  8
0
 10
1.250285
 20
0.229219
 30
0
 11
1.231856
 21
0.232005
 31
0
  0
LINE
  8
0
 10
1.231856
 20
0.232005
 30
0
 11
1.217437
 21
0.224795
 31
0
  0
LINE
  8
0
 10
1.217437
 20
0.224795
 30
0
 11
1.208609
 21
0.208381
 31
0
  0
LINE
  8
0
 10
1.208609
 20
0.208381
 30
0
 11
1.180825
 21
0.208381
 31
0
  0
LINE
  8
0
 10
1.180825
 20
0.208381
 30
0
 11
1.208609
 21
0.208381
 31
0
  0
LINE
  8
0
 10
1.208609
 20
0.208381
 30
0
 11
1.180825
 21
0.208381
 31
0
  0
LINE
  8
0
 10
1.180825
 20
0.208381
 30
0
 11
1.180825
 21
0.194489
 31
0
  0
LINE
  8
0
 10
1.180825
 20
0.194489
 30
0
 11
1.180825
 21
0.208381
 31
0
  0
LINE
  8
0
 10
1.180825
 20
0.208381
 30
0
 11
1.180825
 21
0.194489
 31
0
  0
LINE
  8
0
 10
1.180825
 20
0.194489
 30
0
 11
1.170144
 21
0.200838
 31
0
  0
LINE
  8
0
 10
1.170144
 20
0.200838
 30
0
 11
1.154369
 21
0.192951
 31
0
  0
LINE
  8
0
 10
1.154369
 20
0.192951
 30
0
 11
1.153040
 21
0.180597
 31
0
  0
LINE
  8
0
 10
1.153040
 20
0.180597
 30
0
 11
1.139148
 21
0.180597
 31
0
  0
LINE
  8
0
 10
1.139148
 20
0.180597
 30
0
 11
1.153040
 21
0.180597
 31
0
  0
LINE
  8
0
 10
1.153040
 20
0.180597
 30
0
 11
1.139148
 21
0.180597
 31
0
  0
LINE
  8
0
 10
1.139148
 20
0.180597
 30
0
 11
1.139148
 21
0.166705
 31
0
  0
LINE
  8
0
 10
1.139148
 20
0.166705
 30
0
 11
1.139148
 21
0.180597
 31
0
  0
LINE
  8
0
 10
1.139148
 20
0.180597
 30
0
 11
1.139148
 21
0.166705
 31
0
  0
LINE
  8
0
 10
1.139148
 20
0.166705
 30
0
 11
1.144705
 21
0.166705
 31
0
  0
LINE
  8
0
 10
1.144705
 20
0.166705
 30
0
 11
1.147484
 21
0.166705
 31
0
  0
LINE
  8
0
 10
1.147484
 20
0.166705
 30
0
 11
1.153040
 21
0.166705
 31
0
  0
LINE
  8
0
 10
1.153040
 20
0.166705
 30
0
 11
1.153040
 21
0.152813
 31
0
  0
LINE
  8
0
 10
1.153040
 20
0.152813
 30
0
 11
1.153040
 21
0.166705
 31
0
  0
LINE
  8
0
 10
1.153040
 20
0.166705
 30
0
 11
1.153040
 21
0.152813
 31
0
  0
LINE
  8
0
 10
0.597358
 20
0.722387
 30
0
 11
0.615722
 21
0.719199
 31
0
  0
LINE
  8
0
 10
0.615722
 20
0.719199
 30
0
 11
0.630567
 21
0.726621
 31
0
  0
LINE
  8
0
 10
0.630567
 20
0.726621
 30
0
 11
0.639034
 21
0.743225
 31
0
  0
LINE
  8
0
 10
0.639034
 20
0.743225
 30
0
 11
0.614029
 21
0.768231
 31
0
  0
LINE
  8
0
 10
0.614029
 20
0.768231
 30
0
 11
0.601526
 21
0.780733
 31
0
  0
LINE
  8
0
 10
0.601526
 20
0.780733
 30
0
 11
0.576520
 21
0.805739
 31
0
  0
LINE
  8
0
 10
0.576520
 20
0.805739
 30
0
 11
0.515647
 21
0.825382
 31
0
  0
LINE
  8
0
 10
0.515647
 20
0.825382
 30
0
 11
0.479110
 21
0.826970
 31
0
  0
LINE
  8
0
 10
0.479110
 20
0.826970
 30
0
 11
0.416762
 21
0.812685
 31
0
  0
LINE
  8
0
 10
0.416762
 20
0.812685
 30
0
 11
0.404112
 21
0.806306
 31
0
  0
LINE
  8
0
 10
0.404112
 20
0.806306
 30
0
 11
0.400592
 21
0.788709
 31
0
  0
LINE
  8
0
 10
0.400592
 20
0.788709
 30
0
 11
0.409816
 21
0.777955
 31
0
  0
LINE
  8
0
 10
0.409816
 20
0.777955
 30
0
 11
0.420929
 21
0.766841
 31
0
  0
LINE
  8
0
 10
0.420929
 20
0.766841
 30
0
 11
0.426486
 21
0.761285
 31
0
  0
LINE
  8
0
 10
0.426486
 20
0.761285
 30
0
 11
0.437600
 21
0.750171
 31
0
  0
LINE
  8
0
 10
0.437600
 20
0.750171
 30
0
 11
0.501706
 21
0.752386
 31
0
  0
LINE
  8
0
 10
0.501706
 20
0.752386
 30
0
 11
0.534596
 21
0.749526
 31
0
  0
LINE
  8
0
 10
0.534596
 20
0.749526
 30
0
 11
0.597358
 21
0.736279
 31
0
  0
LINE
  8
0
 10
0.597358
 20
0.736279
 30
0
 11
0.597358
 21
0.730722
 31
0
  0
LINE
  8
0
 10
0.597358
 20
0.730722
 30
0
 11
0.597358
 21
0.727944
 31
0
  0
LINE
  8
0
 10
0.597358
 20
0.727944
 30
0
 11
0.597358
 21
0.722387
 31
0
  0
LINE
  8
0
 10
1.000228
 20
0.111136
 30
0
 11
1.028012
 21
0.111136
 31
0
  0
LINE
  8
0
 10
1.028012
 20
0.111136
 30
0
 11
1.000228
 21
0.111136
 31
0
  0
LINE
  8
0
 10
1.000228
 20
0.111136
 30
0
 11
1.028012
 21
0.111136
 31
0
  0
LINE
  8
0
 10
1.028012
 20
0.111136
 30
0
 11
1.031987
 21
0.121880
 31
0
  0
LINE
  8
0
 10
1.031987
 20
0.121880
 30
0
 11
1.047232
 21
0.125692
 31
0
  0
LINE
  8
0
 10
1.047232
 20
0.125692
 30
0
 11
1.055796
 21
0.118082
 31
0
  0
LINE
  8
0
 10
1.055796
 20
0.118082
 30
0
 11
1.083262
 21
0.111122
 31
0
  0
LINE
  8
0
 10
1.083262
 20
0.111122
 30
0
 11
1.102580
 21
0.114985
 31
0
  0
LINE
  8
0
 10
1.102580
 20
0.114985
 30
0
 11
1.125256
 21
0.131975
 31
0
  0
LINE
  8
0
 10
1.125256
 20
0.131975
 30
0
 11
1.135007
 21
0.134274
 31
0
  0
LINE
  8
0
 10
1.135007
 20
0.134274
 30
0
 11
1.140776
 21
0.142928
 31
0
  0
LINE
  8
0
 10
1.140776
 20
0.142928
 30
0
 11
1.139148
 21
0.152813
 31
0
  0
LINE
  8
0
 10
1.139148
 20
0.152813
 30
0
 11
1.153040
 21
0.152813
 31
0
  0
LINE
  8
0
 10
1.153040
 20
0.152813
 30
0
 11
1.139148
 21
0.152813
 31
0
  0
LINE
  8
0
 10
1.139148
 20
0.152813
 30
0
 11
1.153040
 21
0.152813
 31
0
  0
LINE
  8
0
 10
1.153040
 20
0.152813
 30
0
 11
1.153040
 21
0.166705
 31
0
  0
LINE
  8
0
 10
1.153040
 20
0.166705
 30
0
 11
1.153040
 21
0.152813
 31
0
  0
LINE
  8
0
 10
1.153040
 20
0.152813
 30
0
 11
1.153040
 21
0.166705
 31
0
  0
LINE
  8
0
 10
1.153040
 20
0.166705
 30
0
 11
1.147484
 21
0.166705
 31
0
  0
LINE
  8
0
 10
1.147484
 20
0.166705
 30
0
 11
1.144705
 21
0.166705
 31
0
  0
LINE
  8
0
 10
1.144705
 20
0.166705
 30
0
 11
1.139148
 21
0.166705
 31
0
  0
LINE
  8
0
 10
1.139148
 20
0.166705
 30
0
 11
1.139148
 21
0.180597
 31
0
  0
LINE
  8
0
 10
1.139148
 20
0.180597
 30
0
 11
1.139148
 21
0.166705
 31
0
  0
LINE
  8
0
 10
1.139148
 20
0.166705
 30
0
 11
1.139148
 21
0.180597
 31
0
  0
LINE
  8
0
 10
1.139148
 20
0.180597
 30
0
 11
1.111364
 21
0.180597
 31
0
  0
LINE
  8
0
 10
1.111364
 20
0.180597
 30
0
 11
1.139148
 21
0.180597
 31
0
  0
LINE
  8
0
 10
1.139148
 20
0.180597
 30
0
 11
1.111364
 21
0.180597
 31
0
  0
LINE
  8
0
 10
1.111364
 20
0.180597
 30
0
 11
1.092733
 21
0.165886
 31
0
  0
LINE
  8
0
 10
1.092733
 20
0.165886
 30
0
 11
1.079506
 21
0.160926
 31
0
  0
LINE
  8
0
 10
1.079506
 20
0.160926
 30
0
 11
1.055796
 21
0.159759
 31
0
  0
LINE
  8
0
 10
1.055796
 20
0.159759
 30
0
 11
1.050368
 21
0.156735
 31
0
  0
LINE
  8
0
 10
1.050368
 20
0.156735
 30
0
 11
1.042742
 21
0.160549
 31
0
  0
LINE
  8
0
 10
1.042742
 20
0.160549
 30
0
 11
1.041904
 21
0.166705
 31
0
  0
LINE
  8
0
 10
1.041904
 20
0.166705
 30
0
 11
0.972444
 21
0.166705
 31
0
  0
LINE
  8
0
 10
0.972444
 20
0.166705
 30
0
 11
1.041904
 21
0.166705
 31
0
  0
LINE
  8
0
 10
1.041904
 20
0.166705
 30
0
 11
0.972444
 21
0.166705
 31
0
  0
LINE
  8
0
 10
0.972444
 20
0.166705
 30
0
 11
0.972444
 21
0.152813
 31
0
  0
LINE
  8
0
 10
0.972444
 20
0.152813
 30
0
 11
0.972444
 21
0.166705
 31
0
  0
LINE
  8
0
 10
0.972444
 20
0.166705
 30
0
 11
0.972444
 21
0.152813
 31
0
  0
LINE
  8
0
 10
0.972444
 20
0.152813
 30
0
 11
1.000228
 21
0.152813
 31
0
  0
LINE
  8
0
 10
1.000228
 20
0.152813
 30
0
 11
0.972444
 21
0.152813
 31
0
  0
LINE
  8
0
 10
0.972444
 20
0.152813
 30
0
 11
1.000228
 21
0.152813
 31
0
  0
LINE
  8
0
 10
1.000228
 20
0.152813
 30
0
 11
0.997053
 21
0.147472
 31
0
  0
LINE
  8
0
 10
0.997053
 20
0.147472
 30
0
 11
1.000997
 21
0.139585
 31
0
  0
LINE
  8
0
 10
1.000997
 20
0.139585
 30
0
 11
1.007174
 21
0.138921
 31
0
  0
LINE
  8
0
 10
1.007174
 20
0.138921
 30
0
 11
1.010197
 21
0.133493
 31
0
  0
LINE
  8
0
 10
1.010197
 20
0.133493
 30
0
 11
1.006384
 21
0.125866
 31
0
  0
LINE
  8
0
 10
1.006384
 20
0.125866
 30
0
 11
1.000228
 21
0.125028
 31
0
  0
LINE
  8
0
 10
1.000228
 20
0.125028
 30
0
 11
1.000228
 21
0.111136
 31
0
  0
LINE
  8
0
 10
1.000228
 20
0.111136
 30
0
 11
1.000228
 21
0.125028
 31
0
  0
LINE
  8
0
 10
1.000228
 20
0.125028
 30
0
 11
1.000228
 21
0.111136
 31
0
  0
LINE
  8
0
 10
0.666819
 20
0.152813
 30
0
 11
0.972444
 21
0.152813
 31
0
  0
LINE
  8
0
 10
0.972444
 20
0.152813
 30
0
 11
0.666819
 21
0.152813
 31
0
  0
LINE
  8
0
 10
0.666819
 20
0.152813
 30
0
 11
0.972444
 21
0.152813
 31
0
  0
LINE
  8
0
 10
0.972444
 20
0.152813
 30
0
 11
0.972444
 21
0.166705
 31
0
  0
LINE
  8
0
 10
0.972444
 20
0.166705
 30
0
 11
0.972444
 21
0.152813
 31
0
  0
LINE
  8
0
 10
0.972444
 20
0.152813
 30
0
 11
0.972444
 21
0.166705
 31
0
  0
LINE
  8
0
 10
0.972444
 20
0.166705
 30
0
 11
1.000228
 21
0.166705
 31
0
  0
LINE
  8
0
 10
1.000228
 20
0.166705
 30
0
 11
0.972444
 21
0.166705
 31
0
  0
LINE
  8
0
 10
0.972444
 20
0.166705
 30
0
 11
1.000228
 21
0.166705
 31
0
  0
LINE
  8
0
 10
1.000228
 20
0.166705
 30
0
 11
1.000228
 21
0.180597
 31
0
  0
LINE
  8
0
 10
1.000228
 20
0.180597
 30
0
 11
1.000228
 21
0.166705
 31
0
  0
LINE
  8
0
 10
1.000228
 20
0.166705
 30
0
 11
1.000228
 21
0.180597
 31
0
  0
LINE
  8
0
 10
1.000228
 20
0.180597
 30
0
 11
1.011341
 21
0.180597
 31
0
  0
LINE
  8
0
 10
1.011341
 20
0.180597
 30
0
 11
1.016898
 21
0.180597
 31
0
  0
LINE
  8
0
 10
1.016898
 20
0.180597
 30
0
 11
1.028012
 21
0.180597
 31
0
  0
LINE
  8
0
 10
1.028012
 20
0.180597
 30
0
 11
1.017166
 21
0.229733
 31
0
  0
LINE
  8
0
 10
1.017166
 20
0.229733
 30
0
 11
1.014325
 21
0.255306
 31
0
  0
LINE
  8
0
 10
1.014325
 20
0.255306
 30
0
 11
1.014120
 21
0.305625
 31
0
  0
LINE
  8
0
 10
1.014120
 20
0.305625
 30
0
 11
0.972444
 21
0.305625
 31
0
  0
LINE
  8
0
 10
0.972444
 20
0.305625
 30
0
 11
1.014120
 21
0.305625
 31
0
  0
LINE
  8
0
 10
1.014120
 20
0.305625
 30
0
 11
0.972444
 21
0.305625
 31
0
  0
LINE
  8
0
 10
0.972444
 20
0.305625
 30
0
 11
0.919025
 21
0.260967
 31
0
  0
LINE
  8
0
 10
0.919025
 20
0.260967
 30
0
 11
0.886099
 21
0.243007
 31
0
  0
LINE
  8
0
 10
0.886099
 20
0.243007
 30
0
 11
0.819631
 21
0.222273
 31
0
  0
LINE
  8
0
 10
0.819631
 20
0.222273
 30
0
 11
0.752949
 21
0.222273
 31
0
  0
LINE
  8
0
 10
0.752949
 20
0.222273
 30
0
 11
0.719608
 21
0.222273
 31
0
  0
LINE
  8
0
 10
0.719608
 20
0.222273
 30
0
 11
0.652926
 21
0.222273
 31
0
  0
LINE
  8
0
 10
0.652926
 20
0.222273
 30
0
 11
0.646917
 21
0.238785
 31
0
  0
LINE
  8
0
 10
0.646917
 20
0.238785
 30
0
 11
0.625966
 21
0.245769
 31
0
  0
LINE
  8
0
 10
0.625966
 20
0.245769
 30
0
 11
0.611250
 21
0.236165
 31
0
  0
LINE
  8
0
 10
0.611250
 20
0.236165
 30
0
 11
0.561182
 21
0.251699
 31
0
  0
LINE
  8
0
 10
0.561182
 20
0.251699
 30
0
 11
0.536017
 21
0.267427
 31
0
  0
LINE
  8
0
 10
0.536017
 20
0.267427
 30
0
 11
0.500114
 21
0.305625
 31
0
  0
LINE
  8
0
 10
0.500114
 20
0.305625
 30
0
 11
0.458438
 21
0.305625
 31
0
  0
LINE
  8
0
 10
0.458438
 20
0.305625
 30
0
 11
0.500114
 21
0.305625
 31
0
  0
LINE
  8
0
 10
0.500114
 20
0.305625
 30
0
 11
0.458438
 21
0.305625
 31
0
  0
LINE
  8
0
 10
0.458438
 20
0.305625
 30
0
 11
0.448746
 21
0.285430
 31
0
  0
LINE
  8
0
 10
0.448746
 20
0.285430
 30
0
 11
0.447070
 21
0.272016
 31
0
  0
LINE
  8
0
 10
0.447070
 20
0.272016
 30
0
 11
0.451492
 21
0.250057
 31
0
  0
LINE
  8
0
 10
0.451492
 20
0.250057
 30
0
 11
0.460323
 21
0.242760
 31
0
  0
LINE
  8
0
 10
0.460323
 20
0.242760
 30
0
 11
0.462796
 21
0.232867
 31
0
  0
LINE
  8
0
 10
0.462796
 20
0.232867
 30
0
 11
0.458438
 21
0.222273
 31
0
  0
LINE
  8
0
 10
0.458438
 20
0.222273
 30
0
 11
0.469551
 21
0.222273
 31
0
  0
LINE
  8
0
 10
0.469551
 20
0.222273
 30
0
 11
0.475108
 21
0.222273
 31
0
  0
LINE
  8
0
 10
0.475108
 20
0.222273
 30
0
 11
0.486222
 21
0.222273
 31
0
  0
LINE
  8
0
 10
0.486222
 20
0.222273
 30
0
 11
0.486222
 21
0.208381
 31
0
  0
LINE
  8
0
 10
0.486222
 20
0.208381
 30
0
 11
0.486222
 21
0.222273
 31
0
  0
LINE
  8
0
 10
0.486222
 20
0.222273
 30
0
 11
0.486222
 21
0.208381
 31
0
  0
LINE
  8
0
 10
0.486222
 20
0.208381
 30
0
 11
0.500114
 21
0.208381
 31
0
  0
LINE
  8
0
 10
0.500114
 20
0.208381
 30
0
 11
0.486222
 21
0.208381
 31
0
  0
LINE
  8
0
 10
0.486222
 20
0.208381
 30
0
 11
0.500114
 21
0.208381
 31
0
  0
LINE
  8
0
 10
0.500114
 20
0.208381
 30
0
 11
0.516784
 21
0.197267
 31
0
  0
LINE
  8
0
 10
0.516784
 20
0.197267
 30
0
 11
0.525120
 21
0.191710
 31
0
  0
LINE
  8
0
 10
0.525120
 20
0.191710
 30
0
 11
0.541790
 21
0.180597
 31
0
  0
LINE
  8
0
 10
0.541790
 20
0.180597
 30
0
 11
0.592912
 21
0.183947
 31
0
  0
LINE
  8
0
 10
0.592912
 20
0.183947
 30
0
 11
0.621927
 21
0.177499
 31
0
  0
LINE
  8
0
 10
0.621927
 20
0.177499
 30
0
 11
0.666819
 21
0.152813
 31
0
  0
LINE
  8
0
 10
0.972444
 20
0.305625
 30
0
 11
0.986336
 21
0.305625
 31
0
  0
LINE
  8
0
 10
0.986336
 20
0.305625
 30
0
 11
0.972444
 21
0.305625
 31
0
  0
LINE
  8
0
 10
0.972444
 20
0.305625
 30
0
 11
0.986336
 21
0.305625
 31
0
  0
LINE
  8
0
 10
0.986336
 20
0.305625
 30
0
 11
0.986336
 21
0.319517
 31
0
  0
LINE
  8
0
 10
0.986336
 20
0.319517
 30
0
 11
0.986336
 21
0.305625
 31
0
  0
LINE
  8
0
 10
0.986336
 20
0.305625
 30
0
 11
0.986336
 21
0.319517
 31
0
  0
LINE
  8
0
 10
0.986336
 20
0.319517
 30
0
 11
0.998320
 21
0.322801
 31
0
  0
LINE
  8
0
 10
0.998320
 20
0.322801
 30
0
 11
1.004303
 21
0.325792
 31
0
  0
LINE
  8
0
 10
1.004303
 20
0.325792
 30
0
 11
1.014120
 21
0.333409
 31
0
  0
LINE
  8
0
 10
1.014120
 20
0.333409
 30
0
 11
1.014120
 21
0.350080
 31
0
  0
LINE
  8
0
 10
1.014120
 20
0.350080
 30
0
 11
1.014120
 21
0.358415
 31
0
  0
LINE
  8
0
 10
1.014120
 20
0.358415
 30
0
 11
1.014120
 21
0.375085
 31
0
  0
LINE
  8
0
 10
1.014120
 20
0.375085
 30
0
 11
0.986336
 21
0.375085
 31
0
  0
LINE
  8
0
 10
0.986336
 20
0.375085
 30
0
 11
1.014120
 21
0.375085
 31
0
  0
LINE
  8
0
 10
1.014120
 20
0.375085
 30
0
 11
0.986336
 21
0.375085
 31
0
  0
LINE
  8
0
 10
0.986336
 20
0.375085
 30
0
 11
0.986336
 21
0.361193
 31
0
  0
LINE
  8
0
 10
0.986336
 20
0.361193
 30
0
 11
0.986336
 21
0.375085
 31
0
  0
LINE
  8
0
 10
0.986336
 20
0.375085
 30
0
 11
0.986336
 21
0.361193
 31
0
  0
LINE
  8
0
 10
0.986336
 20
0.361193
 30
0
 11
0.923269
 21
0.331690
 31
0
  0
LINE
  8
0
 10
0.923269
 20
0.331690
 30
0
 11
0.892473
 21
0.314892
 31
0
  0
LINE
  8
0
 10
0.892473
 20
0.314892
 30
0
 11
0.833523
 21
0.277841
 31
0
  0
LINE
  8
0
 10
0.833523
 20
0.277841
 30
0
 11
0.755728
 21
0.277841
 31
0
  0
LINE
  8
0
 10
0.755728
 20
0.277841
 30
0
 11
0.716830
 21
0.277841
 31
0
  0
LINE
  8
0
 10
0.716830
 20
0.277841
 30
0
 11
0.639034
 21
0.277841
 31
0
  0
LINE
  8
0
 10
0.639034
 20
0.277841
 30
0
 11
0.589845
 21
0.301992
 31
0
  0
LINE
  8
0
 10
0.589845
 20
0.301992
 30
0
 11
0.565960
 21
0.316042
 31
0
  0
LINE
  8
0
 10
0.565960
 20
0.316042
 30
0
 11
0.520952
 21
0.347301
 31
0
  0
LINE
  8
0
 10
0.520952
 20
0.347301
 30
0
 11
0.511412
 21
0.367568
 31
0
  0
LINE
  8
0
 10
0.511412
 20
0.367568
 30
0
 11
0.494634
 21
0.377156
 31
0
  0
LINE
  8
0
 10
0.494634
 20
0.377156
 30
0
 11
0.472330
 21
0.375085
 31
0
  0
LINE
  8
0
 10
0.472330
 20
0.375085
 30
0
 11
0.472330
 21
0.388977
 31
0
  0
LINE
  8
0
 10
0.472330
 20
0.388977
 30
0
 11
0.472330
 21
0.375085
 31
0
  0
LINE
  8
0
 10
0.472330
 20
0.375085
 30
0
 11
0.472330
 21
0.388977
 31
0
  0
LINE
  8
0
 10
0.472330
 20
0.388977
 30
0
 11
0.458438
 21
0.388977
 31
0
  0
LINE
  8
0
 10
0.458438
 20
0.388977
 30
0
 11
0.472330
 21
0.388977
 31
0
  0
LINE
  8
0
 10
0.472330
 20
0.388977
 30
0
 11
0.458438
 21
0.388977
 31
0
  0
LINE
  8
0
 10
0.458438
 20
0.388977
 30
0
 11
0.454896
 21
0.372452
 31
0
  0
LINE
  8
0
 10
0.454896
 20
0.372452
 30
0
 11
0.453501
 21
0.364082
 31
0
  0
LINE
  8
0
 10
0.453501
 20
0.364082
 30
0
 11
0.451492
 21
0.347301
 31
0
  0
LINE
  8
0
 10
0.451492
 20
0.347301
 30
0
 11
0.459426
 21
0.331378
 31
0
  0
LINE
  8
0
 10
0.459426
 20
0.331378
 30
0
 11
0.468945
 21
0.323763
 31
0
  0
LINE
  8
0
 10
0.468945
 20
0.323763
 30
0
 11
0.486222
 21
0.319517
 31
0
  0
LINE
  8
0
 10
0.486222
 20
0.319517
 30
0
 11
0.486222
 21
0.305625
 31
0
  0
LINE
  8
0
 10
0.486222
 20
0.305625
 30
0
 11
0.486222
 21
0.319517
 31
0
  0
LINE
  8
0
 10
0.486222
 20
0.319517
 30
0
 11
0.486222
 21
0.305625
 31
0
  0
LINE
  8
0
 10
0.486222
 20
0.305625
 30
0
 11
0.500114
 21
0.305625
 31
0
  0
LINE
  8
0
 10
0.500114
 20
0.305625
 30
0
 11
0.486222
 21
0.305625
 31
0
  0
LINE
  8
0
 10
0.486222
 20
0.305625
 30
0
 11
0.500114
 21
0.305625
 31
0
  0
LINE
  8
0
 10
0.500114
 20
0.305625
 30
0
 11
0.536017
 21
0.267427
 31
0
  0
LINE
  8
0
 10
0.536017
 20
0.267427
 30
0
 11
0.561182
 21
0.251699
 31
0
  0
LINE
  8
0
 10
0.561182
 20
0.251699
 30
0
 11
0.611250
 21
0.236165
 31
0
  0
LINE
  8
0
 10
0.611250
 20
0.236165
 30
0
 11
0.625966
 21
0.245769
 31
0
  0
LINE
  8
0
 10
0.625966
 20
0.245769
 30
0
 11
0.646917
 21
0.238785
 31
0
  0
LINE
  8
0
 10
0.646917
 20
0.238785
 30
0
 11
0.652926
 21
0.222273
 31
0
  0
LINE
  8
0
 10
0.652926
 20
0.222273
 30
0
 11
0.719608
 21
0.222273
 31
0
  0
LINE
  8
0
 10
0.719608
 20
0.222273
 30
0
 11
0.752949
 21
0.222273
 31
0
  0
LINE
  8
0
 10
0.752949
 20
0.222273
 30
0
 11
0.819631
 21
0.222273
 31
0
  0
LINE
  8
0
 10
0.819631
 20
0.222273
 30
0
 11
0.886099
 21
0.243007
 31
0
  0
LINE
  8
0
 10
0.886099
 20
0.243007
 30
0
 11
0.919025
 21
0.260967
 31
0
  0
LINE
  8
0
 10
0.919025
 20
0.260967
 30
0
 11
0.972444
 21
0.305625
 31
0
  0
LINE
  8
0
 10
1.166932
 20
0.208381
 30
0
 11
1.208609
 21
0.208381
 31
0
  0
LINE
  8
0
 10
1.208609
 20
0.208381
 30
0
 11
1.166932
 21
0.208381
 31
0
  0
LINE
  8
0
 10
1.166932
 20
0.208381
 30
0
 11
1.208609
 21
0.208381
 31
0
  0
LINE
  8
0
 10
1.208609
 20
0.208381
 30
0
 11
1.217437
 21
0.224795
 31
0
  0
LINE
  8
0
 10
1.217437
 20
0.224795
 30
0
 11
1.231856
 21
0.232005
 31
0
  0
LINE
  8
0
 10
1.231856
 20
0.232005
 30
0
 11
1.250285
 21
0.229219
 31
0
  0
LINE
  8
0
 10
1.250285
 20
0.229219
 30
0
 11
1.333044
 21
0.251920
 31
0
  0
LINE
  8
0
 10
1.333044
 20
0.251920
 30
0
 11
1.374831
 21
0.275135
 31
0
  0
LINE
  8
0
 10
1.374831
 20
0.275135
 30
0
 11
1.437828
 21
0.333409
 31
0
  0
LINE
  8
0
 10
1.437828
 20
0.333409
 30
0
 11
1.457332
 21
0.346941
 31
0
  0
LINE
  8
0
 10
1.457332
 20
0.346941
 30
0
 11
1.464463
 21
0.365958
 31
0
  0
LINE
  8
0
 10
1.464463
 20
0.365958
 30
0
 11
1.458666
 21
0.388977
 31
0
  0
LINE
  8
0
 10
1.458666
 20
0.388977
 30
0
 11
1.429663
 21
0.389518
 31
0
  0
LINE
  8
0
 10
1.429663
 20
0.389518
 30
0
 11
1.413121
 21
0.384555
 31
0
  0
LINE
  8
0
 10
1.413121
 20
0.384555
 30
0
 11
1.389205
 21
0.368139
 31
0
  0
LINE
  8
0
 10
1.389205
 20
0.368139
 30
0
 11
1.360010
 21
0.361574
 31
0
  0
LINE
  8
0
 10
1.360010
 20
0.361574
 30
0
 11
1.336359
 21
0.371035
 31
0
  0
LINE
  8
0
 10
1.336359
 20
0.371035
 30
0
 11
1.319745
 21
0.395924
 31
0
  0
LINE
  8
0
 10
1.319745
 20
0.395924
 30
0
 11
1.311432
 21
0.443729
 31
0
  0
LINE
  8
0
 10
1.311432
 20
0.443729
 30
0
 11
1.305837
 21
0.467509
 31
0
  0
LINE
  8
0
 10
1.305837
 20
0.467509
 30
0
 11
1.291961
 21
0.514006
 31
0
  0
LINE
  8
0
 10
1.291961
 20
0.514006
 30
0
 11
1.291961
 21
0.580688
 31
0
  0
LINE
  8
0
 10
1.291961
 20
0.580688
 30
0
 11
1.291961
 21
0.614029
 31
0
  0
LINE
  8
0
 10
1.291961
 20
0.614029
 30
0
 11
1.291961
 21
0.680711
 31
0
  0
LINE
  8
0
 10
1.291961
 20
0.680711
 30
0
 11
1.275448
 21
0.686720
 31
0
  0
LINE
  8
0
 10
1.275448
 20
0.686720
 30
0
 11
1.268465
 21
0.707671
 31
0
  0
LINE
  8
0
 10
1.268465
 20
0.707671
 30
0
 11
1.278069
 21
0.722387
 31
0
  0
LINE
  8
0
 10
1.278069
 20
0.722387
 30
0
 11
1.254536
 21
0.763340
 31
0
  0
LINE
  8
0
 10
1.254536
 20
0.763340
 30
0
 11
1.243400
 21
0.784219
 31
0
  0
LINE
  8
0
 10
1.243400
 20
0.784219
 30
0
 11
1.222501
 21
0.826577
 31
0
  0
LINE
  8
0
 10
1.222501
 20
0.826577
 30
0
 11
1.189528
 21
0.865788
 31
0
  0
LINE
  8
0
 10
1.189528
 20
0.865788
 30
0
 11
1.169048
 21
0.883342
 31
0
  0
LINE
  8
0
 10
1.169048
 20
0.883342
 30
0
 11
1.125256
 21
0.909929
 31
0
  0
LINE
  8
0
 10
1.125256
 20
0.909929
 30
0
 11
1.084623
 21
0.938550
 31
0
  0
LINE
  8
0
 10
1.084623
 20
0.938550
 30
0
 11
1.061397
 21
0.950163
 31
0
  0
LINE
  8
0
 10
1.061397
 20
0.950163
 30
0
 11
1.014120
 21
0.965498
 31
0
  0
LINE
  8
0
 10
1.014120
 20
0.965498
 30
0
 11
0.953984
 21
0.981100
 31
0
  0
LINE
  8
0
 10
0.953984
 20
0.981100
 30
0
 11
0.923087
 21
0.986718
 31
0
  0
LINE
  8
0
 10
0.923087
 20
0.986718
 30
0
 11
0.861307
 21
0.993282
 31
0
  0
LINE
  8
0
 10
0.861307
 20
0.993282
 30
0
 11
0.791947
 21
0.997935
 31
0
  0
LINE
  8
0
 10
0.791947
 20
0.997935
 30
0
 11
0.756423
 21
0.996514
 31
0
  0
LINE
  8
0
 10
0.756423
 20
0.996514
 30
0
 11
0.687657
 21
0.986336
 31
0
  0
LINE
  8
0
 10
0.687657
 20
0.986336
 30
0
 11
0.609843
 21
0.963827
 31
0
  0
LINE
  8
0
 10
0.609843
 20
0.963827
 30
0
 11
0.571503
 21
0.948207
 31
0
  0
LINE
  8
0
 10
0.571503
 20
0.948207
 30
0
 11
0.500114
 21
0.909929
 31
0
  0
LINE
  8
0
 10
0.500114
 20
0.909929
 30
0
 11
0.486553
 21
0.903606
 31
0
  0
LINE
  8
0
 10
0.486553
 20
0.903606
 30
0
 11
0.480763
 21
0.889130
 31
0
  0
LINE
  8
0
 10
0.480763
 20
0.889130
 30
0
 11
0.486222
 21
0.875199
 31
0
  0
LINE
  8
0
 10
0.486222
 20
0.875199
 30
0
 11
0.520023
 21
0.875162
 31
0
  0
LINE
  8
0
 10
0.520023
 20
0.875162
 30
0
 11
0.537588
 21
0.872235
 31
0
  0
LINE
  8
0
 10
0.537588
 20
0.872235
 30
0
 11
0.569574
 21
0.861307
 31
0
  0
LINE
  8
0
 10
0.569574
 20
0.861307
 30
0
 11
0.620011
 21
0.842166
 31
0
  0
LINE
  8
0
 10
0.620011
 20
0.842166
 30
0
 11
0.644778
 21
0.825139
 31
0
  0
LINE
  8
0
 10
0.644778
 20
0.825139
 30
0
 11
0.680711
 21
0.784901
 31
0
  0
LINE
  8
0
 10
0.680711
 20
0.784901
 30
0
 11
0.694067
 21
0.753851
 31
0
  0
LINE
  8
0
 10
0.694067
 20
0.753851
 30
0
 11
0.697167
 21
0.735252
 31
0
  0
LINE
  8
0
 10
0.697167
 20
0.735252
 30
0
 11
0.694603
 21
0.701549
 31
0
  0
LINE
  8
0
 10
0.694603
 20
0.701549
 30
0
 11
0.686267
 21
0.693213
 31
0
  0
LINE
  8
0
 10
0.686267
 20
0.693213
 30
0
 11
0.682100
 21
0.689046
 31
0
  0
LINE
  8
0
 10
0.682100
 20
0.689046
 30
0
 11
0.673765
 21
0.680711
 31
0
  0
LINE
  8
0
 10
0.673765
 20
0.680711
 30
0
 11
0.648552
 21
0.662564
 31
0
  0
LINE
  8
0
 10
0.648552
 20
0.662564
 30
0
 11
0.627344
 21
0.658708
 31
0
  0
LINE
  8
0
 10
0.627344
 20
0.658708
 30
0
 11
0.597358
 21
0.666819
 31
0
  0
LINE
  8
0
 10
0.597358
 20
0.666819
 30
0
 11
0.580688
 21
0.677932
 31
0
  0
LINE
  8
0
 10
0.580688
 20
0.677932
 30
0
 11
0.572353
 21
0.683489
 31
0
  0
LINE
  8
0
 10
0.572353
 20
0.683489
 30
0
 11
0.555682
 21
0.694603
 31
0
  0
LINE
  8
0
 10
0.555682
 20
0.694603
 30
0
 11
0.458438
 21
0.694603
 31
0
  0
LINE
  8
0
 10
0.458438
 20
0.694603
 30
0
 11
0.555682
 21
0.694603
 31
0
  0
LINE
  8
0
 10
0.555682
 20
0.694603
 30
0
 11
0.458438
 21
0.694603
 31
0
  0
LINE
  8
0
 10
0.458438
 20
0.694603
 30
0
 11
0.458438
 21
0.666819
 31
0
  0
LINE
  8
0
 10
0.458438
 20
0.666819
 30
0
 11
0.458438
 21
0.694603
 31
0
  0
LINE
  8
0
 10
0.458438
 20
0.694603
 30
0
 11
0.458438
 21
0.666819
 31
0
  0
LINE
  8
0
 10
0.458438
 20
0.666819
 30
0
 11
0.452881
 21
0.666819
 31
0
  0
LINE
  8
0
 10
0.452881
 20
0.666819
 30
0
 11
0.450103
 21
0.666819
 31
0
  0
LINE
  8
0
 10
0.450103
 20
0.666819
 30
0
 11
0.444546
 21
0.666819
 31
0
  0
LINE
  8
0
 10
0.444546
 20
0.666819
 30
0
 11
0.444546
 21
0.577909
 31
0
  0
LINE
  8
0
 10
0.444546
 20
0.577909
 30
0
 11
0.444546
 21
0.533455
 31
0
  0
LINE
  8
0
 10
0.444546
 20
0.533455
 30
0
 11
0.444546
 21
0.444546
 31
0
  0
LINE
  8
0
 10
0.444546
 20
0.444546
 30
0
 11
0.455659
 21
0.433432
 31
0
  0
LINE
  8
0
 10
0.455659
 20
0.433432
 30
0
 11
0.461216
 21
0.427875
 31
0
  0
LINE
  8
0
 10
0.461216
 20
0.427875
 30
0
 11
0.472330
 21
0.416762
 31
0
  0
LINE
  8
0
 10
0.472330
 20
0.416762
 30
0
 11
0.472330
 21
0.375085
 31
0
  0
LINE
  8
0
 10
0.472330
 20
0.375085
 30
0
 11
0.472330
 21
0.416762
 31
0
  0
LINE
  8
0
 10
0.472330
 20
0.416762
 30
0
 11
0.472330
 21
0.375085
 31
0
  0
LINE
  8
0
 10
0.472330
 20
0.375085
 30
0
 11
0.494634
 21
0.377156
 31
0
  0
LINE
  8
0
 10
0.494634
 20
0.377156
 30
0
 11
0.511412
 21
0.367568
 31
0
  0
LINE
  8
0
 10
0.511412
 20
0.367568
 30
0
 11
0.520952
 21
0.347301
 31
0
  0
LINE
  8
0
 10
0.520952
 20
0.347301
 30
0
 11
0.565960
 21
0.316042
 31
0
  0
LINE
  8
0
 10
0.565960
 20
0.316042
 30
0
 11
0.589845
 21
0.301992
 31
0
  0
LINE
  8
0
 10
0.589845
 20
0.301992
 30
0
 11
0.639034
 21
0.277841
 31
0
  0
LINE
  8
0
 10
0.639034
 20
0.277841
 30
0
 11
0.716830
 21
0.277841
 31
0
  0
LINE
  8
0
 10
0.716830
 20
0.277841
 30
0
 11
0.755728
 21
0.277841
 31
0
  0
LINE
  8
0
 10
0.755728
 20
0.277841
 30
0
 11
0.833523
 21
0.277841
 31
0
  0
LINE
  8
0
 10
0.833523
 20
0.277841
 30
0
 11
0.892473
 21
0.314892
 31
0
  0
LINE
  8
0
 10
0.892473
 20
0.314892
 30
0
 11
0.923269
 21
0.331690
 31
0
  0
LINE
  8
0
 10
0.923269
 20
0.331690
 30
0
 11
0.986336
 21
0.361193
 31
0
  0
LINE
  8
0
 10
0.986336
 20
0.361193
 30
0
 11
0.986336
 21
0.388977
 31
0
  0
LINE
  8
0
 10
0.986336
 20
0.388977
 30
0
 11
0.986336
 21
0.361193
 31
0
  0
LINE
  8
0
 10
0.986336
 20
0.361193
 30
0
 11
0.986336
 21
0.388977
 31
0
  0
LINE
  8
0
 10
0.986336
 20
0.388977
 30
0
 11
0.998320
 21
0.392261
 31
0
  0
LINE
  8
0
 10
0.998320
 20
0.392261
 30
0
 11
1.004303
 21
0.395253
 31
0
  0
LINE
  8
0
 10
1.004303
 20
0.395253
 30
0
 11
1.014120
 21
0.402870
 31
0
  0
LINE
  8
0
 10
1.014120
 20
0.402870
 30
0
 11
1.014120
 21
0.463995
 31
0
  0
LINE
  8
0
 10
1.014120
 20
0.463995
 30
0
 11
1.014120
 21
0.494557
 31
0
  0
LINE
  8
0
 10
1.014120
 20
0.494557
 30
0
 11
1.014120
 21
0.555682
 31
0
  0
LINE
  8
0
 10
1.014120
 20
0.555682
 30
0
 11
1.003006
 21
0.600137
 31
0
  0
LINE
  8
0
 10
1.003006
 20
0.600137
 30
0
 11
0.997449
 21
0.622364
 31
0
  0
LINE
  8
0
 10
0.997449
 20
0.622364
 30
0
 11
0.986336
 21
0.666819
 31
0
  0
LINE
  8
0
 10
0.986336
 20
0.666819
 30
0
 11
0.986336
 21
0.694603
 31
0
  0
LINE
  8
0
 10
0.986336
 20
0.694603
 30
0
 11
0.986336
 21
0.666819
 31
0
  0
LINE
  8
0
 10
0.986336
 20
0.666819
 30
0
 11
0.986336
 21
0.694603
 31
0
  0
LINE
  8
0
 10
0.986336
 20
0.694603
 30
0
 11
0.889091
 21
0.694603
 31
0
  0
LINE
  8
0
 10
0.889091
 20
0.694603
 30
0
 11
0.986336
 21
0.694603
 31
0
  0
LINE
  8
0
 10
0.986336
 20
0.694603
 30
0
 11
0.889091
 21
0.694603
 31
0
  0
LINE
  8
0
 10
0.889091
 20
0.694603
 30
0
 11
0.852937
 21
0.671081
 31
0
  0
LINE
  8
0
 10
0.852937
 20
0.671081
 30
0
 11
0.827967
 21
0.664422
 31
0
  0
LINE
  8
0
 10
0.827967
 20
0.664422
 30
0
 11
0.784901
 21
0.666819
 31
0
  0
LINE
  8
0
 10
0.784901
 20
0.666819
 30
0
 11
0.771009
 21
0.680711
 31
0
  0
LINE
  8
0
 10
0.771009
 20
0.680711
 30
0
 11
0.764063
 21
0.687657
 31
0
  0
LINE
  8
0
 10
0.764063
 20
0.687657
 30
0
 11
0.750171
 21
0.701549
 31
0
  0
LINE
  8
0
 10
0.750171
 20
0.701549
 30
0
 11
0.747607
 21
0.735252
 31
0
  0
LINE
  8
0
 10
0.747607
 20
0.735252
 30
0
 11
0.750707
 21
0.753851
 31
0
  0
LINE
  8
0
 10
0.750707
 20
0.753851
 30
0
 11
0.764063
 21
0.784901
 31
0
  0
LINE
  8
0
 10
0.764063
 20
0.784901
 30
0
 11
0.799996
 21
0.825139
 31
0
  0
LINE
  8
0
 10
0.799996
 20
0.825139
 30
0
 11
0.824762
 21
0.842166
 31
0
  0
LINE
  8
0
 10
0.824762
 20
0.842166
 30
0
 11
0.875199
 21
0.861307
 31
0
  0
LINE
  8
0
 10
0.875199
 20
0.861307
 30
0
 11
0.927378
 21
0.880619
 31
0
  0
LINE
  8
0
 10
0.927378
 20
0.880619
 30
0
 11
0.960275
 21
0.882264
 31
0
  0
LINE
  8
0
 10
0.960275
 20
0.882264
 30
0
 11
1.014120
 21
0.868253
 31
0
  0
LINE
  8
0
 10
1.014120
 20
0.868253
 30
0
 11
1.073157
 21
0.852910
 31
0
  0
LINE
  8
0
 10
1.073157
 20
0.852910
 30
0
 11
1.103392
 21
0.835406
 31
0
  0
LINE
  8
0
 10
1.103392
 20
0.835406
 30
0
 11
1.146094
 21
0.791847
 31
0
  0
LINE
  8
0
 10
1.146094
 20
0.791847
 30
0
 11
1.146394
 21
0.777958
 31
0
  0
LINE
  8
0
 10
1.146394
 20
0.777958
 30
0
 11
1.153683
 21
0.768240
 31
0
  0
LINE
  8
0
 10
1.153683
 20
0.768240
 30
0
 11
1.166932
 21
0.764063
 31
0
  0
LINE
  8
0
 10
1.166932
 20
0.764063
 30
0
 11
1.175395
 21
0.734174
 31
0
  0
LINE
  8
0
 10
1.175395
 20
0.734174
 30
0
 11
1.171482
 21
0.712653
 31
0
  0
LINE
  8
0
 10
1.171482
 20
0.712653
 30
0
 11
1.153040
 21
0.687657
 31
0
  0
LINE
  8
0
 10
1.153040
 20
0.687657
 30
0
 11
1.143290
 21
0.685357
 31
0
  0
LINE
  8
0
 10
1.143290
 20
0.685357
 30
0
 11
1.137521
 21
0.676703
 31
0
  0
LINE
  8
0
 10
1.137521
 20
0.676703
 30
0
 11
1.139148
 21
0.666819
 31
0
  0
LINE
  8
0
 10
1.139148
 20
0.666819
 30
0
 11
1.111364
 21
0.666819
 31
0
  0
LINE
  8
0
 10
1.111364
 20
0.666819
 30
0
 11
1.139148
 21
0.666819
 31
0
  0
LINE
  8
0
 10
1.139148
 20
0.666819
 30
0
 11
1.111364
 21
0.666819
 31
0
  0
LINE
  8
0
 10
1.111364
 20
0.666819
 30
0
 11
1.111364
 21
0.652926
 31
0
  0
LINE
  8
0
 10
1.111364
 20
0.652926
 30
0
 11
1.111364
 21
0.666819
 31
0
  0
LINE
  8
0
 10
1.111364
 20
0.666819
 30
0
 11
1.111364
 21
0.652926
 31
0
  0
LINE
  8
0
 10
1.111364
 20
0.652926
 30
0
 11
1.122478
 21
0.608472
 31
0
  0
LINE
  8
0
 10
1.122478
 20
0.608472
 30
0
 11
1.128035
 21
0.586245
 31
0
  0
LINE
  8
0
 10
1.128035
 20
0.586245
 30
0
 11
1.139148
 21
0.541790
 31
0
  0
LINE
  8
0
 10
1.139148
 20
0.541790
 30
0
 11
1.139148
 21
0.419540
 31
0
  0
LINE
  8
0
 10
1.139148
 20
0.419540
 30
0
 11
1.139148
 21
0.358415
 31
0
  0
LINE
  8
0
 10
1.139148
 20
0.358415
 30
0
 11
1.139148
 21
0.236165
 31
0
  0
LINE
  8
0
 10
1.139148
 20
0.236165
 30
0
 11
1.154856
 21
0.235609
 31
0
  0
LINE
  8
0
 10
1.154856
 20
0.235609
 30
0
 11
1.166376
 21
0.224088
 31
0
  0
LINE
  8
0
 10
1.166376
 20
0.224088
 30
0
 11
1.166932
 21
0.208381
 31
0
  0
LINE
  8
0
 10
1.111364
 20
0.180597
 30
0
 11
1.153040
 21
0.180597
 31
0
  0
LINE
  8
0
 10
1.153040
 20
0.180597
 30
0
 11
1.111364
 21
0.180597
 31
0
  0
LINE
  8
0
 10
1.111364
 20
0.180597
 30
0
 11
1.153040
 21
0.180597
 31
0
  0
LINE
  8
0
 10
1.153040
 20
0.180597
 30
0
 11
1.154369
 21
0.192951
 31
0
  0
LINE
  8
0
 10
1.154369
 20
0.192951
 30
0
 11
1.170144
 21
0.200838
 31
0
  0
LINE
  8
0
 10
1.170144
 20
0.200838
 30
0
 11
1.180825
 21
0.194489
 31
0
  0
LINE
  8
0
 10
1.180825
 20
0.194489
 30
0
 11
1.180825
 21
0.208381
 31
0
  0
LINE
  8
0
 10
1.180825
 20
0.208381
 30
0
 11
1.180825
 21
0.194489
 31
0
  0
LINE
  8
0
 10
1.180825
 20
0.194489
 30
0
 11
1.180825
 21
0.208381
 31
0
  0
LINE
  8
0
 10
1.180825
 20
0.208381
 30
0
 11
1.166932
 21
0.208381
 31
0
  0
LINE
  8
0
 10
1.166932
 20
0.208381
 30
0
 11
1.180825
 21
0.208381
 31
0
  0
LINE
  8
0
 10
1.180825
 20
0.208381
 30
0
 11
1.166932
 21
0.208381
 31
0
  0
LINE
  8
0
 10
1.166932
 20
0.208381
 30
0
 11
1.166376
 21
0.224088
 31
0
  0
LINE
  8
0
 10
1.166376
 20
0.224088
 30
0
 11
1.154856
 21
0.235609
 31
0
  0
LINE
  8
0
 10
1.154856
 20
0.235609
 30
0
 11
1.139148
 21
0.236165
 31
0
  0
LINE
  8
0
 10
1.139148
 20
0.236165
 30
0
 11
1.139148
 21
0.358415
 31
0
  0
LINE
  8
0
 10
1.139148
 20
0.358415
 30
0
 11
1.139148
 21
0.419540
 31
0
  0
LINE
  8
0
 10
1.139148
 20
0.419540
 30
0
 11
1.139148
 21
0.541790
 31
0
  0
LINE
  8
0
 10
1.139148
 20
0.541790
 30
0
 11
1.128035
 21
0.586245
 31
0
  0
LINE
  8
0
 10
1.128035
 20
0.586245
 30
0
 11
1.122478
 21
0.608472
 31
0
  0
LINE
  8
0
 10
1.122478
 20
0.608472
 30
0
 11
1.111364
 21
0.652926
 31
0
  0
LINE
  8
0
 10
1.111364
 20
0.652926
 30
0
 11
1.111364
 21
0.666819
 31
0
  0
LINE
  8
0
 10
1.111364
 20
0.666819
 30
0
 11
1.111364
 21
0.652926
 31
0
  0
LINE
  8
0
 10
1.111364
 20
0.652926
 30
0
 11
1.111364
 21
0.666819
 31
0
  0
LINE
  8
0
 10
1.111364
 20
0.666819
 30
0
 11
1.083580
 21
0.666819
 31
0
  0
LINE
  8
0
 10
1.083580
 20
0.666819
 30
0
 11
1.111364
 21
0.666819
 31
0
  0
LINE
  8
0
 10
1.111364
 20
0.666819
 30
0
 11
1.083580
 21
0.666819
 31
0
  0
LINE
  8
0
 10
1.083580
 20
0.666819
 30
0
 11
1.066910
 21
0.677932
 31
0
  0
LINE
  8
0
 10
1.066910
 20
0.677932
 30
0
 11
1.058574
 21
0.683489
 31
0
  0
LINE
  8
0
 10
1.058574
 20
0.683489
 30
0
 11
1.041904
 21
0.694603
 31
0
  0
LINE
  8
0
 10
1.041904
 20
0.694603
 30
0
 11
0.986336
 21
0.694603
 31
0
  0
LINE
  8
0
 10
0.986336
 20
0.694603
 30
0
 11
1.041904
 21
0.694603
 31
0
  0
LINE
  8
0
 10
1.041904
 20
0.694603
 30
0
 11
0.986336
 21
0.694603
 31
0
  0
LINE
  8
0
 10
0.986336
 20
0.694603
 30
0
 11
0.986336
 21
0.666819
 31
0
  0
LINE
  8
0
 10
0.986336
 20
0.666819
 30
0
 11
0.986336
 21
0.694603
 31
0
  0
LINE
  8
0
 10
0.986336
 20
0.694603
 30
0
 11
0.986336
 21
0.666819
 31
0
  0
LINE
  8
0
 10
0.986336
 20
0.666819
 30
0
 11
0.997449
 21
0.622364
 31
0
  0
LINE
  8
0
 10
0.997449
 20
0.622364
 30
0
 11
1.003006
 21
0.600137
 31
0
  0
LINE
  8
0
 10
1.003006
 20
0.600137
 30
0
 11
1.014120
 21
0.555682
 31
0
  0
LINE
  8
0
 10
1.014120
 20
0.555682
 30
0
 11
1.014120
 21
0.494557
 31
0
  0
LINE
  8
0
 10
1.014120
 20
0.494557
 30
0
 11
1.014120
 21
0.463995
 31
0
  0
LINE
  8
0
 10
1.014120
 20
0.463995
 30
0
 11
1.014120
 21
0.402870
 31
0
  0
LINE
  8
0
 10
1.014120
 20
0.402870
 30
0
 11
1.004303
 21
0.395253
 31
0
  0
LINE
  8
0
 10
1.004303
 20
0.395253
 30
0
 11
0.998320
 21
0.392261
 31
0
  0
LINE
  8
0
 10
0.998320
 20
0.392261
 30
0
 11
0.986336
 21
0.388977
 31
0
  0
LINE
  8
0
 10
0.986336
 20
0.388977
 30
0
 11
0.986336
 21
0.375085
 31
0
  0
LINE
  8
0
 10
0.986336
 20
0.375085
 30
0
 11
0.986336
 21
0.388977
 31
0
  0
LINE
  8
0
 10
0.986336
 20
0.388977
 30
0
 11
0.986336
 21
0.375085
 31
0
  0
LINE
  8
0
 10
0.986336
 20
0.375085
 30
0
 11
1.014120
 21
0.375085
 31
0
  0
LINE
  8
0
 10
1.014120
 20
0.375085
 30
0
 11
0.986336
 21
0.375085
 31
0
  0
LINE
  8
0
 10
0.986336
 20
0.375085
 30
0
 11
1.014120
 21
0.375085
 31
0
  0
LINE
  8
0
 10
1.014120
 20
0.375085
 30
0
 11
1.014120
 21
0.358415
 31
0
  0
LINE
  8
0
 10
1.014120
 20
0.358415
 30
0
 11
1.014120
 21
0.350080
 31
0
  0
LINE
  8
0
 10
1.014120
 20
0.350080
 30
0
 11
1.014120
 21
0.333409
 31
0
  0
LINE
  8
0
 10
1.014120
 20
0.333409
 30
0
 11
1.004303
 21
0.325792
 31
0
  0
LINE
  8
0
 10
1.004303
 20
0.325792
 30
0
 11
0.998320
 21
0.322801
 31
0
  0
LINE
  8
0
 10
0.998320
 20
0.322801
 30
0
 11
0.986336
 21
0.319517
 31
0
  0
LINE
  8
0
 10
0.986336
 20
0.319517
 30
0
 11
0.986336
 21
0.305625
 31
0
  0
LINE
  8
0
 10
0.986336
 20
0.305625
 30
0
 11
0.986336
 21
0.319517
 31
0
  0
LINE
  8
0
 10
0.986336
 20
0.319517
 30
0
 11
0.986336
 21
0.305625
 31
0
  0
LINE
  8
0
 10
0.986336
 20
0.305625
 30
0
 11
1.014120
 21
0.305625
 31
0
  0
LINE
  8
0
 10
1.014120
 20
0.305625
 30
0
 11
0.986336
 21
0.305625
 31
0
  0
LINE
  8
0
 10
0.986336
 20
0.305625
 30
0
 11
1.014120
 21
0.305625
 31
0
  0
LINE
  8
0
 10
1.014120
 20
0.305625
 30
0
 11
1.014325
 21
0.255306
 31
0
  0
LINE
  8
0
 10
1.014325
 20
0.255306
 30
0
 11
1.017166
 21
0.229733
 31
0
  0
LINE
  8
0
 10
1.017166
 20
0.229733
 30
0
 11
1.028012
 21
0.180597
 31
0
  0
LINE
  8
0
 10
1.028012
 20
0.180597
 30
0
 11
1.016898
 21
0.180597
 31
0
  0
LINE
  8
0
 10
1.016898
 20
0.180597
 30
0
 11
1.011341
 21
0.180597
 31
0
  0
LINE
  8
0
 10
1.011341
 20
0.180597
 30
0
 11
1.000228
 21
0.180597
 31
0
  0
LINE
  8
0
 10
1.000228
 20
0.180597
 30
0
 11
1.000228
 21
0.166705
 31
0
  0
LINE
  8
0
 10
1.000228
 20
0.166705
 30
0
 11
1.000228
 21
0.180597
 31
0
  0
LINE
  8
0
 10
1.000228
 20
0.180597
 30
0
 11
1.000228
 21
0.166705
 31
0
  0
LINE
  8
0
 10
1.000228
 20
0.166705
 30
0
 11
1.041904
 21
0.166705
 31
0
  0
LINE
  8
0
 10
1.041904
 20
0.166705
 30
0
 11
1.000228
 21
0.166705
 31
0
  0
LINE
  8
0
 10
1.000228
 20
0.166705
 30
0
 11
1.041904
 21
0.166705
 31
0
  0
LINE
  8
0
 10
1.041904
 20
0.166705
 30
0
 11
1.042742
 21
0.160549
 31
0
  0
LINE
  8
0
 10
1.042742
 20
0.160549
 30
0
 11
1.050368
 21
0.156735
 31
0
  0
LINE
  8
0
 10
1.050368
 20
0.156735
 30
0
 11
1.055796
 21
0.159759
 31
0
  0
LINE
  8
0
 10
1.055796
 20
0.159759
 30
0
 11
1.079506
 21
0.160926
 31
0
  0
LINE
  8
0
 10
1.079506
 20
0.160926
 30
0
 11
1.092733
 21
0.165886
 31
0
  0
LINE
  8
0
 10
1.092733
 20
0.165886
 30
0
 11
1.111364
 21
0.180597
 31
0
  0
LINE
  8
0
 10
0.889091
 20
0.694603
 30
0
 11
1.041904
 21
0.694603
 31
0
  0
LINE
  8
0
 10
1.041904
 20
0.694603
 30
0
 11
0.889091
 21
0.694603
 31
0
  0
LINE
  8
0
 10
0.889091
 20
0.694603
 30
0
 11
1.041904
 21
0.694603
 31
0
  0
LINE
  8
0
 10
1.041904
 20
0.694603
 30
0
 11
1.058574
 21
0.683489
 31
0
  0
LINE
  8
0
 10
1.058574
 20
0.683489
 30
0
 11
1.066910
 21
0.677932
 31
0
  0
LINE
  8
0
 10
1.066910
 20
0.677932
 30
0
 11
1.083580
 21
0.666819
 31
0
  0
LINE
  8
0
 10
1.083580
 20
0.666819
 30
0
 11
1.139148
 21
0.666819
 31
0
  0
LINE
  8
0
 10
1.139148
 20
0.666819
 30
0
 11
1.083580
 21
0.666819
 31
0
  0
LINE
  8
0
 10
1.083580
 20
0.666819
 30
0
 11
1.139148
 21
0.666819
 31
0
  0
LINE
  8
0
 10
1.139148
 20
0.666819
 30
0
 11
1.137521
 21
0.676703
 31
0
  0
LINE
  8
0
 10
1.137521
 20
0.676703
 30
0
 11
1.143290
 21
0.685357
 31
0
  0
LINE
  8
0
 10
1.143290
 20
0.685357
 30
0
 11
1.153040
 21
0.687657
 31
0
  0
LINE
  8
0
 10
1.153040
 20
0.687657
 30
0
 11
1.171482
 21
0.712653
 31
0
  0
LINE
  8
0
 10
1.171482
 20
0.712653
 30
0
 11
1.175395
 21
0.734174
 31
0
  0
LINE
  8
0
 10
1.175395
 20
0.734174
 30
0
 11
1.166932
 21
0.764063
 31
0
  0
LINE
  8
0
 10
1.166932
 20
0.764063
 30
0
 11
1.153683
 21
0.768240
 31
0
  0
LINE
  8
0
 10
1.153683
 20
0.768240
 30
0
 11
1.146394
 21
0.777958
 31
0
  0
LINE
  8
0
 10
1.146394
 20
0.777958
 30
0
 11
1.146094
 21
0.791847
 31
0
  0
LINE
  8
0
 10
1.146094
 20
0.791847
 30
0
 11
1.103392
 21
0.835406
 31
0
  0
LINE
  8
0
 10
1.103392
 20
0.835406
 30
0
 11
1.073157
 21
0.852910
 31
0
  0
LINE
  8
0
 10
1.073157
 20
0.852910
 30
0
 11
1.014120
 21
0.868253
 31
0
  0
LINE
  8
0
 10
1.014120
 20
0.868253
 30
0
 11
0.960275
 21
0.882264
 31
0
  0
LINE
  8
0
 10
0.960275
 20
0.882264
 30
0
 11
0.927378
 21
0.880619
 31
0
  0
LINE
  8
0
 10
0.927378
 20
0.880619
 30
0
 11
0.875199
 21
0.861307
 31
0
  0
LINE
  8
0
 10
0.875199
 20
0.861307
 30
0
 11
0.824762
 21
0.842166
 31
0
  0
LINE
  8
0
 10
0.824762
 20
0.842166
 30
0
 11
0.799996
 21
0.825139
 31
0
  0
LINE
  8
0
 10
0.799996
 20
0.825139
 30
0
 11
0.764063
 21
0.784901
 31
0
  0
LINE
  8
0
 10
0.764063
 20
0.784901
 30
0
 11
0.750707
 21
0.753851
 31
0
  0
LINE
  8
0
 10
0.750707
 20
0.753851
 30
0
 11
0.747607
 21
0.735252
 31
0
  0
LINE
  8
0
 10
0.747607
 20
0.735252
 30
0
 11
0.750171
 21
0.701549
 31
0
  0
LINE
  8
0
 10
0.750171
 20
0.701549
 30
0
 11
0.764063
 21
0.687657
 31
0
  0
LINE
  8
0
 10
0.764063
 20
0.687657
 30
0
 11
0.771009
 21
0.680711
 31
0
  0
LINE
  8
0
 10
0.771009
 20
0.680711
 30
0
 11
0.784901
 21
0.666819
 31
0
  0
LINE
  8
0
 10
0.784901
 20
0.666819
 30
0
 11
0.827967
 21
0.664422
 31
0
  0
LINE
  8
0
 10
0.827967
 20
0.664422
 30
0
 11
0.852937
 21
0.671081
 31
0
  0
LINE
  8
0
 10
0.852937
 20
0.671081
 30
0
 11
0.889091
 21
0.694603
 31
0
  0
LINE
  8
0
 10
1.090526
 20
0.722387
 30
0
 11
1.098861
 21
0.719608
 31
0
  0
LINE
  8
0
 10
1.098861
 20
0.719608
 30
0
 11
1.103029
 21
0.718219
 31
0
  0
LINE
  8
0
 10
1.103029
 20
0.718219
 30
0
 11
1.111364
 21
0.715441
 31
0
  0
LINE
  8
0
 10
1.111364
 20
0.715441
 30
0
 11
1.111364
 21
0.734890
 31
0
  0
LINE
  8
0
 10
1.111364
 20
0.734890
 30
0
 11
1.111364
 21
0.744614
 31
0
  0
LINE
  8
0
 10
1.111364
 20
0.744614
 30
0
 11
1.111364
 21
0.764063
 31
0
  0
LINE
  8
0
 10
1.111364
 20
0.764063
 30
0
 11
1.068904
 21
0.778355
 31
0
  0
LINE
  8
0
 10
1.068904
 20
0.778355
 30
0
 11
1.047989
 21
0.790306
 31
0
  0
LINE
  8
0
 10
1.047989
 20
0.790306
 30
0
 11
1.014120
 21
0.819631
 31
0
  0
LINE
  8
0
 10
1.014120
 20
0.819631
 30
0
 11
0.964108
 21
0.819631
 31
0
  0
LINE
  8
0
 10
0.964108
 20
0.819631
 30
0
 11
0.939103
 21
0.819631
 31
0
  0
LINE
  8
0
 10
0.939103
 20
0.819631
 30
0
 11
0.889091
 21
0.819631
 31
0
  0
LINE
  8
0
 10
0.889091
 20
0.819631
 30
0
 11
0.885550
 21
0.803106
 31
0
  0
LINE
  8
0
 10
0.885550
 20
0.803106
 30
0
 11
0.884155
 21
0.794736
 31
0
  0
LINE
  8
0
 10
0.884155
 20
0.794736
 30
0
 11
0.882145
 21
0.777955
 31
0
  0
LINE
  8
0
 10
0.882145
 20
0.777955
 30
0
 11
0.893259
 21
0.766841
 31
0
  0
LINE
  8
0
 10
0.893259
 20
0.766841
 30
0
 11
0.898816
 21
0.761285
 31
0
  0
LINE
  8
0
 10
0.898816
 20
0.761285
 30
0
 11
0.909929
 21
0.750171
 31
0
  0
LINE
  8
0
 10
0.909929
 20
0.750171
 30
0
 11
0.973996
 21
0.757141
 31
0
  0
LINE
  8
0
 10
0.973996
 20
0.757141
 30
0
 11
1.009553
 21
0.752503
 31
0
  0
LINE
  8
0
 10
1.009553
 20
0.752503
 30
0
 11
1.069688
 21
0.729333
 31
0
  0
LINE
  8
0
 10
1.069688
 20
0.729333
 30
0
 11
1.078023
 21
0.726554
 31
0
  0
LINE
  8
0
 10
1.078023
 20
0.726554
 30
0
 11
1.082191
 21
0.725165
 31
0
  0
LINE
  8
0
 10
1.082191
 20
0.725165
 30
0
 11
1.090526
 21
0.722387
 31
0
  0
ENDSEC
  0
EOF